<svg width="446" height="268" viewBox="0 0 446 268" fill="none" xmlns="http://www.w3.org/2000/svg">
<g clip-path="url(#clip0_12_308)">
<path d="M144.191 97.2287C144.88 97.3984 145.599 97.4032 146.29 97.2427C146.219 97.949 146.101 99.1158 146.598 99.6721L146.43 99.7353C145.998 100.541 146.892 102.153 147.311 102.941C150.834 109.561 154.345 116.198 157.853 122.823L180.99 166.304C182.638 169.382 190.12 182.297 190.046 184.315C190.03 184.722 189.533 185.245 189.243 185.505C181.973 192.014 143.822 192.268 133.63 191.577C125.616 191.033 105.737 190.182 100.361 184.012C100.792 182.375 102.067 180.24 102.839 178.675C104.761 174.784 106.975 171.049 109.004 167.224L132.194 123.985L139.809 109.63C140.694 107.956 144.782 101.078 144.166 99.5101L144.191 97.2287Z" fill="#362247"/>
<path d="M144.086 125.071C144.101 122.707 144.534 107.272 143.93 106.482C142.653 108.447 141.095 111.675 139.951 113.84L133.364 126.215C126.296 139.635 119.096 152.985 111.766 166.264C109.599 170.165 106.337 177.188 103.918 180.481C105.557 180.119 106.729 179.791 108.335 179.291C116.792 177.114 126.459 176.472 135.149 175.725C136.983 175.568 141.796 176.03 142.838 175.17L144.146 173.926C144.25 171.141 144.149 168.181 144.149 165.37L144.132 147.466L144.086 125.071Z" fill="#1E1B24"/>
<path d="M146.299 164.546C146.299 167.469 146.223 171.229 146.462 174.081L147.544 175.049C148.635 175.833 154.316 175.646 156.071 175.78C164.643 176.443 173.192 176.837 181.586 178.878C182.346 179.063 185.263 180.13 185.677 180.143C185.918 179.829 185.869 180.003 185.844 179.624C181.497 172.055 176.865 162.897 172.704 155.082L146.297 105.615L146.4 147.673C146.326 153.298 146.293 158.921 146.299 164.546Z" fill="#1E1B24"/>
<path d="M185.844 179.624C185.868 180.003 185.918 179.829 185.677 180.143C185.263 180.13 182.346 179.063 181.586 178.878C173.192 176.837 164.643 176.443 156.071 175.78C154.316 175.646 148.635 175.833 147.544 175.049C148.236 174.518 151.147 174.751 152.187 174.782C152.876 175.06 154.564 175.06 155.366 175.104C166.026 175.697 175.58 176.504 185.844 179.624Z" fill="#1E1B24"/>
<path d="M188.264 183.845C182.533 178.389 149.364 177.481 149.364 177.481L141.372 177.559C131.859 178.142 110.298 178.144 102.534 183.716C105.178 186.13 111.552 187.111 114.981 187.806C129.256 190.703 176.897 191.429 188.264 183.845Z" fill="#4A2D63"/>
<path d="M99.6538 186.183C100.367 186.437 101.542 187 102.294 187.314C110.189 190.616 119.091 191.556 127.563 192.086C130.256 192.278 132.895 192.698 135.601 192.791C151.104 193.316 166.898 192.727 182.109 189.525C185.075 188.9 188.111 187.526 190.901 186.391C190.702 191.298 189.165 194.197 185.823 197.647C178.048 205.488 161.954 208.387 151.238 209.092C136.088 210.09 100.421 206.648 99.6538 186.183Z" fill="#C53DFF"/>
<path d="M303.494 95.1164C304.183 95.2861 304.902 95.2909 305.593 95.1304C305.522 95.8367 305.404 97.0035 305.901 97.5598L305.733 97.623C305.301 98.4288 306.195 100.041 306.614 100.829C310.137 107.448 313.648 114.085 317.156 120.711L340.293 164.191C341.941 167.27 349.423 180.185 349.349 182.203C349.333 182.61 348.836 183.133 348.546 183.392C341.276 189.902 303.125 190.156 292.933 189.464C284.919 188.921 265.04 188.07 259.664 181.9C260.095 180.263 261.37 178.128 262.142 176.563C264.064 172.671 266.278 168.937 268.307 165.112L291.497 121.872L299.112 107.518C299.997 105.844 304.085 98.9659 303.469 97.3978L303.494 95.1164Z" fill="#491A1A"/>
<path d="M303.389 122.958C303.404 120.594 303.837 105.16 303.233 104.369C301.957 106.334 300.399 109.562 299.254 111.728L292.668 124.102C285.599 137.522 278.399 150.873 271.069 164.151C268.902 168.052 265.641 175.075 263.221 178.368C264.86 178.006 266.032 177.678 267.638 177.178C276.095 175.001 285.763 174.359 294.452 173.613C296.286 173.455 301.099 173.918 302.141 173.057L303.449 171.813C303.553 169.028 303.452 166.069 303.452 163.257L303.435 145.354L303.389 122.958Z" fill="#271212"/>
<path d="M305.602 162.433C305.602 165.356 305.526 169.117 305.765 171.968L306.847 172.937C307.938 173.721 313.619 173.533 315.374 173.668C323.946 174.331 332.495 174.725 340.889 176.765C341.649 176.951 344.566 178.018 344.98 178.031C345.221 177.716 345.172 177.891 345.147 177.512C340.8 169.943 336.168 160.785 332.007 152.97L305.6 103.502L305.703 145.561C305.629 151.185 305.596 156.808 305.602 162.433Z" fill="#271212"/>
<path d="M345.147 177.512C345.172 177.891 345.221 177.716 344.98 178.031C344.566 178.018 341.649 176.951 340.889 176.765C332.495 174.725 323.946 174.331 315.374 173.668C313.62 173.533 307.938 173.721 306.847 172.937C307.539 172.406 310.451 172.639 311.491 172.669C312.18 172.948 313.867 172.948 314.67 172.991C325.329 173.584 334.884 174.392 345.147 177.512Z" fill="#1E1B24"/>
<path d="M347.567 181.733C341.836 176.276 308.667 175.369 308.667 175.369L300.675 175.447C291.162 176.03 269.601 176.032 261.837 181.604C264.481 184.017 270.855 184.999 274.284 185.694C288.559 188.591 336.2 189.316 347.567 181.733Z" fill="#6A2222"/>
<path d="M258.957 184.071C259.67 184.325 260.845 184.887 261.597 185.202C269.493 188.504 278.394 189.444 286.866 189.974C289.559 190.165 292.199 190.586 294.904 190.679C310.407 191.204 326.201 190.614 341.413 187.413C344.378 186.787 347.414 185.414 350.204 184.279C350.005 189.186 348.468 192.085 345.126 195.534C337.351 203.376 321.257 206.275 310.541 206.979C295.392 207.978 259.725 204.535 258.957 184.071Z" fill="#FB3737"/>
<path d="M132.526 73.477C132.656 78.5964 133.859 82.9056 139.94 83.4661C146.198 84.043 153.412 83.5666 159.736 83.2272L196.33 81.1959C201.962 80.8828 207.412 80.3951 213.082 80.2356C212.375 82.3991 212.295 84.5078 212.542 86.7645C197.971 86.4525 183.237 86.7581 168.656 86.613C162.7 86.5537 153.919 86.8723 148.137 86.4174C153.906 90.8613 153.547 96.8237 146.598 99.672C146.1 99.1157 146.218 97.9489 146.29 97.2426C145.599 97.4031 144.88 97.3983 144.191 97.2286L144.166 99.51C140.326 98.0586 137.316 95.2916 138.785 90.6474C139.317 88.966 140.924 87.6961 142.231 86.5717C136.336 86.6086 130.825 88.0627 130.919 79.5687C130.945 77.2223 131.501 75.5826 132.526 73.477Z" fill="#383838"/>
<path d="M144.191 97.2286C141.883 96.6599 140.413 94.3961 140.833 92.0563C141.253 89.7164 143.418 88.1047 145.78 88.3737C148.142 88.643 149.889 90.7002 149.771 93.0745C149.672 95.0857 148.251 96.787 146.29 97.2426C145.599 97.4031 144.88 97.3984 144.191 97.2286Z" fill="#191B1F"/>
<path d="M316.579 73.0944C319.104 77.2334 319.744 83.0485 315.879 86.6433C313.756 86.8214 311.736 86.7724 309.609 86.7551C312.672 91.4653 311.05 95.2555 306.007 97.2554C305.566 96.4114 305.689 95.8233 305.706 94.8442L303.667 94.8236L303.76 97.1008C301.727 96.49 300.34 95.9214 299.259 93.8475C298.463 92.315 298.332 90.5228 298.897 88.891C299.191 88.0383 299.588 87.3813 300.049 86.6183C278.085 86.6055 255.671 86.3931 233.74 86.7167C234.117 84.0628 234.104 82.8675 233.477 80.2154C240.405 80.385 247.066 80.9164 253.955 81.2678L283.917 82.7759C289.68 83.1129 295.472 83.6629 301.244 83.6803C305.837 83.6939 311.297 84.6897 314.853 81.1543C316.296 79.7188 317.022 77.768 317.033 75.742C317.037 74.8025 316.694 73.9949 316.579 73.0944Z" fill="#383838"/>
<path d="M303.667 94.8234C298.279 93.3074 300.763 85.0838 305.999 87.0221C307.214 87.479 308.182 88.422 308.673 89.6238C309.724 92.273 308.282 94.1637 305.706 94.844L303.667 94.8234Z" fill="#191B1F"/>
<path d="M222.862 74.4045C228.168 74.1251 232.707 78.1776 233.03 83.4825C233.352 88.7874 229.335 93.3597 224.034 93.7246C218.671 94.0936 214.035 90.0215 213.709 84.6558C213.383 79.2903 217.493 74.6872 222.862 74.4045Z" fill="#533563"/>
<path d="M222.218 77.9413C225.539 77.3106 228.748 79.4757 229.406 82.7917C230.065 86.1077 227.926 89.3341 224.614 90.0197C221.267 90.7131 217.993 88.5441 217.327 85.189C216.661 81.8342 218.857 78.5796 222.218 77.9413Z" fill="#362247"/>
<path d="M222.576 48.1776C223.404 48.2034 224.345 48.2049 224.936 48.8767C225.77 49.8243 225.635 71.1812 225.427 73.4059C224.87 73.6376 224.639 73.4821 223.936 73.3859C222.795 73.3533 222.146 73.4783 221.035 73.6492L221.066 59.2513C221.073 56.4594 221.022 53.5655 221.196 50.7851C221.285 49.3469 221.53 49.0591 222.576 48.1776Z" fill="#383838"/>
</g>
<defs>
<clipPath id="clip0_12_308">
<rect width="388" height="204.908" fill="white" transform="translate(29 31.5463)"/>
</clipPath>
</defs>
</svg>
