<svg width="50" height="50" viewBox="0 0 50 50" fill="none" xmlns="http://www.w3.org/2000/svg">
<rect width="50" height="50" rx="8" fill="#29292A"/>
<path fill-rule="evenodd" clip-rule="evenodd" d="M25 16C20.0294 16 16 20.0294 16 25C16 29.9706 20.0294 34 25 34C27.4853 34 29.7353 32.9926 31.364 31.364L29.2426 29.2426C28.1573 30.328 26.6573 31 25 31C21.6863 31 19 28.3137 19 25C19 21.6863 21.6863 19 25 19C26.6573 19 28.1573 19.672 29.2426 20.7574L31.364 18.636C29.7353 17.0074 27.4853 16 25 16ZM25 22C26.6569 22 28 23.3431 28 25C28 26.6569 26.6569 28 25 28C23.3431 28 22 26.6569 22 25C22 23.3431 23.3431 22 25 22Z" fill="white"/>
</svg>
