<svg width="564" height="289" viewBox="0 0 564 289" fill="none" xmlns="http://www.w3.org/2000/svg">
<rect x="219.283" y="85.2783" width="4" height="66.8683" transform="rotate(-45 219.283 85.2783)" fill="#262626"/>
<circle cx="207.333" cy="70.5" r="19" fill="#1E1B24" stroke="#383838" stroke-width="2"/>
<rect width="4" height="66.8683" transform="matrix(0.707107 0.707107 0.707107 -0.707107 219.283 203.783)" fill="#262626"/>
<circle cx="20" cy="20" r="19" transform="matrix(1 0 0 -1 187.333 238.561)" fill="#1E1B24" stroke="#383838" stroke-width="2"/>
<rect width="4" height="66.8683" transform="matrix(-0.707107 -0.707107 -0.707107 0.707107 345.445 85.2783)" fill="#262626"/>
<circle cx="20" cy="20" r="19" transform="matrix(-1 0 0 1 377.395 50.5)" fill="#1E1B24" stroke="#383838" stroke-width="2"/>
<rect x="345.445" y="203.783" width="4" height="66.8683" transform="rotate(135 345.445 203.783)" fill="#262626"/>
<circle cx="357.395" cy="218.561" r="19" transform="rotate(180 357.395 218.561)" fill="#2C1717" stroke="#FB3737" stroke-width="2" stroke-dasharray="4 4"/>
<circle cx="282.333" cy="144.5" r="19" fill="#1E1B24" stroke="#C53DFF" stroke-width="2"/>
<circle cx="282.333" cy="144.5" r="9" fill="#C53DFF"/>
</svg>
