<svg width="564" height="289" viewBox="0 0 564 289" fill="none" xmlns="http://www.w3.org/2000/svg">
<rect x="154.211" y="146.264" width="84.469" height="4.44574" fill="#49185E"/>
<path d="M238.68 148.487H319.815" stroke="#FB3737" stroke-width="4.44574" stroke-dasharray="4.45 4.45"/>
<path d="M356.472 136.935C358.696 137.191 366.834 136.585 368.117 137.462C367.545 137.949 367.41 137.991 366.758 138.333C367.28 138.296 367.801 138.252 368.32 138.203C368.631 138.576 368.554 138.381 368.627 138.754C369.34 138.47 370.125 138.177 370.82 137.863L370.848 151.19C375.491 151.199 380.646 151.112 385.253 151.241C385.251 152.483 385.379 155.913 384.901 156.828C385.004 157.531 385.072 157.21 384.66 157.819C385.228 158.578 385.175 163.635 385.216 165.062C380.738 165.131 376.108 165.364 371.662 164.994C370.194 164.87 370.747 160.092 370.697 159.036C370.63 157.693 370.431 154.264 370.871 153.109C370.706 152.409 370.685 152.457 370.909 151.78C367.305 149.754 362.085 149.072 358.156 146.229C357.552 145.687 357.712 145.239 357.689 144.486C357.154 143.988 356.943 143.898 356.328 143.51L356.449 142.988C356.921 142.477 356.95 142.647 357.886 142.575C354.958 141.884 357.312 138.887 356.063 137.192C356.2 137.107 356.335 137.021 356.472 136.935Z" fill="#FB3737"/>
<path d="M370.871 153.11C374.658 154.171 381.115 156.131 384.66 157.819C385.228 158.579 385.175 163.636 385.216 165.063C380.738 165.132 376.108 165.365 371.662 164.994C370.194 164.871 370.747 160.093 370.697 159.036C370.63 157.693 370.431 154.265 370.871 153.11Z" fill="#FB3737"/>
<path d="M356.472 136.935C358.696 137.191 366.834 136.585 368.117 137.462C367.545 137.949 367.41 137.991 366.758 138.333C364.455 139.225 361.367 140.514 359.363 141.974L357.886 142.575C354.958 141.884 357.312 138.887 356.063 137.192C356.2 137.107 356.335 137.021 356.472 136.935Z" fill="#FB3737"/>
<path d="M370.909 151.78C375.509 153.141 380.463 155.026 384.901 156.828C385.004 157.53 385.072 157.21 384.66 157.819C381.115 156.131 374.658 154.17 370.871 153.109C370.706 152.409 370.685 152.457 370.909 151.78Z" fill="#0E0E10"/>
<path d="M366.758 138.334C367.279 138.296 367.801 138.253 368.32 138.203C368.631 138.576 368.553 138.381 368.627 138.754C366.966 139.486 360.951 142.255 359.635 142.42L359.363 141.974C361.367 140.515 364.455 139.225 366.758 138.334Z" fill="#0E0E10"/>
<path d="M359.363 141.974L359.636 142.42L359.249 142.812C359.395 144.086 359.041 145.28 358.156 146.229C357.552 145.687 357.712 145.239 357.689 144.487C357.154 143.988 356.944 143.899 356.328 143.51L356.449 142.988C356.921 142.477 356.95 142.648 357.886 142.575L359.363 141.974Z" fill="#0E0E10"/>
<path d="M415.868 150.8C415.918 150.788 415.968 150.763 416.019 150.765C416.97 150.816 424.582 159.571 425.785 160.877C423.253 163.782 419.978 167.067 417.302 169.983C415.429 169.072 413.51 168.302 411.588 167.503C408.638 166.225 404.491 164.987 401.922 163.649C400.918 161.989 399.882 160.177 398.716 158.643C403.896 156.495 410.911 153.261 415.868 150.8Z" fill="#FB3737"/>
<path d="M419.122 98.0994C422.391 100.606 432.414 106.443 436 108.417C431.954 110.839 427.94 113.314 423.96 115.842L421.609 117.282C417.521 115.303 413.26 112.577 408.866 110.439C412.274 106.747 416.044 102.034 419.122 98.0994Z" fill="#FB3737"/>
<path d="M373.096 137.044C376.975 135.457 381.31 133.49 385.219 132.136C385.262 133.412 384.935 135.592 385.456 136.685C385.584 136.954 385.955 136.882 386.406 136.931L386.428 137.035C388.299 137.029 398.407 136.793 399.436 137.357L399.628 137.715C399.532 142.177 399.514 146.641 399.569 151.104C394.834 151.127 389.919 151.255 385.207 151.229C385.177 149.089 384.96 140.579 385.184 139.056C385.171 138.322 385.237 137.824 384.896 137.18C382.588 136.887 375.967 137.16 373.096 137.044Z" fill="#FB3737"/>
<path d="M399.555 122.626C404.342 122.595 409.132 122.589 413.921 122.607L413.949 137.053C411.785 137.042 400.863 136.899 399.754 137.288L399.628 137.715L399.436 137.357C398.407 136.793 388.3 137.029 386.429 137.035L386.406 136.931C390.026 136.843 395.953 136.745 399.553 136.955C399.589 132.179 399.592 127.402 399.555 122.626Z" fill="#FB3737"/>
<path d="M356.404 109.362C361.134 109.382 366.193 109.324 370.898 109.443C370.635 111.683 370.228 121.53 370.944 123.162L370.624 123.769L370.436 123.518C369.619 123.28 361.461 123.401 359.796 123.382C360.756 122.309 363.684 119.89 363.942 118.835C363.05 118.671 358.844 123.161 357.28 124.023C356.738 123.581 356.857 123.548 356.562 122.812C356.411 118.387 356.436 113.8 356.404 109.362Z" fill="#FB3737"/>
<path d="M405.074 171.195L405.276 171.206C405.722 171.506 410.225 178.964 411.259 180.268C409.159 182.288 403.51 188.87 402.181 189.904L401.806 189.815L401.271 188.937C398.613 183.983 395.921 179.335 393.169 174.454C396.957 173.681 401.474 172.521 405.074 171.195Z" fill="#FB3737"/>
<path d="M370.944 123.163C375.676 123.126 380.406 123.123 385.138 123.152C385.173 125.759 385.223 128.366 385.285 130.973C382.499 131.493 373.707 135.316 370.676 136.573C370.669 133.713 370.395 126.278 370.624 123.77L370.944 123.163Z" fill="#FB3737"/>
<path d="M319.815 146.264C321.356 145.582 324.192 144.217 325.707 143.204C330.21 140.185 335.26 136.903 339.499 133.552C341.091 134.752 347.833 141.815 346.742 143.83C344.707 144.237 340.414 138.073 339.259 136.39C335.848 139.291 326.711 145.69 322.868 147.753C327.87 149.439 333.856 151.301 338.659 153.341C340.677 150.928 342.923 147.499 344.826 145.447C345.594 146.079 346.031 146.44 346.864 146.966C343.993 149.967 342.031 152.954 339.355 155.918C336.411 154.754 322.847 151.238 319.815 150.71V146.264Z" fill="#FB3737"/>
<path d="M406.296 97.3724L406.428 97.3607L406.561 97.5856C404.628 100.988 402.718 104.961 400.804 108.498C396.266 108.947 391.721 109.342 387.172 109.682L386.884 109.526C386.93 109.068 392.099 100.361 392.76 99.2141C397.215 98.6208 401.9 98.1782 406.296 97.3724Z" fill="#FB3737"/>
<path d="M379.539 168.068C383.199 167.91 385.09 168.123 388.69 168.548C387.972 170.058 384.644 177.711 383.439 177.956L382.693 177.297C379.409 174.401 375.232 171.309 371.74 168.528C374.313 168.272 376.952 168.187 379.539 168.068Z" fill="#FB3737"/>
<path d="M344.684 155.042L348.369 154.966C349.574 157.94 349.661 159.831 352.515 161.718C353.231 162.192 354.258 162.873 354.75 163.539L354.615 163.768L353.837 163.795C350.505 163.697 347.172 163.647 343.84 163.64C343.716 160.902 343.46 158.15 343.328 155.392C343.748 155.024 344.002 155.122 344.684 155.042Z" fill="#FB3737"/>
<path d="M356.365 150.968C356.564 151.005 356.829 151.023 356.968 151.122C356.163 151.591 356.484 159.719 356.49 161.186C355.26 160.95 353.732 160.781 352.467 160.611C350.802 157.098 350.194 154.916 348.133 151.099C350.214 151.09 354.471 151.206 356.365 150.968Z" fill="#FB3737"/>
<path d="M343.995 125.506C347.095 125.291 349.466 125.005 352.493 124.352L353.291 125.012C351.822 127.671 350.324 130.695 348.872 133.413L345.253 134.098C344.725 131.111 344.361 128.52 343.995 125.506Z" fill="#FB3737"/>
<path d="M352.897 128.3C354.052 128.154 355.37 127.754 356.511 127.451C356.523 130.591 356.571 133.804 356.472 136.935C356.335 137.021 356.2 137.107 356.063 137.193C354.441 137.44 350.949 137.509 349.183 137.594C349.915 135.096 351.831 130.835 352.897 128.3Z" fill="#FB3737"/>
<path d="M356.589 162.133C360.745 163.259 364.045 164.743 368.663 165.839L367.922 168.586C366.506 168.73 360.525 165.278 358.503 165.118C357.989 165.077 357.09 164.766 356.584 164.581C356.246 164.009 356.509 162.941 356.589 162.133Z" fill="#FB3737"/>
<path d="M356.401 147.572C359.745 148.755 363.819 150.187 366.973 151.703C363.86 151.532 360.043 151.403 356.969 151.122C356.829 151.024 356.564 151.005 356.365 150.969C356.333 149.747 356.301 148.801 356.401 147.572Z" fill="#FB3737"/>
<path d="M357.689 144.486L357.319 145.106C356.12 145.625 351.022 145.815 349.807 145.557C349.688 144.891 349.812 144.763 350.052 144.125C350.889 143.553 354.8 143.864 356.328 143.51C356.944 143.898 357.154 143.988 357.689 144.486Z" fill="#FB3737"/>
<path d="M356.562 122.812C356.857 123.548 356.738 123.58 357.28 124.022C356.42 124.899 355.683 126.195 354.457 126.579L353.968 126.433C353.817 126.101 353.501 125.236 353.291 125.013L352.493 124.352C353.902 124.034 355.002 124.19 356.214 123.797C356.527 123.695 356.472 123.306 356.562 122.812Z" fill="#FB3737"/>
<circle cx="149.765" cy="147.375" r="21.1172" fill="#1E1B24" stroke="#C53DFF" stroke-width="2.22287"/>
<circle cx="149.766" cy="147.375" r="10.0029" fill="#C53DFF"/>
</svg>
