<svg width="655" height="289" viewBox="0 0 655 289" fill="none" xmlns="http://www.w3.org/2000/svg">
<rect x="232" y="176.538" width="28.8608" height="48.1013" fill="#34A853"/>
<rect x="269.278" y="152.487" width="28.8608" height="72.1519" fill="#1F6A33"/>
<rect x="306.557" y="118.816" width="28.8608" height="105.823" fill="#13381D"/>
<rect x="344.437" y="96.5695" width="27.6582" height="127.468" stroke="#662020" stroke-width="1.20253" stroke-dasharray="4.81 4.81"/>
<rect x="381.715" y="76.1267" width="27.6582" height="147.911" stroke="#662020" stroke-width="1.20253" stroke-dasharray="4.81 4.81"/>
<g clip-path="url(#clip0_12_57)">
<path d="M401.473 84.0273C400.324 82.918 399.408 81.5911 398.778 80.1239C398.148 78.6568 397.816 77.0788 397.802 75.4821C397.788 73.8854 398.092 72.3019 398.697 70.824C399.302 69.3462 400.195 68.0035 401.324 66.8744C402.453 65.7453 403.795 64.8524 405.273 64.2478C406.751 63.6431 408.335 63.3389 409.931 63.3527C411.528 63.3666 413.106 63.6984 414.573 64.3286C416.04 64.9588 417.367 65.8749 418.476 67.0235C420.667 69.2915 421.879 72.3291 421.852 75.4821C421.824 78.6351 420.56 81.6512 418.33 83.8808C416.1 86.1104 413.084 87.3751 409.931 87.4025C406.778 87.4299 403.741 86.2178 401.473 84.0273ZM411.658 75.5254L415.061 72.1222L413.366 70.4266L409.975 73.8298L406.571 70.4266L404.876 72.1222L408.279 75.5254L404.876 78.9285L406.571 80.6241L409.975 77.2209L413.378 80.6241L415.073 78.9285L411.67 75.5254H411.658Z" fill="#FB3737"/>
</g>
<defs>
<clipPath id="clip0_12_57">
<rect width="25" height="25" fill="white" transform="translate(397.5 63)"/>
</clipPath>
</defs>
</svg>
