<svg width="473" height="289" viewBox="0 0 473 289" fill="none" xmlns="http://www.w3.org/2000/svg">
<rect x="234" y="79.5" width="4" height="64" fill="#262626"/>
<rect x="151.2" y="81.5288" width="4" height="99.0719" transform="rotate(-45 151.2 81.5288)" fill="#262626"/>
<rect x="318.12" y="79.635" width="4" height="97.7504" transform="rotate(45 318.12 79.635)" fill="#262626"/>
<rect x="234" y="183.5" width="4" height="41" fill="#49185E"/>
<circle cx="236" cy="163.5" r="20" fill="#1E1B24"/>
<circle cx="236" cy="163.5" r="19" stroke="#C53DFF" stroke-opacity="0.85098" stroke-width="2"/>
<circle cx="236" cy="59.5" r="19" fill="#1E1B24" stroke="#383838" stroke-width="2"/>
<circle cx="138" cy="67.5" r="19" fill="#1E1B24" stroke="#383838" stroke-width="2"/>
<circle cx="334" cy="67.5" r="19" fill="#1E1B24" stroke="#383838" stroke-width="2"/>
<circle cx="236" cy="236.5" r="12" fill="#1E1B24"/>
<circle cx="236" cy="236.5" r="11" stroke="#C53DFF" stroke-opacity="0.85098" stroke-width="2"/>
<circle cx="236" cy="163.5" r="9" fill="#C53DFF"/>
<path d="M138 77.5C132.477 77.5 128 73.023 128 67.5C128 61.977 132.477 57.5 138 57.5C143.523 57.5 148 61.977 148 67.5C148 73.023 143.523 77.5 138 77.5ZM137 70.5V72.5H139V70.5H137ZM139 68.855C139.804 68.6128 140.494 68.09 140.944 67.3817C141.395 66.6735 141.576 65.8271 141.455 64.9965C141.334 64.1659 140.918 63.4064 140.284 62.8565C139.65 62.3065 138.839 62.0025 138 62C137.191 61.9997 136.407 62.2799 135.781 62.7928C135.155 63.3056 134.726 64.0195 134.567 64.813L136.529 65.206C136.585 64.9274 136.718 64.6704 136.914 64.4648C137.11 64.2592 137.361 64.1135 137.636 64.0447C137.912 63.9759 138.202 63.9867 138.471 64.076C138.741 64.1652 138.98 64.3292 139.16 64.5489C139.34 64.7686 139.454 65.0349 139.489 65.3168C139.523 65.5988 139.477 65.8848 139.356 66.1416C139.234 66.3984 139.042 66.6154 138.802 66.7673C138.562 66.9193 138.284 67 138 67C137.735 67 137.48 67.1054 137.293 67.2929C137.105 67.4804 137 67.7348 137 68V69.5H139V68.855Z" fill="#656565"/>
<path d="M236 69.5C230.477 69.5 226 65.023 226 59.5C226 53.977 230.477 49.5 236 49.5C241.523 49.5 246 53.977 246 59.5C246 65.023 241.523 69.5 236 69.5ZM235 62.5V64.5H237V62.5H235ZM237 60.855C237.804 60.6128 238.494 60.09 238.944 59.3817C239.395 58.6735 239.576 57.8271 239.455 56.9965C239.334 56.1659 238.918 55.4064 238.284 54.8565C237.65 54.3065 236.839 54.0025 236 54C235.191 53.9997 234.407 54.2799 233.781 54.7928C233.155 55.3056 232.726 56.0195 232.567 56.813L234.529 57.206C234.585 56.9274 234.718 56.6704 234.914 56.4648C235.11 56.2592 235.361 56.1135 235.636 56.0447C235.912 55.9759 236.202 55.9867 236.471 56.076C236.741 56.1652 236.98 56.3292 237.16 56.5489C237.34 56.7686 237.454 57.0349 237.489 57.3168C237.523 57.5988 237.477 57.8848 237.356 58.1416C237.234 58.3984 237.042 58.6154 236.802 58.7673C236.562 58.9193 236.284 59 236 59C235.735 59 235.48 59.1054 235.293 59.2929C235.105 59.4804 235 59.7348 235 60V61.5H237V60.855Z" fill="#656565"/>
<path d="M334 77.5C328.477 77.5 324 73.023 324 67.5C324 61.977 328.477 57.5 334 57.5C339.523 57.5 344 61.977 344 67.5C344 73.023 339.523 77.5 334 77.5ZM333 70.5V72.5H335V70.5H333ZM335 68.855C335.804 68.6128 336.494 68.09 336.944 67.3817C337.395 66.6735 337.576 65.8271 337.455 64.9965C337.334 64.1659 336.918 63.4064 336.284 62.8565C335.65 62.3065 334.839 62.0025 334 62C333.191 61.9997 332.407 62.2799 331.781 62.7928C331.155 63.3056 330.726 64.0195 330.567 64.813L332.529 65.206C332.585 64.9274 332.718 64.6704 332.914 64.4648C333.11 64.2592 333.361 64.1135 333.636 64.0447C333.912 63.9759 334.202 63.9867 334.471 64.076C334.741 64.1652 334.98 64.3292 335.16 64.5489C335.34 64.7686 335.454 65.0349 335.489 65.3168C335.523 65.5988 335.477 65.8848 335.356 66.1416C335.234 66.3984 335.042 66.6154 334.802 66.7673C334.562 66.9193 334.284 67 334 67C333.735 67 333.48 67.1054 333.293 67.2929C333.105 67.4804 333 67.7348 333 68V69.5H335V68.855Z" fill="#656565"/>
</svg>
