<svg width="50" height="50" viewBox="0 0 50 50" fill="none" xmlns="http://www.w3.org/2000/svg">
<rect width="50" height="50" rx="8" fill="#29292A"/>
<path d="M25.6797 24.0905V24.1185H25.6616L25.6797 24.0905Z" fill="white"/>
<path fill-rule="evenodd" clip-rule="evenodd" d="M20 16C17.7909 16 16 17.7909 16 20V30C16 32.2091 17.7909 34 20 34H30C32.2091 34 34 32.2091 34 30V20C34 17.7909 32.2091 16 30 16H20ZM21.4569 31.0677V22.9397H18.7382V31.0677H21.4569ZM20.0975 21.83C21.0456 21.83 21.6357 21.2059 21.6357 20.4259C21.6181 19.6283 21.0456 19.0215 20.1155 19.0215C19.1855 19.0215 18.5775 19.6283 18.5775 20.4259C18.5775 21.2059 19.1674 21.83 20.0798 21.83H20.0975ZM22.9609 31.0677H25.6797V26.5287C25.6797 26.2858 25.6973 26.0431 25.7691 25.8694C25.9656 25.3841 26.413 24.8814 27.1641 24.8814C28.1478 24.8814 28.5414 25.6267 28.5414 26.7194V31.0677H31.2599V26.4072C31.2599 23.9107 29.9186 22.749 28.1299 22.749C26.6877 22.749 26.041 23.5366 25.6797 24.0905V22.9397H22.961C22.9967 23.7024 22.9609 31.0677 22.9609 31.0677Z" fill="white"/>
</svg>
