<svg width="620" height="289" viewBox="0 0 620 289" fill="none" xmlns="http://www.w3.org/2000/svg">
<path d="M263.354 94.7416L232.169 110.386V182.815L263.354 164.992V94.7416Z" fill="#50345C"/>
<path d="M165 183.5V111.191H228.399V183.5H165Z" fill="#C53DFF"/>
<path d="M198.169 92L165 108.449H230.528L263.697 92H198.169Z" fill="#50345C"/>
<circle cx="428" cy="138" r="33" fill="#1E1B24" stroke="#C53DFF" stroke-width="2"/>
<circle cx="428.001" cy="138" r="15.3" fill="#C53DFF"/>
<path d="M273 137L385 137" stroke="#662020" stroke-width="4" stroke-dasharray="4 4"/>
<g clip-path="url(#clip0_12_168)">
<path d="M321.523 145.527C320.375 144.418 319.459 143.091 318.829 141.624C318.198 140.157 317.867 138.579 317.853 136.982C317.839 135.385 318.143 133.802 318.748 132.324C319.352 130.846 320.245 129.504 321.374 128.374C322.504 127.245 323.846 126.352 325.324 125.748C326.802 125.143 328.385 124.839 329.982 124.853C331.579 124.867 333.157 125.198 334.624 125.829C336.091 126.459 337.418 127.375 338.527 128.523C340.718 130.791 341.93 133.829 341.902 136.982C341.875 140.135 340.61 143.151 338.381 145.381C336.151 147.61 333.135 148.875 329.982 148.902C326.829 148.93 323.791 147.718 321.523 145.527Z" fill="#131116"/>
<path d="M321.523 145.527C320.375 144.418 319.459 143.091 318.829 141.624C318.198 140.157 317.867 138.579 317.853 136.982C317.839 135.385 318.143 133.802 318.748 132.324C319.352 130.846 320.245 129.504 321.374 128.374C322.504 127.245 323.846 126.352 325.324 125.748C326.802 125.143 328.385 124.839 329.982 124.853C331.579 124.867 333.157 125.198 334.624 125.829C336.091 126.459 337.418 127.375 338.527 128.523C340.718 130.791 341.93 133.829 341.902 136.982C341.875 140.135 340.61 143.151 338.381 145.381C336.151 147.61 333.135 148.875 329.982 148.902C326.829 148.93 323.791 147.718 321.523 145.527ZM331.709 137.025L335.112 133.622L333.417 131.927L330.025 135.33L326.622 131.927L324.927 133.622L328.33 137.025L324.927 140.429L326.622 142.124L330.025 138.721L333.429 142.124L335.124 140.429L331.721 137.025H331.709Z" fill="#FB3737"/>
</g>
<defs>
<clipPath id="clip0_12_168">
<rect width="25" height="25" fill="white" transform="translate(317 124)"/>
</clipPath>
</defs>
</svg>
