<svg width="469" height="289" viewBox="0 0 469 289" fill="none" xmlns="http://www.w3.org/2000/svg">
<path d="M58.9637 74L58 74.9637L106.865 123.828L122.197 108.495L149.114 135.413L182.164 102.363L238.384 158.582L263.938 133.028L319.816 188.907L351.163 157.56L408.605 215.001L409.568 214.037L351.163 155.633L319.816 186.98L263.938 131.101L238.384 156.655L182.164 100.435L149.114 133.486L122.197 106.568L106.865 121.901L58.9637 74Z" fill="#FB3737"/>
<circle cx="181.44" cy="101.205" r="13.3" fill="#1E1B24" stroke="#FB3737" stroke-width="1.4"/>
<circle cx="181.44" cy="101.205" r="6.3" fill="#FB3737"/>
<circle cx="236.44" cy="155.205" r="13.3" fill="#1E1B24" stroke="#FB3737" stroke-width="1.4"/>
<circle cx="236.44" cy="155.205" r="6.3" fill="#FB3737"/>
<circle cx="353.44" cy="158.205" r="13.3" fill="#1E1B24" stroke="#FB3737" stroke-width="1.4"/>
<circle cx="353.44" cy="158.205" r="6.3" fill="#FB3737"/>
</svg>
