<svg width="659" height="289" viewBox="0 0 659 289" fill="none" xmlns="http://www.w3.org/2000/svg">
<g clip-path="url(#clip0_12_239)">
<mask id="mask0_12_239" style="mask-type:luminance" maskUnits="userSpaceOnUse" x="23" y="18" width="477" height="367">
<path d="M499.354 18.8861H23.0776V384.12H499.354V18.8861Z" fill="white"/>
</mask>
<g mask="url(#mask0_12_239)">
<path d="M176.328 75.7191H175.357V127.695H176.328V75.7191Z" fill="#3F3D56"/>
<path d="M176.328 143.166H175.357V188.899H176.328V143.166Z" fill="#3F3D56"/>
<path d="M249.191 196.185H173.899V197.157H249.191V196.185Z" fill="#3F3D56"/>
<path d="M142.811 209.301H141.84V250.589H142.811V209.301Z" fill="#3F3D56"/>
<path d="M264.735 257.876H150.583V258.847H264.735V257.876Z" fill="#3F3D56"/>
<path d="M359.942 42.6879H358.971V91.7487H359.942V42.6879Z" fill="#3F3D56"/>
<path d="M351.686 99.5208H280.264V100.492H351.686V99.5208Z" fill="#3F3D56"/>
<path d="M272.993 107.293H272.021V172.869H272.993V107.293Z" fill="#3F3D56"/>
<path d="M175.843 143.724C174.209 143.724 172.613 143.24 171.255 142.332C169.897 141.425 168.839 140.135 168.213 138.627C167.589 137.117 167.425 135.457 167.744 133.855C168.062 132.254 168.849 130.782 170.003 129.627C171.158 128.472 172.63 127.686 174.232 127.367C175.833 127.049 177.494 127.212 179.003 127.837C180.512 128.462 181.801 129.521 182.709 130.878C183.616 132.237 184.1 133.833 184.1 135.466C184.098 137.656 183.227 139.755 181.679 141.303C180.131 142.851 178.032 143.722 175.843 143.724ZM175.843 128.18C174.401 128.18 172.993 128.608 171.795 129.408C170.596 130.209 169.662 131.347 169.111 132.678C168.56 134.01 168.415 135.475 168.696 136.888C168.977 138.301 169.672 139.6 170.691 140.619C171.709 141.637 173.008 142.331 174.421 142.613C175.835 142.894 177.3 142.75 178.631 142.198C179.962 141.647 181.1 140.712 181.901 139.515C182.701 138.316 183.129 136.908 183.129 135.466C183.127 133.534 182.358 131.682 180.992 130.316C179.627 128.95 177.774 128.182 175.843 128.18Z" fill="#3F3D56"/>
<path d="M142.811 266.619C141.178 266.619 139.582 266.135 138.224 265.228C136.866 264.32 135.807 263.031 135.182 261.522C134.557 260.013 134.394 258.352 134.712 256.75C135.031 255.149 135.817 253.677 136.972 252.522C138.127 251.368 139.599 250.581 141.201 250.263C142.802 249.944 144.462 250.107 145.972 250.732C147.48 251.357 148.77 252.416 149.677 253.774C150.585 255.132 151.069 256.728 151.069 258.361C151.067 260.551 150.196 262.65 148.648 264.198C147.1 265.746 145.001 266.617 142.811 266.619ZM142.811 251.075C141.37 251.075 139.961 251.503 138.764 252.303C137.565 253.104 136.631 254.242 136.08 255.573C135.528 256.905 135.384 258.37 135.665 259.783C135.946 261.196 136.64 262.495 137.659 263.514C138.678 264.532 139.976 265.227 141.39 265.508C142.804 265.789 144.269 265.645 145.6 265.093C146.931 264.542 148.069 263.608 148.87 262.41C149.67 261.211 150.098 259.803 150.098 258.361C150.096 256.43 149.327 254.577 147.961 253.212C146.595 251.846 144.743 251.077 142.811 251.075Z" fill="#3F3D56"/>
<path d="M176.328 204.443C180.621 204.443 184.1 200.964 184.1 196.671C184.1 192.378 180.621 188.899 176.328 188.899C172.036 188.899 168.556 192.378 168.556 196.671C168.556 200.964 172.036 204.443 176.328 204.443Z" fill="#C53DFF"/>
<path d="M457.578 134.981H376.944V135.952H457.578V134.981Z" fill="#3F3D56"/>
<path d="M369.657 143.166H368.686V188.899H369.657V143.166Z" fill="#3F3D56"/>
<path d="M360.914 196.185H296.309V197.157H360.914V196.185Z" fill="#3F3D56"/>
<path d="M477.008 200.557H409.975V201.529H477.008V200.557Z" fill="#3F3D56"/>
<path d="M403.174 209.301H402.203V250.589H403.174V209.301Z" fill="#3F3D56"/>
<path d="M394.431 257.876H280.279V258.847H394.431V257.876Z" fill="#3F3D56"/>
<path d="M272.993 220.473H272.021V250.59H272.993V220.473Z" fill="#3F3D56"/>
<path d="M369.171 143.238C373.464 143.238 376.943 139.759 376.943 135.466C376.943 131.174 373.464 127.694 369.171 127.694C364.879 127.694 361.399 131.174 361.399 135.466C361.399 139.759 364.879 143.238 369.171 143.238Z" fill="#C53DFF"/>
<path d="M359.457 107.779C357.823 107.779 356.227 107.294 354.869 106.387C353.511 105.48 352.453 104.19 351.827 102.681C351.203 101.172 351.039 99.5116 351.358 97.9096C351.676 96.3081 352.463 94.8367 353.617 93.6816C354.772 92.527 356.244 91.7405 357.846 91.4219C359.447 91.1032 361.108 91.2665 362.617 91.8916C364.126 92.5168 365.415 93.5752 366.323 94.9329C367.23 96.2911 367.714 97.8877 367.714 99.5208C367.712 101.71 366.841 103.809 365.293 105.357C363.745 106.905 361.646 107.776 359.457 107.779ZM359.457 92.2346C358.015 92.2346 356.607 92.662 355.409 93.4625C354.21 94.2631 353.276 95.4012 352.725 96.7326C352.174 98.0641 352.029 99.5291 352.31 100.942C352.591 102.356 353.286 103.654 354.305 104.673C355.323 105.692 356.622 106.386 358.035 106.667C359.449 106.948 360.914 106.804 362.245 106.252C363.576 105.701 364.714 104.767 365.515 103.569C366.315 102.371 366.743 100.962 366.743 99.5208C366.741 97.589 365.972 95.7368 364.607 94.3709C363.241 93.005 361.388 92.2365 359.457 92.2346Z" fill="#3F3D56"/>
<path d="M272.507 107.779C270.874 107.779 269.277 107.294 267.919 106.387C266.562 105.48 265.503 104.19 264.878 102.681C264.253 101.172 264.09 99.5116 264.408 97.9096C264.727 96.3081 265.513 94.8367 266.668 93.6816C267.823 92.527 269.294 91.7405 270.896 91.4219C272.498 91.1032 274.158 91.2665 275.667 91.8916C277.176 92.5168 278.466 93.5752 279.373 94.9329C280.281 96.2911 280.765 97.8877 280.765 99.5208C280.762 101.71 279.892 103.809 278.343 105.357C276.795 106.905 274.696 107.776 272.507 107.779ZM272.507 92.2346C271.066 92.2346 269.657 92.662 268.459 93.4625C267.261 94.2631 266.327 95.4012 265.776 96.7326C265.224 98.0641 265.08 99.5291 265.361 100.942C265.642 102.356 266.336 103.654 267.355 104.673C268.374 105.692 269.672 106.386 271.086 106.667C272.499 106.948 273.964 106.804 275.295 106.252C276.627 105.701 277.765 104.767 278.565 103.569C279.366 102.371 279.793 100.962 279.793 99.5208C279.791 97.589 279.023 95.7368 277.657 94.3709C276.291 93.005 274.439 92.2365 272.507 92.2346Z" fill="#3F3D56"/>
<path d="M402.203 209.786C400.57 209.786 398.973 209.302 397.615 208.395C396.257 207.487 395.199 206.198 394.573 204.689C393.949 203.18 393.785 201.519 394.104 199.917C394.422 198.316 395.209 196.844 396.363 195.689C397.519 194.535 398.99 193.748 400.592 193.43C402.193 193.111 403.854 193.274 405.363 193.899C406.872 194.525 408.161 195.583 409.069 196.941C409.976 198.299 410.46 199.895 410.46 201.529C410.458 203.718 409.587 205.817 408.039 207.365C406.491 208.913 404.392 209.784 402.203 209.786ZM402.203 194.242C400.761 194.242 399.353 194.67 398.155 195.47C396.957 196.271 396.022 197.409 395.471 198.74C394.92 200.072 394.776 201.537 395.056 202.95C395.338 204.363 396.032 205.662 397.051 206.681C398.069 207.7 399.368 208.394 400.781 208.675C402.195 208.956 403.66 208.812 404.991 208.26C406.322 207.709 407.46 206.775 408.261 205.577C409.061 204.378 409.489 202.97 409.489 201.529C409.487 199.597 408.719 197.745 407.353 196.379C405.987 195.013 404.135 194.244 402.203 194.242Z" fill="#3F3D56"/>
<path d="M402.203 266.134C406.495 266.134 409.975 262.654 409.975 258.361C409.975 254.069 406.495 250.589 402.203 250.589C397.911 250.589 394.431 254.069 394.431 258.361C394.431 262.654 397.911 266.134 402.203 266.134Z" fill="#C53DFF"/>
<path d="M272.507 266.619C270.874 266.619 269.277 266.135 267.919 265.228C266.562 264.32 265.503 263.031 264.878 261.522C264.253 260.013 264.09 258.352 264.408 256.75C264.727 255.149 265.513 253.677 266.668 252.522C267.823 251.368 269.294 250.581 270.896 250.263C272.498 249.944 274.158 250.107 275.667 250.732C277.176 251.357 278.466 252.416 279.373 253.774C280.281 255.132 280.765 256.728 280.765 258.361C280.762 260.551 279.892 262.65 278.343 264.198C276.795 265.746 274.696 266.617 272.507 266.619ZM272.507 251.075C271.066 251.075 269.657 251.503 268.459 252.303C267.261 253.104 266.327 254.242 265.776 255.573C265.224 256.905 265.08 258.37 265.361 259.783C265.642 261.196 266.336 262.495 267.355 263.514C268.374 264.532 269.672 265.227 271.086 265.508C272.499 265.789 273.964 265.645 275.295 265.093C276.627 264.542 277.765 263.608 278.565 262.41C279.366 261.211 279.793 259.803 279.793 258.361C279.791 256.43 279.023 254.577 277.657 253.212C276.291 251.846 274.439 251.077 272.507 251.075Z" fill="#3F3D56"/>
<path d="M368.686 204.929C367.053 204.929 365.456 204.445 364.098 203.537C362.74 202.63 361.682 201.34 361.057 199.831C360.432 198.322 360.268 196.662 360.587 195.06C360.906 193.458 361.692 191.987 362.847 190.832C364.002 189.677 365.473 188.891 367.075 188.572C368.677 188.253 370.337 188.417 371.846 189.042C373.355 189.667 374.645 190.725 375.552 192.083C376.459 193.441 376.944 195.038 376.944 196.671C376.941 198.86 376.07 200.959 374.522 202.507C372.974 204.055 370.875 204.926 368.686 204.929ZM368.686 189.385C367.245 189.385 365.836 189.812 364.638 190.613C363.44 191.413 362.506 192.551 361.954 193.883C361.403 195.214 361.259 196.679 361.539 198.092C361.821 199.506 362.515 200.804 363.534 201.823C364.553 202.842 365.851 203.536 367.265 203.817C368.678 204.099 370.143 203.954 371.474 203.403C372.805 202.851 373.944 201.917 374.744 200.719C375.545 199.521 375.972 198.112 375.972 196.671C375.97 194.739 375.202 192.887 373.836 191.521C372.47 190.155 370.618 189.387 368.686 189.385Z" fill="#3F3D56"/>
<path d="M142.811 185.013C140.89 185.013 139.012 185.583 137.414 186.651C135.817 187.718 134.571 189.235 133.836 191.01C133.101 192.786 132.908 194.739 133.283 196.624C133.658 198.508 134.583 200.239 135.942 201.598C137.301 202.956 139.032 203.882 140.916 204.257C142.801 204.631 144.754 204.439 146.529 203.704C148.304 202.968 149.822 201.723 150.889 200.125C151.957 198.528 152.526 196.65 152.526 194.728C152.519 192.154 151.493 189.687 149.673 187.867C147.853 186.047 145.386 185.021 142.811 185.013ZM142.811 187.928C143.388 187.928 143.951 188.099 144.431 188.419C144.91 188.739 145.283 189.194 145.504 189.727C145.725 190.259 145.782 190.846 145.67 191.411C145.557 191.976 145.28 192.496 144.872 192.903C144.465 193.311 143.946 193.588 143.38 193.701C142.815 193.813 142.228 193.755 141.696 193.535C141.164 193.314 140.709 192.941 140.388 192.461C140.068 191.982 139.897 191.419 139.897 190.842C139.899 190.07 140.207 189.33 140.753 188.784C141.299 188.238 142.04 187.93 142.811 187.928ZM142.811 201.959C141.66 201.953 140.527 201.667 139.512 201.125C138.496 200.583 137.628 199.801 136.982 198.848C137.029 196.905 140.868 195.835 142.811 195.835C144.754 195.835 148.594 196.905 148.64 198.848C147.994 199.8 147.126 200.581 146.111 201.124C145.095 201.666 143.963 201.952 142.811 201.959Z" fill="#3F3D56"/>
<path d="M176.328 52.403C174.407 52.403 172.529 52.9727 170.931 54.0402C169.333 55.1077 168.088 56.625 167.353 58.4002C166.618 60.1754 166.425 62.1288 166.8 64.0133C167.175 65.8978 168.1 67.6288 169.459 68.9875C170.817 70.3461 172.549 71.2715 174.433 71.6465C176.318 72.021 178.271 71.8286 180.046 71.0937C181.821 70.3583 183.339 69.1128 184.406 67.5152C185.473 65.9177 186.043 64.0394 186.043 62.118C186.036 59.5437 185.01 57.077 183.189 55.2567C181.369 53.4364 178.903 52.4105 176.328 52.403ZM176.328 55.3175C176.905 55.3175 177.468 55.4884 177.948 55.8087C178.427 56.1289 178.8 56.5841 179.021 57.1166C179.242 57.6492 179.299 58.2352 179.187 58.8005C179.074 59.3659 178.797 59.8852 178.389 60.2928C177.982 60.7005 177.462 60.978 176.897 61.0905C176.332 61.2029 175.745 61.1452 175.213 60.9246C174.681 60.704 174.225 60.3305 173.905 59.8512C173.585 59.3719 173.414 58.8084 173.414 58.232C173.416 57.4598 173.724 56.72 174.27 56.1739C174.816 55.628 175.556 55.32 176.328 55.3175ZM176.328 69.3484C175.177 69.343 174.044 69.0569 173.029 68.5148C172.013 67.9727 171.145 67.1911 170.499 66.2375C170.546 64.2945 174.385 63.225 176.328 63.225C178.271 63.225 182.111 64.2945 182.157 66.2375C181.511 67.1903 180.643 67.9713 179.627 68.5134C178.612 69.0555 177.479 69.3421 176.328 69.3484Z" fill="#3F3D56"/>
<path d="M359.456 18.8861C357.535 18.8861 355.657 19.4559 354.059 20.5234C352.462 21.5909 351.216 23.1082 350.481 24.8833C349.746 26.6586 349.553 28.6119 349.928 30.4964C350.303 32.381 351.228 34.112 352.587 35.4707C353.946 36.8294 355.677 37.7546 357.561 38.1295C359.446 38.5043 361.399 38.3119 363.174 37.5767C364.949 36.8413 366.467 35.5961 367.534 33.9985C368.602 32.4009 369.171 30.5226 369.171 28.6011C369.164 26.0268 368.138 23.5602 366.318 21.7399C364.498 19.9196 362.031 18.8936 359.456 18.8861ZM359.456 21.8006C360.033 21.8006 360.596 21.9716 361.076 22.2918C361.555 22.612 361.928 23.0672 362.149 23.5998C362.37 24.1324 362.427 24.7184 362.315 25.2837C362.202 25.8491 361.925 26.3684 361.517 26.776C361.11 27.1836 360.591 27.4612 360.025 27.5736C359.46 27.6861 358.873 27.6284 358.341 27.4078C357.809 27.1872 357.354 26.8136 357.033 26.3343C356.713 25.855 356.542 25.2916 356.542 24.7151C356.545 23.9429 356.852 23.2031 357.398 22.6571C357.944 22.1111 358.685 21.8032 359.456 21.8006ZM359.456 35.8313C358.305 35.8261 357.172 35.54 356.157 34.998C355.141 34.4559 354.273 33.6742 353.627 32.7207C353.674 30.7777 357.513 29.7081 359.456 29.7081C361.399 29.7081 365.239 30.7777 365.285 32.7207C364.639 33.6735 363.771 34.4546 362.756 34.9966C361.74 35.5386 360.608 35.8251 359.456 35.8313Z" fill="#3F3D56"/>
<path d="M471.179 125.266C469.258 125.266 467.38 125.835 465.782 126.903C464.184 127.97 462.939 129.488 462.204 131.263C461.469 133.038 461.276 134.991 461.651 136.876C462.026 138.76 462.951 140.491 464.31 141.85C465.668 143.209 467.4 144.134 469.284 144.509C471.169 144.884 473.122 144.691 474.897 143.956C476.672 143.221 478.19 141.975 479.257 140.378C480.325 138.78 480.894 136.902 480.894 134.981C480.887 132.406 479.861 129.939 478.041 128.119C476.22 126.299 473.754 125.273 471.179 125.266ZM471.179 128.18C471.756 128.18 472.319 128.351 472.799 128.671C473.278 128.991 473.651 129.447 473.872 129.979C474.093 130.512 474.15 131.098 474.038 131.663C473.925 132.228 473.648 132.748 473.24 133.156C472.833 133.563 472.314 133.841 471.748 133.953C471.183 134.065 470.596 134.008 470.064 133.787C469.532 133.567 469.076 133.193 468.756 132.714C468.436 132.235 468.265 131.671 468.265 131.095C468.268 130.322 468.575 129.582 469.121 129.036C469.667 128.49 470.407 128.183 471.179 128.18ZM471.179 142.211C470.028 142.206 468.895 141.92 467.88 141.377C466.864 140.835 465.996 140.054 465.35 139.1C465.397 137.157 469.236 136.088 471.179 136.088C473.122 136.088 476.962 137.157 477.008 139.1C476.362 140.053 475.494 140.834 474.479 141.376C473.463 141.918 472.331 142.205 471.179 142.211Z" fill="#3F3D56"/>
<path d="M489.638 190.842C487.717 190.842 485.838 191.412 484.241 192.48C482.643 193.547 481.398 195.064 480.663 196.839C479.927 198.615 479.735 200.568 480.11 202.453C480.484 204.337 481.41 206.068 482.768 207.427C484.127 208.785 485.858 209.711 487.742 210.086C489.627 210.46 491.58 210.268 493.356 209.533C495.131 208.797 496.648 207.552 497.716 205.954C498.783 204.357 499.353 202.479 499.353 200.557C499.346 197.983 498.32 195.516 496.499 193.696C494.679 191.876 492.212 190.85 489.638 190.842ZM489.638 193.757C490.214 193.757 490.778 193.928 491.257 194.248C491.736 194.568 492.11 195.023 492.33 195.556C492.551 196.088 492.609 196.675 492.497 197.24C492.384 197.805 492.106 198.325 491.699 198.732C491.291 199.14 490.772 199.417 490.207 199.53C489.641 199.642 489.055 199.584 488.523 199.364C487.99 199.143 487.535 198.77 487.214 198.29C486.894 197.811 486.723 197.248 486.723 196.671C486.726 195.899 487.034 195.159 487.58 194.613C488.126 194.067 488.866 193.759 489.638 193.757ZM489.638 207.788C488.487 207.782 487.354 207.496 486.338 206.954C485.322 206.412 484.454 205.63 483.809 204.677C483.855 202.734 487.695 201.664 489.638 201.664C491.581 201.664 495.42 202.734 495.467 204.677C494.821 205.629 493.953 206.41 492.937 206.953C491.921 207.495 490.789 207.781 489.638 207.788Z" fill="#3F3D56"/>
</g>
<circle cx="273" cy="196" r="13.3" fill="#1E1B24" stroke="#C53DFF" stroke-width="1.4"/>
<circle cx="273" cy="196" r="6.3" fill="#C53DFF"/>
</g>
<defs>
<clipPath id="clip0_12_239">
<rect width="375" height="251.619" fill="white" transform="translate(128 15)"/>
</clipPath>
</defs>
</svg>
