<svg width="50" height="50" viewBox="0 0 50 50" fill="none" xmlns="http://www.w3.org/2000/svg">
<rect width="50" height="50" rx="8" fill="#29292A"/>
<path d="M35.7908 21.1869C35.7908 21.1869 35.5857 19.7391 34.9541 19.1033C34.1543 18.2666 33.2602 18.2625 32.85 18.2133C29.9133 18 25.5041 18 25.5041 18H25.4959C25.4959 18 21.0867 18 18.15 18.2133C17.7398 18.2625 16.8457 18.2666 16.0459 19.1033C15.4143 19.7391 15.2133 21.1869 15.2133 21.1869C15.2133 21.1869 15 22.8891 15 24.5871V26.1785C15 27.8766 15.2092 29.5787 15.2092 29.5787C15.2092 29.5787 15.4143 31.0266 16.0418 31.6623C16.8416 32.499 17.8916 32.4703 18.3592 32.5606C20.0408 32.7205 25.5 32.7697 25.5 32.7697C25.5 32.7697 29.9133 32.7615 32.85 32.5524C33.2602 32.5031 34.1543 32.499 34.9541 31.6623C35.5857 31.0266 35.7908 29.5787 35.7908 29.5787C35.7908 29.5787 36 27.8807 36 26.1785V24.5871C36 22.8891 35.7908 21.1869 35.7908 21.1869ZM23.3303 28.1104V22.2082L29.0027 25.1695L23.3303 28.1104Z" fill="white"/>
</svg>
