<svg width="133" height="40" viewBox="0 0 133 40" fill="none" xmlns="http://www.w3.org/2000/svg">
<g clip-path="url(#clip0_2602_100770)">
<mask id="mask0_2602_100770" style="mask-type:luminance" maskUnits="userSpaceOnUse" x="0" y="0" width="133" height="40">
<path d="M133 0H0V40H133V0Z" fill="white"/>
</mask>
<g mask="url(#mask0_2602_100770)">
<path d="M53.7109 19.9351C53.7109 16.846 54.4226 14.075 55.846 11.622C57.2996 9.16894 59.253 7.26102 61.706 5.89822C64.1894 4.50513 66.8998 3.80859 69.8374 3.80859C73.199 3.80859 76.182 4.64141 78.7865 6.30706C81.3598 7.90428 83.2397 10.1659 84.4264 13.092C84.4674 13.193 84.3926 13.3028 84.2836 13.3028H78.3833C78.3242 13.3028 78.2703 13.269 78.2438 13.2162C77.4295 11.594 76.3081 10.3812 74.8798 9.57778C73.4261 8.7601 71.7453 8.35126 69.8374 8.35126C67.7478 8.35126 65.8853 8.82067 64.2499 9.75949C62.6146 10.6983 61.3275 12.046 60.3887 13.8025C59.4801 15.5589 59.0259 17.6031 59.0259 19.9351C59.0259 22.267 59.4801 24.3112 60.3887 26.0677C61.3275 27.8242 62.6146 29.187 64.2499 30.1561C65.8853 31.0949 67.7478 31.5643 69.8374 31.5643C71.7453 31.5643 73.4261 31.1554 74.8798 30.3378C76.3081 29.5343 77.4295 28.3215 78.2438 26.6994C78.2703 26.6466 78.3242 26.6128 78.3833 26.6128H84.2836C84.3926 26.6128 84.4674 26.7225 84.4264 26.8235C83.2397 29.7496 81.3598 32.0113 78.7865 33.6085C76.182 35.2438 73.199 36.0615 69.8374 36.0615C66.8695 36.0615 64.1591 35.3801 61.706 34.0173C59.253 32.6242 57.2996 30.7012 55.846 28.2481C54.4226 25.7951 53.7109 23.0241 53.7109 19.9351Z" fill="white"/>
<path d="M95.749 31.4562C95.749 31.5418 95.8183 31.6111 95.9038 31.6111H106.269C106.354 31.6111 106.424 31.6804 106.424 31.766V35.6355C106.424 35.721 106.354 35.7904 106.269 35.7904H90.7252C90.6397 35.7904 90.5703 35.721 90.5703 35.6355V4.37361C90.5703 4.28809 90.6397 4.21875 90.7252 4.21875H95.5941C95.6797 4.21875 95.749 4.28809 95.749 4.37361V31.4562Z" fill="white"/>
<path d="M121.158 36.107C119.038 36.107 117.13 35.7435 115.434 35.0167C113.739 34.2596 112.406 33.1996 111.437 31.8368C110.495 30.5129 110.011 28.9746 109.984 27.2219C109.983 27.1364 110.053 27.067 110.138 27.067H115.384C115.464 27.067 115.531 27.1284 115.539 27.2081C115.684 28.5074 116.209 29.5809 117.115 30.4286C118.084 31.3069 119.432 31.746 121.158 31.746C122.945 31.746 124.338 31.322 125.338 30.474C126.337 29.5958 126.837 28.4753 126.837 27.1125C126.837 26.0525 126.519 25.1894 125.883 24.5231C125.277 23.8569 124.505 23.3421 123.566 22.9786C122.657 22.6152 121.385 22.2215 119.75 21.7975C117.691 21.2524 116.01 20.7073 114.708 20.1622C113.436 19.5868 112.345 18.7085 111.437 17.5274C110.528 16.3463 110.074 14.7716 110.074 12.8031C110.074 10.986 110.528 9.39607 111.437 8.03327C112.345 6.67047 113.617 5.62566 115.253 4.89883C116.888 4.17201 118.781 3.80859 120.931 3.80859C123.99 3.80859 126.488 4.58085 128.427 6.12535C130.354 7.60773 131.439 9.64157 131.683 12.2269C131.691 12.3168 131.62 12.3942 131.53 12.3942H126.117C126.036 12.3942 125.969 12.332 125.96 12.2517C125.837 11.1619 125.296 10.2252 124.338 9.4415C123.339 8.62382 122.021 8.21498 120.386 8.21498C118.902 8.21498 117.691 8.59354 116.752 9.35065C115.813 10.1077 115.344 11.198 115.344 12.6214C115.344 13.5905 115.631 14.393 116.207 15.029C116.812 15.6347 117.57 16.1192 118.478 16.4826C119.387 16.846 120.628 17.2397 122.203 17.6637C124.293 18.2391 125.989 18.8145 127.291 19.3899C128.623 19.9653 129.744 20.8587 130.652 22.0701C131.591 23.2512 132.061 24.8411 132.061 26.8399C132.061 28.445 131.622 29.9592 130.743 31.3826C129.895 32.8059 128.639 33.9568 126.973 34.835C125.338 35.683 123.399 36.107 121.158 36.107Z" fill="white"/>
<path fill-rule="evenodd" clip-rule="evenodd" d="M3 0C1.34315 0 0 1.34315 0 3V30.8701C5.41015 27.495 9.00581 26.137 15.3266 26.2225C20.5904 26.2926 23.6918 21.3442 25.7986 17.9826C26.1452 17.4295 26.4649 16.9194 26.7629 16.4817C28.8464 13.4211 32.8658 10.8974 36.1134 8.85824L36.2338 8.78268C37.2769 8.12763 38.2996 7.4854 40 6.31556V3C40 1.34315 38.6569 0 37 0H3ZM40 9.21881C40 9.21881 35.3383 11.8795 31.8062 15.7088C30.0061 17.6603 29.1793 19.9663 28.3703 22.2229C27.5917 24.3945 26.8295 26.5203 25.2322 28.2405C21.5015 32.2634 17.1097 31.6739 12.4259 31.0453C11.6733 30.9443 10.9132 30.8423 10.147 30.7583C7.17048 30.4625 4.45507 31.6896 1.79254 32.8927C1.19314 33.1636 0.596418 33.4332 0 33.684V37C0 38.6569 1.34315 40 3 40H37C38.6569 40 40 38.6569 40 37V9.21881Z" fill="white"/>
</g>
</g>
<defs>
<clipPath id="clip0_2602_100770">
<rect width="133" height="40" fill="white"/>
</clipPath>
</defs>
</svg>
