<svg width="161" height="34" viewBox="0 0 161 34" fill="none" xmlns="http://www.w3.org/2000/svg">
<g clip-path="url(#clip0_2602_100892)">
<path d="M16.3911 1.83167C17.1716 1.42913 18.7638 0.871759 19.9814 0.56211C21.1678 0.252461 22.4167 0.00474208 22.7289 0.00474208C23.0098 -0.0262228 23.5406 0.0976367 23.884 0.283426C24.2274 0.438251 24.5084 0.840794 24.5084 1.11948C24.5396 1.42913 24.3523 1.83167 24.1338 2.01746C23.9152 2.20325 23.1035 2.5129 22.323 2.72965C21.5425 2.94641 20.3561 3.41088 19.6692 3.75149C18.9824 4.09211 17.8272 4.86623 17.1092 5.4236C16.0477 6.25965 15.4232 7.21956 12.3324 13.5983L9.14791 15.9826C7.36834 17.2832 5.61999 18.7075 5.24534 19.141C4.8707 19.5746 4.30873 20.5035 4.02774 21.1847C3.71554 21.9898 3.55944 23.0736 3.6531 24.3122C3.71554 25.7366 3.9653 26.5417 4.68337 27.6874C5.21412 28.5234 6.0883 29.4214 6.71271 29.762C7.3059 30.0716 8.30496 30.4123 8.89815 30.5052C9.52256 30.629 10.6465 30.5361 11.5207 30.2884C12.3949 30.0407 13.6437 29.3595 14.3305 28.7402C15.0486 28.1518 15.9228 27.0371 16.2974 26.263C16.7033 25.5198 17.1716 24.0025 17.3589 22.8878C17.5775 21.7731 18.0146 20.2558 18.3892 19.4817C18.7638 18.6766 20.1376 17.0664 21.6361 15.611C23.2596 14.0628 24.5396 12.4836 25.1016 11.4308C25.726 10.1922 26.0382 9.04649 26.1631 7.34342C26.3504 5.36167 26.5065 4.86623 27.0061 4.61851C27.5056 4.37079 27.7241 4.43272 28.0988 5.02105C28.3486 5.39263 28.6608 6.41447 28.7544 7.25053C28.8793 8.11754 28.7856 9.63482 28.5671 10.6567C28.3486 11.6785 27.8178 13.2268 27.3807 14.0628C26.9436 14.9298 25.6011 16.571 24.3523 17.7786C23.1347 18.9862 21.9796 20.1629 21.761 20.4106C21.5737 20.6583 21.199 21.9898 20.9181 23.3523C20.6683 24.7147 20.0751 26.5726 19.6692 27.4706C19.2322 28.3376 18.2643 29.731 17.515 30.5671C16.6408 31.496 15.4545 32.3321 14.1744 32.9204C13.0817 33.4159 11.4895 33.8803 10.6153 33.9732C9.64744 34.0661 8.39862 33.9113 7.33712 33.6016C6.4005 33.3539 4.93314 32.5798 4.05896 31.9295C2.93502 31.0935 2.18573 30.1645 1.40522 28.6473C0.374941 26.6655 0.3125 26.3249 0.3125 23.6929C0.343721 21.4944 0.499823 20.5345 1.03057 19.3268C1.40522 18.4598 2.31061 17.1903 3.02869 16.4781C3.77798 15.7968 5.37023 14.4653 6.61905 13.5364C7.83665 12.6384 9.21035 11.3998 9.67866 10.8115C10.1158 10.2232 10.8026 8.82974 11.2397 7.715C11.7392 6.38351 12.4885 5.17588 13.4876 4.12307C14.2993 3.25606 15.6106 2.23421 16.3911 1.83167Z" fill="white"/>
<path fill-rule="evenodd" clip-rule="evenodd" d="M147.046 0.59375C147.483 0.59375 148.045 0.810504 148.295 1.05823C148.638 1.39884 148.763 2.29682 148.763 8.02533H150.73C152.135 8.02533 152.822 8.18015 153.228 8.58269C153.54 8.86138 153.79 9.35682 153.758 9.66647C153.758 9.94515 153.477 10.4716 153.134 10.8122C152.634 11.3076 152.104 11.4315 148.763 11.4315V14.3112C148.763 15.8595 148.888 17.6554 149.044 18.2438C149.231 18.8321 149.825 19.792 150.387 20.3494C150.949 20.9067 151.948 21.4951 152.603 21.6499C153.353 21.8666 154.196 21.8357 155.007 21.6499C155.694 21.4951 156.693 20.9996 157.193 20.5661C157.723 20.1326 158.535 19.792 159.066 19.792C159.69 19.792 160.107 19.9984 160.315 20.4113C160.471 20.7519 160.627 21.2473 160.627 21.4951C160.627 21.7428 160.159 22.393 159.628 22.9194C159.066 23.4459 158.098 24.1271 157.505 24.4367C156.912 24.7464 155.725 25.087 154.851 25.2109C153.758 25.3657 152.728 25.2728 151.479 24.9322C150.168 24.5606 149.294 24.0342 148.108 22.9504C147.046 21.9595 146.359 20.9687 145.922 19.8849C145.391 18.4295 145.329 17.3458 145.298 10.1C145.266 3.00901 145.329 1.89428 145.797 1.27498C146.078 0.903399 146.64 0.59375 147.046 0.59375ZM125.754 7.37506C126.097 7.46796 126.472 7.71568 126.597 7.8705C126.753 8.05629 126.909 10.4096 126.971 13.1345C127.065 17.4696 127.159 18.2128 127.72 19.1727C128.064 19.761 128.844 20.5971 129.438 20.9687C130.312 21.588 130.811 21.6809 132.216 21.588C133.278 21.526 134.277 21.2473 134.87 20.8448C135.37 20.4732 136.056 19.6372 136.4 18.9869C136.868 17.9651 136.962 17.129 136.931 13.599C136.899 11.3076 137.024 9.04717 137.212 8.58269C137.368 8.08726 137.805 7.65375 138.148 7.56085C138.492 7.46796 139.054 7.46796 139.397 7.56085C139.803 7.65375 140.146 8.14919 140.365 8.89234C140.583 9.57357 140.646 11.7411 140.583 14.3731C140.49 17.8722 140.334 18.9869 139.834 20.1016C139.491 20.8758 138.71 21.9905 138.086 22.5788C137.461 23.1672 136.369 23.9723 135.619 24.3748C134.62 24.8702 133.684 25.056 132.216 25.087C130.843 25.118 129.719 24.9322 128.782 24.5296C128.001 24.189 126.815 23.3839 126.159 22.7027C125.473 22.0524 124.63 20.8758 124.286 20.1016C123.755 18.925 123.631 17.9341 123.537 13.9087C123.475 11.2766 123.537 8.83041 123.662 8.45883C123.755 8.11822 124.161 7.68471 124.505 7.49892C124.848 7.3441 125.41 7.28217 125.754 7.37506ZM110.206 7.71568C111.517 7.71568 112.547 7.93243 113.64 8.45883C114.514 8.83041 115.763 9.79032 116.419 10.5335C117.106 11.2766 117.886 12.3914 118.136 12.9797C118.51 13.8158 118.604 15.3021 118.635 19.2656C118.635 24.1271 118.604 24.5296 118.011 24.9322C117.667 25.1799 117.043 25.3657 116.606 25.3037C116.169 25.2418 115.669 24.9012 115.451 24.4367C115.17 23.9103 115.045 22.3002 115.076 19.3275C115.107 15.5808 115.045 14.8376 114.483 13.7538C114.077 12.9488 113.39 12.2675 112.516 11.7721C111.455 11.2147 110.83 11.0599 109.737 11.1838C108.957 11.2457 107.864 11.6173 107.333 11.9888C106.772 12.3604 106.053 13.1345 105.772 13.6919C105.335 14.497 105.21 15.6737 105.148 19.7301C105.054 24.5296 105.023 24.7773 104.368 25.2109C103.806 25.5824 103.462 25.6134 102.807 25.3657C102.307 25.2109 101.839 24.7464 101.745 24.3748C101.651 23.9723 101.62 21.4951 101.683 18.863C101.776 14.7757 101.87 13.8467 102.432 12.6701C102.807 11.8959 103.587 10.8122 104.149 10.2238C104.742 9.6355 105.929 8.83041 106.772 8.45883C107.864 7.93243 108.895 7.71568 110.206 7.71568ZM88.6634 8.36594C89.1629 8.33498 90.3181 8.52076 91.161 8.76848C92.0664 9.04717 93.3153 9.72839 94.127 10.4406C94.9075 11.1218 95.8753 12.3295 96.3124 13.1655C97.0305 14.5589 97.0929 15.0853 97.1866 19.3275C97.249 23.1052 97.1866 24.0961 96.7807 24.6844C96.4998 25.087 96.0002 25.3657 95.5319 25.3657C95.0636 25.3657 94.5329 25.056 93.6587 23.8484L92.4099 24.4058C91.723 24.7464 90.5366 25.087 89.7561 25.2109C88.8195 25.3657 87.758 25.2728 86.5716 24.9322C85.2916 24.5916 84.3237 24.0342 83.3247 23.1362C82.513 22.393 81.5763 21.2473 81.2329 20.5661C80.7022 19.6062 80.5461 18.7702 80.5461 16.8503C80.5461 15.0234 80.7022 14.0945 81.1392 13.2894C81.4515 12.701 82.232 11.6792 82.8564 11.0289C83.4808 10.3787 84.4174 9.60454 84.9169 9.35682C85.4165 9.07813 86.2906 8.73752 86.7902 8.61366C87.2897 8.4898 88.1639 8.3969 88.6634 8.36594ZM84.8545 13.5681C84.4798 14.0945 84.0428 15.0544 83.9491 15.7046C83.8242 16.3239 83.8242 17.3458 83.9491 17.9341C84.0428 18.5224 84.3862 19.3585 84.7296 19.792C85.0418 20.2255 85.6974 20.8448 86.1345 21.1854C86.7589 21.6189 87.477 21.8047 88.7571 21.8047C90.0995 21.8047 90.7864 21.6189 91.5669 21.1235C92.0977 20.7209 92.8782 19.823 93.2216 19.1108C93.6899 18.1509 93.846 17.3767 93.7836 16.3549C93.6899 15.4879 93.3777 14.5589 92.8469 13.8777C92.4099 13.2894 91.5357 12.5772 90.9113 12.2985C90.2869 11.9888 89.2878 11.7411 88.7571 11.7411C88.1951 11.7721 87.2585 11.9579 86.6653 12.1746C86.0721 12.3914 85.2604 13.0107 84.8545 13.5681ZM46.5157 8.64462C48.0143 8.64462 49.0758 8.83041 49.9499 9.26392C50.6368 9.57357 51.7295 10.3787 52.3851 11.0289C53.0408 11.6792 53.8525 12.763 54.1959 13.4442C54.6018 14.2493 54.8203 15.364 54.8516 16.6955C54.8516 18.1509 54.6642 19.1417 54.1959 20.2565C53.8213 21.1235 53.072 22.2692 52.51 22.8266C51.948 23.4149 50.949 24.158 50.2621 24.5296C49.2943 25.056 48.4513 25.2109 46.5157 25.2109C44.4863 25.2109 43.7995 25.087 42.8317 24.5296C42.2072 24.1271 41.614 23.9103 41.5204 24.0652C41.4267 24.189 41.3331 26.0779 41.3331 28.3073C41.3331 31.7135 41.2706 32.4257 40.8023 32.8901C40.5213 33.1998 40.0218 33.4475 39.7408 33.4165C39.4286 33.4165 38.9603 33.1998 38.7105 32.9521C38.3047 32.5495 38.2422 31.0942 38.2422 23.7555C38.2422 15.1782 38.2735 14.9615 38.9915 13.4442C39.3974 12.6081 40.2091 11.4624 40.7711 10.936C41.3643 10.3787 42.3946 9.66647 43.0814 9.29489C44.018 8.79945 44.8922 8.64462 46.5157 8.64462ZM43.1126 13.2274C42.8004 13.5061 42.3321 14.1873 42.0824 14.6828C41.8014 15.1782 41.5828 16.231 41.5828 17.0052C41.5828 17.8102 41.8326 18.8321 42.176 19.4514C42.4882 20.0397 43.1126 20.7829 43.5497 21.0925C43.9868 21.4331 44.9546 21.7737 45.7352 21.8666C46.5157 21.9595 47.6396 21.8976 48.2328 21.7118C48.826 21.526 49.7002 20.9377 50.1685 20.4423C50.668 19.9159 51.1988 18.894 51.3861 18.1509C51.6358 17.2529 51.6358 16.5407 51.4173 15.7666C51.23 15.1782 50.7929 14.3112 50.4495 13.8158C50.0748 13.3513 49.4192 12.7939 48.9197 12.5462C48.4513 12.3295 47.6708 12.0508 47.1401 11.9579C46.6093 11.834 45.6415 11.9579 44.9546 12.2056C44.2678 12.4843 43.4561 12.9178 43.1126 13.2274ZM67.5895 8.67559C68.7135 8.64462 70.1808 8.83041 70.8677 9.0162C71.6482 9.26392 72.7409 10.0071 73.8336 11.1218C74.9576 12.2056 75.7069 13.2894 75.9566 14.0635C76.144 14.7447 76.3313 15.8285 76.3313 16.4478C76.3313 17.129 76.1127 17.8102 75.8318 18.0889C75.4259 18.4605 74.2395 18.5534 69.2754 18.5534C64.6548 18.5534 63.2187 18.6463 63.2187 18.925C63.1874 19.1417 63.4684 19.6991 63.8431 20.1636C64.1865 20.659 64.9358 21.2473 65.4665 21.526C66.0285 21.8047 67.1212 22.0524 67.9017 22.0524C68.6823 22.0524 69.9935 21.7428 70.8677 21.3402C72.1165 20.8138 72.5848 20.7209 73.1156 20.9996C73.5214 21.1854 73.8961 21.6189 73.9897 21.9595C74.0834 22.3002 74.021 22.8575 73.8336 23.1981C73.6463 23.5387 72.7721 24.158 71.8667 24.5916C70.6491 25.1799 69.7438 25.3657 68.2139 25.3657C67.09 25.3657 65.6226 25.1799 64.9358 24.9631C64.2802 24.7773 62.9689 23.8794 62.0323 23.0433C60.9708 22.0524 60.1903 20.9687 59.8468 20.1016C59.5659 19.3275 59.3161 17.8722 59.3161 16.8503C59.3473 15.5188 59.5659 14.528 60.159 13.2894C60.5961 12.3604 61.5015 11.1528 62.1572 10.5954C62.844 10.069 63.8743 9.41875 64.4675 9.14006C65.0919 8.89234 66.4656 8.67559 67.5895 8.67559ZM63.8431 13.8158L62.7504 14.9924C70.1496 15.1163 72.3663 15.0853 72.5224 14.9924C72.6473 14.8995 72.4599 14.4351 72.0853 13.9706C71.7106 13.5061 71.0238 12.8868 70.5243 12.6081C70.0247 12.3295 69.1193 12.0198 68.5262 11.9269C67.9017 11.834 66.9027 11.9269 66.1846 12.2056C65.4978 12.4533 64.4363 13.1655 63.8431 13.8158Z" fill="white"/>
</g>
<defs>
<clipPath id="clip0_2602_100892">
<rect width="161" height="34" fill="white"/>
</clipPath>
</defs>
</svg>
