<svg width="160" height="48" viewBox="0 0 160 48" fill="none" xmlns="http://www.w3.org/2000/svg">
<g clip-path="url(#clip0_2602_100895)">
<path d="M11.8359 24.1544C11.8359 17.1481 17.7139 11.4579 24.9514 11.4579C30.6694 11.4579 35.5477 15.0191 37.3471 19.9739H49.5428C49.2229 18.1933 48.7031 16.4513 47.9434 14.7481C46.7038 11.8837 44.9044 9.29017 42.5852 7.08375C40.306 4.87734 37.627 3.13543 34.668 1.89674C31.5891 0.619344 28.3102 0 24.9514 0C21.5925 0 18.3137 0.658053 15.2347 1.89674C12.2757 3.09672 9.59667 4.83863 7.31746 7.08375C5.03825 9.29017 3.23888 11.8837 1.95932 14.7481C0.639777 17.7287 0 20.9029 0 24.1544C0 27.406 0.679764 30.5801 1.95932 33.5607C3.19889 36.4252 4.99827 39.0187 7.31746 41.2251C9.59667 43.4315 12.2757 45.1735 15.2347 46.4121C16.9941 47.1089 18.7935 47.6508 20.6329 47.9605V36.1542C15.5146 34.451 11.8359 29.7285 11.8359 24.1544Z" fill="white"/>
<path d="M49.5846 24.1562L43.4667 30.0787V42.0785H31.071L24.9531 48.001V24.1562H49.5846Z" fill="white"/>
<path d="M70.6913 33.4067C67.8523 33.4067 65.5331 32.5551 63.7338 30.8132C61.9344 29.0713 61.0547 26.9036 61.0547 24.2326C61.0547 21.6778 61.9744 19.5101 63.8137 17.7295C65.6531 15.9489 67.9323 15.0586 70.6913 15.0586C72.2908 15.0586 73.6103 15.2521 74.7299 15.6392C75.8096 16.0263 76.8892 16.6457 77.8889 17.4586L75.3697 20.4391C74.61 19.8198 73.8503 19.3553 73.1305 19.0843C72.4108 18.8134 71.571 18.6585 70.5714 18.6585C69.0919 18.6585 67.8523 19.2005 66.8527 20.2843C65.813 21.3682 65.3332 22.6843 65.3332 24.2326C65.3332 25.8584 65.853 27.2132 66.8927 28.2584C67.9323 29.3035 69.2518 29.8454 70.8913 29.8454C72.4107 29.8454 73.6503 29.4971 74.69 28.8003V26.2842H70.6514V22.9165H78.6086V30.6196C76.2494 32.439 73.6103 33.4067 70.6913 33.4067Z" fill="white"/>
<path d="M88.6074 33.4068C86.4882 33.4068 84.7288 32.7487 83.3293 31.4325C81.9697 30.1163 81.25 28.413 81.25 26.3225C81.25 24.3482 81.8898 22.6836 83.2093 21.29C84.5289 19.9351 86.1683 19.2383 88.1676 19.2383C90.3668 19.2383 92.0862 19.9351 93.2458 21.3674C94.4054 22.7998 95.0052 24.5418 95.0052 26.6322C95.0052 26.8258 95.0052 27.1742 94.9652 27.6387H85.2086C85.4086 28.4904 85.8084 29.1485 86.3682 29.613C86.968 30.0776 87.7278 30.3098 88.6074 30.3098C89.847 30.3098 90.9666 29.8453 92.0063 28.9162L94.2855 30.8518C92.9259 32.5551 91.0466 33.4068 88.6074 33.4068ZM85.2086 25.2386H91.2065C91.0866 24.3482 90.7667 23.6514 90.2469 23.1482C89.7271 22.6062 89.0473 22.3739 88.2476 22.3739C87.4478 22.3739 86.7681 22.6449 86.2483 23.1482C85.6884 23.6514 85.3686 24.3482 85.2086 25.2386Z" fill="white"/>
<path d="M120.99 33.4068C118.871 33.4068 117.112 32.7487 115.712 31.4325C114.353 30.1163 113.633 28.413 113.633 26.3225C113.633 24.3482 114.273 22.6836 115.592 21.29C116.912 19.9351 118.551 19.2383 120.55 19.2383C122.75 19.2383 124.469 19.9351 125.629 21.3674C126.788 22.7998 127.388 24.5418 127.388 26.6322C127.388 26.8258 127.388 27.1742 127.348 27.6387H117.591C117.791 28.4904 118.191 29.1485 118.751 29.613C119.351 30.0776 120.111 30.3098 120.99 30.3098C122.23 30.3098 123.349 29.8453 124.389 28.9162L126.668 30.8518C125.309 32.5551 123.389 33.4068 120.99 33.4068ZM117.551 25.2386H123.549C123.429 24.3482 123.11 23.6514 122.59 23.1482C122.07 22.6062 121.39 22.3739 120.59 22.3739C119.791 22.3739 119.111 22.6449 118.591 23.1482C118.031 23.6514 117.711 24.3482 117.551 25.2386Z" fill="white"/>
<path d="M138.946 23.34C138.946 23.34 136.827 23.2239 135.587 24.5017C134.827 25.2761 134.467 26.5926 134.467 28.1801V33.0976H130.469V27.0185C130.469 21.2491 134.387 19.1969 138.906 19.5067V23.34H138.946Z" fill="white"/>
<path d="M141.391 18.0001V14.5938H145.589V18.0001H141.391ZM141.511 33.0966V19.5097H145.509V33.0966H141.511Z" fill="white"/>
<path d="M154.14 33.3294C151.941 33.3294 149.902 32.6326 148.102 31.2776L149.822 28.7614C151.341 29.8453 152.821 30.3873 154.26 30.3873C155.38 30.3873 155.94 30.0389 155.94 29.3421C155.94 29.2646 155.94 29.1872 155.9 29.0711C155.86 28.9936 155.82 28.9162 155.74 28.8388C155.66 28.7614 155.58 28.7227 155.5 28.6452C155.42 28.5678 155.3 28.5291 155.18 28.4517C155.06 28.3743 154.94 28.3355 154.82 28.2968C154.74 28.2581 154.58 28.2194 154.42 28.142C154.26 28.0646 154.1 28.0259 153.98 27.9871C153.86 27.9484 153.701 27.9097 153.501 27.8323C153.301 27.7549 153.141 27.7162 153.021 27.6774C152.421 27.5226 151.941 27.329 151.501 27.1742C151.101 26.9806 150.662 26.7484 150.222 26.4387C149.782 26.129 149.422 25.7419 149.182 25.2386C148.942 24.7741 148.822 24.1934 148.822 23.5353C148.822 22.2191 149.302 21.1352 150.302 20.3996C151.261 19.6254 152.501 19.2383 153.98 19.2383C155.86 19.2383 157.619 19.7802 159.219 20.8255L157.699 23.4966C156.22 22.6449 154.94 22.2191 153.9 22.2191C152.941 22.2191 152.421 22.5675 152.421 23.2256C152.421 23.6901 153.221 24.1547 154.82 24.6966C155.02 24.7741 155.18 24.8128 155.26 24.8515C155.74 25.0063 156.14 25.1612 156.46 25.2773C156.779 25.3935 157.179 25.587 157.579 25.8193C157.979 26.0516 158.339 26.3225 158.579 26.5548C158.819 26.8258 159.059 27.1355 159.219 27.5613C159.379 27.9484 159.499 28.413 159.499 28.9162C159.499 30.3873 159.019 31.4712 158.019 32.2067C157.019 32.981 155.74 33.3294 154.14 33.3294Z" fill="white"/>
<path d="M110.323 27.0163V33.0955H106.324V28.1779C106.324 26.5904 105.964 25.2739 105.204 24.4995C104.165 23.454 102.525 23.4928 102.006 23.4928V33.0955H98.0469V19.5045H102.006C106.884 19.4658 110.323 21.3244 110.323 27.0163Z" fill="white"/>
</g>
<defs>
<clipPath id="clip0_2602_100895">
<rect width="160" height="48" fill="white"/>
</clipPath>
</defs>
</svg>
