<svg width="112" height="54" viewBox="0 0 112 54" fill="none" xmlns="http://www.w3.org/2000/svg">
<path d="M101.314 0H10.6856C4.78284 0 0 4.81095 0 10.7484V43.2516C0 49.189 4.78284 54 10.6856 54H101.314C107.217 54 112 49.189 112 43.2516V10.7484C112 4.81095 107.217 0 101.314 0ZM109.364 42.2308C109.364 47.4407 105.164 51.6649 99.9846 51.6649H11.7354C6.55599 51.6649 2.35642 47.4407 2.35642 42.2308V11.7575C2.35642 6.54759 6.55599 2.32334 11.7354 2.32334H99.9963C105.176 2.32334 109.375 6.54759 109.375 11.7575V42.2308H109.364Z" fill="white"/>
<path d="M22.0015 11.1943C27.6126 11.1943 30.5756 12.2034 33.1886 14.8671C35.755 17.4955 37.4582 22.0014 37.4582 27.2582C37.4582 32.515 35.8017 36.6689 33.1886 39.3442C30.1906 42.3599 26.8776 42.8058 21.5699 42.8058H11.8175V11.1943H22.0015ZM20.7416 39.2152C23.9613 39.2152 26.271 38.8279 27.7525 38.03C30.7156 36.4107 32.8037 32.9023 32.8037 27.4342C32.8037 24.8527 32.4071 22.5294 31.5438 20.4759C29.8407 16.4042 27.0176 14.8319 21.8382 14.8319H16.1804V39.2152H20.7533H20.7416Z" fill="white"/>
<path d="M55.2947 25.1224L62.9939 32.7848C65.0353 29.464 65.3036 26.2606 65.3036 22.318H69.5265C69.5265 28.185 68.6983 31.4705 65.7002 35.4953L73.1895 42.8056H67.1001L63.0055 38.9099C60.0892 41.7965 56.4729 43.5449 52.1217 43.5449C45.8106 43.5449 41.5411 39.8721 41.5411 34.4393C41.5411 31.1537 42.8476 28.185 48.1554 24.3715C45.5423 21.919 44.5391 19.6896 44.5391 17.1081C44.5391 12.8604 47.5838 10.1498 53.2415 10.1498C61.419 10.1498 61.384 16.0168 61.384 16.451C61.384 19.4314 59.7742 22.1889 55.2947 25.1224ZM50.9434 27.1407C47.6771 29.5462 46.1139 31.6466 46.1139 34.3219C46.1139 37.9125 48.9837 39.8838 52.8216 39.8838C55.563 39.8838 57.9544 38.6987 60.1825 36.2932L50.9551 27.1407H50.9434ZM56.7295 16.6387C56.7295 15.0664 55.423 13.6583 53.0782 13.6583C50.8618 13.6583 49.2053 15.1955 49.2053 16.8969C49.2053 18.434 50.1152 19.9595 52.5183 22.2828C55.4346 20.3584 56.7412 18.434 56.7412 16.6387H56.7295Z" fill="white"/>
<path d="M91.5506 11.1943L104.254 42.8058H99.5065L96.1118 34.5802H81.53L78.1354 42.8058H73.6558L86.8844 11.1943H91.5506ZM82.9299 31.0248H94.817L89.0309 15.5242L82.9415 31.0248H82.9299Z" fill="white"/>
</svg>
