<svg width="80" height="81" viewBox="0 0 80 81" fill="none" xmlns="http://www.w3.org/2000/svg">
<g clip-path="url(#clip0_2602_100906)">
<path d="M35.6032 0.222249C33.2432 0.505749 30.0832 1.19425 27.8032 1.9435C24.8832 2.9155 24.9432 2.85475 26.1032 3.86725C27.5832 5.143 29.7832 7.4515 31.0632 9.05125L32.2032 10.4688L33.2432 10.1042C34.5232 9.65875 35.1832 9.6385 36.5832 10.003L37.6632 10.2865L39.8832 8.60575C42.5832 6.58075 45.7832 4.43425 48.5632 2.794C49.9632 1.96375 50.5632 1.51825 50.3832 1.417C49.9432 1.174 46.0832 0.424749 44.1032 0.201999C42.0032 -0.0410013 37.7432 -0.020751 35.6032 0.222249Z" fill="white"/>
<path d="M50.6022 3.66575C48.1622 5.063 42.5022 8.789 41.3222 9.78125L40.7422 10.2673L42.9222 10.3887C45.3822 10.5305 47.7622 10.9355 49.9822 11.6442C50.8222 11.8873 52.0822 12.1505 52.8022 12.2112L54.1022 12.3125L55.2822 10.2875C55.9222 9.17375 56.9422 7.574 57.5422 6.7235C58.1622 5.873 58.6822 5.08325 58.7422 4.96175C58.7822 4.84025 58.0222 4.35425 57.0622 3.8885C55.6022 3.2 53.3222 2.228 53.1422 2.228C53.1222 2.228 51.9822 2.876 50.6022 3.66575Z" fill="white"/>
<path d="M21.26 4.73811C14.98 8.16035 9.72 13.1621 5.96 19.2776C2.12 25.5349 0 33.0881 0 40.5401V42.9094L1.04 44.1851C3.46 47.1821 7.32 50.5639 10.78 52.7306C12.66 53.9051 15 55.1606 15 54.9784C15 54.9176 14.68 54.2089 14.28 53.4191C13.38 51.6169 12.34 48.3971 11.86 46.0279C11.38 43.5371 11.38 37.4621 11.86 34.9714C13.02 29.0786 15.72 23.8541 19.84 19.5206C22.28 16.9489 24.26 15.4706 27.62 13.6684C29.08 12.8786 30.36 12.0889 30.48 11.9066C30.62 11.6636 30.54 11.3801 30.08 10.7119C28.82 8.84885 23.7 3.84711 23.08 3.84711C22.98 3.84711 22.16 4.25211 21.26 4.73811Z" fill="white"/>
<path d="M59.3383 7.26903C57.9983 9.13203 55.7983 12.7568 55.7983 13.0605C55.7983 13.182 56.0783 13.5465 56.4183 13.8908C58.5583 15.9158 58.2783 19.9253 55.8383 21.8085C54.8383 22.578 53.8983 22.8818 52.4783 22.8818H51.4383L50.8183 25.1498C50.4783 26.4053 50.0183 28.329 49.7983 29.4428C49.3983 31.3868 48.7383 36.0645 48.8383 36.1455C48.8783 36.186 49.2783 36.3885 49.7183 36.6113C50.1783 36.8543 50.8583 37.401 51.2183 37.8263C51.7783 38.4743 52.2383 38.7375 53.7783 39.264C56.1783 40.0943 58.0983 41.0663 60.0183 42.4433C61.4983 43.476 61.5783 43.5165 62.3183 43.2938C63.4983 42.9698 65.4383 43.2128 66.6783 43.8203C67.6583 44.3063 69.1983 45.744 69.6983 46.6553C69.8983 47.0198 69.9583 46.9995 70.9383 46.5135C72.5783 45.663 76.5583 42.8685 78.3583 41.3093C80.2383 39.669 80.1783 39.831 79.7983 36.348C78.9183 28.4303 75.9383 21.1403 71.0783 15.0653C68.5383 11.886 64.8783 8.54478 61.5783 6.41853L60.4583 5.68953L59.3383 7.26903Z" fill="white"/>
<path d="M33.5826 11.4014C30.4626 12.5759 29.4426 16.3424 31.5626 18.8331C32.4826 19.9469 33.5826 20.4329 35.0626 20.4531C36.3626 20.4531 37.2026 20.1494 38.1226 19.3799C39.9626 17.8206 40.1026 14.4591 38.4426 12.6974C37.2626 11.4216 35.0626 10.8344 33.5826 11.4014Z" fill="white"/>
<path d="M50.839 14.0938C47.199 15.9163 48.519 21.4648 52.599 21.4648C54.459 21.4648 55.899 20.3106 56.399 18.4678C56.839 16.7263 55.999 14.9241 54.359 14.0938C53.039 13.4256 52.159 13.4256 50.839 14.0938Z" fill="white"/>
<path d="M39.3361 20.0458C37.8361 21.6861 35.1761 22.3341 33.0361 21.5848L32.2161 21.2811L30.4761 22.3341C28.2361 23.6706 25.3361 26.4651 23.8961 28.6318C20.0761 34.4638 19.2561 41.5716 21.6961 48.0921C21.9761 48.8616 22.2961 49.5906 22.3961 49.7121C22.5161 49.8538 23.0361 50.0158 23.5561 50.0968C25.4361 50.3398 27.5961 52.1016 28.4361 54.0253C28.6561 54.5316 28.8961 55.5846 28.9761 56.3743L29.0961 57.8121L30.6561 58.7638C32.4361 59.8371 34.8161 60.7686 37.1161 61.2748C39.0161 61.6798 42.9361 61.7406 44.7961 61.3761C46.5761 61.0318 49.7961 59.9586 49.7961 59.7156C49.7961 59.6143 49.5161 58.6018 49.1961 57.4476C48.3761 54.6126 47.6361 50.9676 47.3561 48.2338C47.1161 46.0468 47.0961 45.9456 46.5961 45.8443C44.9561 45.4798 43.4961 44.3053 42.8761 42.8271C42.4761 41.8348 42.4561 40.0326 42.8361 39.0808C42.9961 38.6961 43.3761 38.0683 43.6961 37.7038C44.2961 36.9748 45.9361 36.0433 46.5961 36.0433C47.0961 36.0433 47.0961 36.0636 47.3961 33.4108C47.6961 30.7176 48.3961 27.1738 49.1761 24.4198L49.7961 22.2531L48.9561 21.3823C47.7361 20.1471 45.7961 19.5598 42.0961 19.3371L40.0961 19.2156L39.3361 20.0458Z" fill="white"/>
<path d="M45.5999 37.9058C43.6399 39.2625 43.2999 41.7938 44.8799 43.3935C46.1999 44.7503 48.1599 44.8313 49.5999 43.6163C50.4599 42.867 50.7999 42.0975 50.7999 40.842C50.7999 38.8778 49.5799 37.6223 47.5399 37.5008C46.4799 37.44 46.1999 37.5008 45.5999 37.9058Z" fill="white"/>
<path d="M78.2994 43.6561C76.3594 45.2356 74.0394 46.8151 71.9594 47.9694L70.3994 48.8401V50.0349C70.3994 51.4524 69.8594 53.0116 68.9994 54.1051L68.3594 54.8949L68.6994 57.4261C68.9594 59.3499 69.0194 61.0104 68.9594 64.1896L68.8994 68.4219L69.4594 67.8751C69.7794 67.5714 70.5994 66.5994 71.2994 65.7084C76.0994 59.5119 78.9594 52.3636 79.8194 44.4661C79.9194 43.3726 79.9994 42.4614 79.9594 42.4209C79.9194 42.3804 79.1794 42.9474 78.2994 43.6561Z" fill="white"/>
<path d="M51.0366 44.1451C50.6766 44.5906 50.0166 45.1374 49.5766 45.3804C48.8766 45.7246 48.7766 45.8664 48.8766 46.3321C48.9166 46.6359 49.0366 47.4256 49.0966 48.0939C49.3766 50.6859 51.0966 58.5024 51.4966 58.8871C51.7566 59.1504 55.7166 55.9306 56.9766 54.4321L57.9766 53.2576L57.5566 52.3261C57.0566 51.1314 57.0966 48.2964 57.6566 47.1826C58.0766 46.3726 58.1166 46.4334 56.1966 45.2791C55.1366 44.6514 52.1966 43.3351 51.8566 43.3351C51.7766 43.3351 51.3966 43.6996 51.0366 44.1451Z" fill="white"/>
<path d="M61.6979 45.3174C60.0579 46.1072 59.0379 47.5247 58.8579 49.3269C58.4779 52.9314 61.7979 55.6854 65.2379 54.6324C66.3579 54.3084 67.8979 52.8504 68.2979 51.7367C69.1379 49.5497 68.2579 46.8969 66.3179 45.6617C65.0579 44.8719 62.9579 44.7302 61.6979 45.3174Z" fill="white"/>
<path d="M0.398438 46.4337C0.398438 46.5147 0.618438 47.6082 0.878438 48.8637C2.09844 54.716 4.73844 60.4872 8.37844 65.3067C9.73844 67.1292 13.2984 70.754 15.0984 72.1917C18.0184 74.5002 23.3984 77.72 23.3984 77.153C23.3984 77.0517 23.2184 76.3025 22.9984 75.4925C22.3184 72.9612 21.7784 69.2757 21.6584 66.2585C21.5384 63.5045 21.5184 63.383 21.1184 63.383C20.4384 63.383 18.6984 62.4717 17.7984 61.6415C16.8984 60.8112 16.0784 59.3735 15.8384 58.1787C15.6984 57.47 15.5784 57.3687 13.2984 56.1942C9.13844 54.0477 5.85844 51.6582 2.35844 48.2157C1.27844 47.183 0.398438 46.373 0.398438 46.4337Z" fill="white"/>
<path d="M21.0021 51.8168C18.8221 52.5255 17.4021 54.429 17.4221 56.5958C17.4221 58.6005 18.4021 60.2205 20.1021 61.071C22.7621 62.367 25.7621 61.233 26.9021 58.4588C27.2821 57.5475 27.3021 55.6845 26.9221 54.7935C26.5221 53.8418 25.4621 52.6875 24.5421 52.2015C23.6621 51.756 21.8021 51.5535 21.0021 51.8168Z" fill="white"/>
<path d="M65.7 57.7528C63.62 60.8308 59.1 65.0428 56.16 66.6223C55.52 66.9665 55 67.3108 55 67.3715C55 67.817 59.52 75.1273 59.98 75.4108C60.38 75.674 66.48 71.1785 66.68 70.49C66.82 70.0243 67.16 66.845 67.3 64.7998C67.42 63.0988 67.12 57.8945 66.84 56.8213C66.7 56.2745 66.66 56.2948 65.7 57.7528Z" fill="white"/>
<path d="M23.4629 67.0466C23.5429 68.3224 23.7429 70.1651 23.9029 71.1776C24.3029 73.5266 25.3429 77.5361 25.7029 78.0829C25.8829 78.3461 26.6429 78.7106 28.0229 79.1359C36.2029 81.6671 44.4629 81.6064 52.4429 78.9739C54.8229 78.1841 58.4629 76.5844 58.3629 76.3616C58.3229 76.3009 57.5829 75.1466 56.7029 73.7899C55.8229 72.4534 54.7029 70.6106 54.2429 69.7196L53.3629 68.0794L52.1829 68.5654C45.8629 71.1574 37.9429 71.3396 31.4629 69.0311C29.4229 68.3021 26.5829 66.8846 25.0029 65.8316C24.4029 65.4266 23.7829 65.0014 23.6229 64.9204C23.3829 64.7584 23.3629 65.0824 23.4629 67.0466Z" fill="white"/>
</g>
<defs>
<clipPath id="clip0_2602_100906">
<rect width="80" height="81" fill="white"/>
</clipPath>
</defs>
</svg>
