<svg width="256" height="62" viewBox="0 0 256 62" fill="none" xmlns="http://www.w3.org/2000/svg">
<path fill-rule="evenodd" clip-rule="evenodd" d="M12.1984 14.3008L8.39844 28.5008V34.9008L9.79844 41.5008L10.7984 45.0008L15.7984 47.5008L26.3984 48.7008C26.3984 48.7008 36.5984 42.9008 36.9984 42.7008C37.2984 42.5008 47.0984 34.4008 47.0984 34.4008L49.5984 27.2008V18.0008L46.1984 12.8008L42.4984 10.3008H23.5984L12.1984 14.3008Z" fill="white"/>
<path fill-rule="evenodd" clip-rule="evenodd" d="M29.5969 4.5C15.5969 4.5 4.29688 15.8 4.29688 29.8C4.29688 43.8 15.5969 55.1 29.5969 55.1C43.5969 55.1 54.8969 43.8 54.8969 29.8C54.8969 15.8 43.5969 4.5 29.5969 4.5ZM18.0969 44.2H15.7969V46.2H14.9969V44.2H12.6969V25.9H14.9969V24.2H15.7969V25.9H18.0969V44.2ZM25.3969 44H23.0969V45.7H22.2969V44H19.9969V38.7H22.2969V37H23.0969V38.7H25.3969V44ZM32.7969 37.7H30.4969V39.4H29.6969V37.7H27.3969V19.4H29.6969V17.7H30.4969V19.4H32.7969V37.7ZM39.7969 29.8H37.4969V33.4H36.5969V29.8H34.2969V27.4H36.5969V23.8H37.4969V27.4H39.7969V29.8ZM46.4969 33.5H44.1969V35H43.3969V33.5H41.0969V15.3H43.3969V13.5H44.1969V15.3H46.4969V33.5Z" fill="white"/>
<path fill-rule="evenodd" clip-rule="evenodd" d="M46.5047 15.3V33.5H44.3047V35H43.4047V33.5H41.2047V15.3H43.4047V13.5H44.3047V15.3H46.5047Z" fill="black"/>
<path fill-rule="evenodd" clip-rule="evenodd" d="M39.8047 27.4V29.8H37.6047V33.4H36.7047V29.8H34.5047V27.4H36.7047V23.8H37.6047V27.4H39.8047Z" fill="black"/>
<path fill-rule="evenodd" clip-rule="evenodd" d="M32.8047 19.4V37.7H30.5047V39.4H29.7047V37.7H27.4047V19.4H29.7047V17.6H30.5047V19.4H32.8047Z" fill="black"/>
<path fill-rule="evenodd" clip-rule="evenodd" d="M25.4047 38.7V44H23.2047V45.7H22.3047V44H20.1047V38.7H22.3047V37H23.2047V38.7H25.4047Z" fill="black"/>
<path fill-rule="evenodd" clip-rule="evenodd" d="M18.1047 25.9V44.2H15.8047V46.2H15.0047V44.2H12.8047V25.9H15.0047V24.2H15.8047V25.9H18.1047Z" fill="black"/>
<path fill-rule="evenodd" clip-rule="evenodd" d="M65.1953 30.3008C65.1953 31.9008 65.8953 32.6008 67.4953 32.6008H77.7953C79.3953 32.6008 80.0953 31.9008 80.0953 30.3008V26.0008H75.0953V27.2008C75.0953 27.6008 74.8953 27.9008 74.3953 27.9008H71.4953C71.0953 27.9008 70.7953 27.7008 70.7953 27.2008V12.6008C70.7953 11.0008 70.0953 10.3008 68.4953 10.3008H63.1953V15.0008H64.4953C64.8953 15.0008 65.1953 15.2008 65.1953 15.7008V30.3008ZM83.2953 14.7008H87.7953V10.3008H83.2953V14.7008ZM82.8953 30.3008C82.8953 31.9008 83.5953 32.6008 85.1953 32.6008H90.1953V28.0008H88.9953C88.5953 28.0008 88.2953 27.8008 88.2953 27.3008V18.8008C88.2953 17.2008 87.5953 16.5008 85.9953 16.5008H80.9953V21.0008H82.1953C82.5953 21.0008 82.8953 21.2008 82.8953 21.7008V30.3008ZM91.4953 30.0008C91.4953 30.0008 93.9953 32.9008 98.5953 32.9008C102.295 32.9008 105.195 30.9008 105.195 27.7008C105.195 22.3008 97.0953 22.5008 97.0953 20.9008C97.0953 20.4008 97.7953 20.2008 98.4953 20.2008C99.2953 20.2008 99.9953 20.5008 99.9953 20.9008V21.7008H104.695V19.8008C104.695 16.9008 101.095 16.2008 98.4953 16.2008C95.0953 16.2008 91.8953 17.7008 91.8953 21.1008C91.8953 26.3008 99.8953 26.7008 99.8953 28.1008C99.8953 28.7008 99.4953 28.9008 98.6953 28.9008C96.1953 28.9008 93.9953 26.6008 93.9953 26.6008L91.4953 30.0008ZM108.495 26.6008C108.495 32.0008 113.395 32.7008 115.995 32.7008C116.895 32.7008 117.495 32.6008 117.495 32.6008V27.9008C117.495 27.9008 117.195 27.9008 116.795 27.9008C115.795 27.9008 113.895 27.7008 113.895 25.8008V20.6008H117.295V16.4008H113.895V12.1008H108.695V16.4008H106.495V20.6008H108.595L108.495 26.6008ZM121.395 14.7008H125.895V10.3008H121.395V14.7008ZM120.995 30.3008C120.995 31.9008 121.695 32.6008 123.295 32.6008H128.295V28.0008H126.995C126.595 28.0008 126.295 27.8008 126.295 27.3008V18.8008C126.295 17.2008 125.595 16.5008 123.995 16.5008H118.995V21.0008H120.195C120.595 21.0008 120.895 21.2008 120.895 21.7008L120.995 30.3008ZM131.395 32.5008H136.795V25.4008C136.795 24.6008 136.895 23.9008 137.095 23.3008C137.595 21.9008 138.595 21.0008 140.295 21.0008C141.495 21.0008 142.095 21.6008 142.095 23.1008V30.2008C142.095 31.8008 142.795 32.5008 144.395 32.5008H149.395V28.0008H148.195C147.795 28.0008 147.495 27.8008 147.495 27.3008V22.1008C147.495 17.6008 144.995 16.1008 141.695 16.1008C138.895 16.1008 137.395 17.6008 136.595 18.9008H136.495C136.495 18.9008 136.495 18.7008 136.495 18.5008V18.3008C136.495 17.2008 135.695 16.5008 134.295 16.5008H129.495V21.0008H130.695C131.095 21.0008 131.395 21.2008 131.395 21.7008V32.5008ZM150.495 24.0008C150.495 28.1008 152.895 32.1008 157.695 32.1008C159.595 32.1008 160.795 31.6008 161.695 30.6008H161.795C161.795 30.6008 161.795 31.0008 161.795 31.2008V31.4008C161.795 33.8008 159.995 34.5008 158.095 34.5008C155.595 34.5008 153.595 33.5008 153.595 33.5008L151.995 37.7008C153.595 38.5008 155.895 39.1008 158.095 39.1008C162.495 39.1008 167.095 37.0008 167.095 31.1008V21.7008C167.095 21.3008 167.395 21.1008 167.795 21.1008H168.895V16.6008H163.995C162.795 16.6008 162.295 17.4008 162.295 17.9008V18.0008H162.195C162.195 18.0008 160.795 16.1008 157.595 16.1008C152.895 16.2008 150.495 20.0008 150.495 24.0008ZM158.995 27.6008C156.895 27.6008 155.895 25.8008 155.895 23.8008C155.895 22.0008 156.895 20.6008 158.795 20.6008C160.395 20.6008 161.895 21.2008 161.895 24.1008C161.895 26.9008 160.395 27.6008 158.995 27.6008ZM171.795 32.5008H176.695V27.4008H171.795V32.5008ZM181.295 32.5008H186.895V23.8008H194.395V32.5008H199.995V15.7008C199.995 15.3008 200.195 15.0008 200.695 15.0008H201.995V10.3008H196.695C195.095 10.3008 194.395 11.0008 194.395 12.6008V19.2008H186.895V12.6008C186.895 11.0008 186.195 10.3008 184.595 10.3008H179.295V15.0008H180.595C180.995 15.0008 181.295 15.2008 181.295 15.7008V32.5008ZM203.395 24.5008C203.395 28.8008 206.495 32.9008 212.195 32.9008C216.495 32.9008 218.995 30.4008 218.995 30.4008L216.895 26.8008C216.895 26.8008 214.895 28.5008 212.595 28.5008C210.895 28.5008 209.295 27.6008 208.895 25.6008H218.995C218.995 25.6008 219.095 24.5008 219.095 24.0008C219.095 19.6008 216.395 16.3008 211.695 16.3008C206.595 16.2008 203.395 19.8008 203.395 24.5008ZM209.095 22.3008C209.395 21.1008 210.195 20.2008 211.795 20.2008C212.895 20.2008 213.695 21.3008 213.695 22.3008H209.095ZM222.495 30.3008C222.495 31.9008 223.195 32.6008 224.795 32.6008H229.795V28.0008H228.595C228.195 28.0008 227.895 27.8008 227.895 27.3008V12.6008C227.895 11.0008 227.195 10.3008 225.595 10.3008H220.595V14.8008H221.795C222.195 14.8008 222.495 15.0008 222.495 15.5008V30.3008ZM232.895 38.8008H238.295V33.0008C238.295 32.2008 238.195 31.6008 238.195 31.6008H238.295C238.295 31.6008 239.795 33.0008 242.395 33.0008C246.695 33.0008 249.895 29.7008 249.895 24.6008C249.895 19.6008 246.995 16.2008 242.695 16.2008C239.295 16.2008 237.895 18.3008 237.895 18.3008H237.795V18.0008C237.795 17.3008 237.295 16.6008 235.695 16.6008H230.995V21.0008H232.195C232.595 21.0008 232.895 21.2008 232.895 21.7008V38.8008ZM238.095 24.6008C238.095 21.8008 239.595 20.7008 241.195 20.7008C243.095 20.7008 244.295 22.3008 244.295 24.6008C244.295 27.1008 242.795 28.4008 241.195 28.4008C239.095 28.5008 238.095 26.6008 238.095 24.6008Z" fill="white"/>
<path fill-rule="evenodd" clip-rule="evenodd" d="M65.1953 51.3984H66.6953V41.3984H65.1953V51.3984ZM68.5953 51.3984H69.9953V44.7984H68.4953L68.5953 51.3984ZM69.2953 41.7984C68.7953 41.7984 68.3953 42.0984 68.3953 42.6984C68.3953 43.2984 68.7953 43.5984 69.2953 43.5984C69.7953 43.5984 70.1953 43.2984 70.1953 42.6984C70.1953 42.0984 69.7953 41.7984 69.2953 41.7984ZM73.0953 46.5984C73.0953 46.0984 73.6953 45.8984 74.2953 45.8984C75.0953 45.8984 75.9953 46.1984 76.5953 46.4984V45.1984C75.9953 44.8984 75.0953 44.5984 74.1953 44.5984C72.8953 44.5984 71.5953 45.0984 71.5953 46.5984C71.5953 48.9984 75.5953 48.4984 75.5953 49.6984C75.5953 50.1984 74.9953 50.3984 74.1953 50.3984C73.3953 50.3984 72.3953 50.1984 71.6953 49.6984V50.9984C72.2953 51.3984 73.2953 51.5984 74.2953 51.5984C75.7953 51.5984 77.0953 51.0984 77.0953 49.6984C76.9953 47.2984 73.0953 47.7984 73.0953 46.5984ZM80.2953 49.0984V46.0984H82.6953V44.7984H80.2953V42.4984L78.7953 42.8984V44.8984H77.5953V46.1984H78.7953V49.4984C78.7953 50.9984 79.7953 51.6984 81.0953 51.6984C81.6953 51.6984 82.3953 51.5984 82.8953 51.3984V49.9984C82.4953 50.1984 81.9953 50.2984 81.5953 50.2984C80.6953 50.2984 80.2953 49.9984 80.2953 49.0984ZM84.0953 51.3984H85.5953V44.7984H84.0953V51.3984ZM84.8953 41.7984C84.3953 41.7984 83.9953 42.0984 83.9953 42.6984C83.9953 43.2984 84.3953 43.5984 84.8953 43.5984C85.3953 43.5984 85.7953 43.2984 85.7953 42.6984C85.7953 42.0984 85.3953 41.7984 84.8953 41.7984ZM91.0953 44.5984C90.0953 44.5984 89.2953 45.0984 88.7953 45.6984V44.7984H87.4953V51.3984H88.9953V46.9984C89.3953 46.4984 89.9953 45.8984 90.7953 45.8984C91.6953 45.8984 92.2953 46.3984 92.2953 47.4984V51.3984H93.7953V47.2984C93.7953 45.7984 92.6953 44.5984 91.0953 44.5984ZM100.995 45.8984C100.495 45.2984 99.6953 44.6984 98.4953 44.6984C96.4953 44.6984 95.1953 46.2984 95.1953 48.1984C95.1953 50.0984 96.4953 51.6984 98.4953 51.6984C99.6953 51.6984 100.395 51.1984 100.895 50.5984V51.3984C100.895 52.8984 99.7953 53.2984 98.4953 53.2984C97.5953 53.2984 96.6953 53.0984 95.9953 52.5984V53.9984C96.7953 54.3984 97.6953 54.5984 98.6953 54.5984C100.595 54.5984 102.395 53.6984 102.395 51.2984V44.7984H100.995V45.8984ZM100.795 48.9984C100.495 49.6984 99.6953 50.2984 98.6953 50.2984C97.4953 50.2984 96.5953 49.3984 96.5953 48.0984C96.5953 46.7984 97.4953 45.8984 98.6953 45.8984C99.6953 45.8984 100.495 46.5984 100.795 47.2984V48.9984ZM110.495 44.5984C108.695 44.5984 106.895 45.7984 106.895 48.0984C106.895 50.3984 108.595 51.5984 110.495 51.5984C112.395 51.5984 114.095 50.3984 114.095 48.0984C114.095 45.7984 112.395 44.5984 110.495 44.5984ZM110.495 50.2984C109.295 50.2984 108.395 49.4984 108.395 48.1984C108.395 46.8984 109.295 46.0984 110.495 46.0984C111.695 46.0984 112.595 46.8984 112.595 48.1984C112.595 49.3984 111.795 50.2984 110.495 50.2984ZM119.095 44.5984C118.095 44.5984 117.295 45.0984 116.795 45.6984V44.7984H115.495V51.3984H116.995V46.9984C117.395 46.4984 117.995 45.8984 118.795 45.8984C119.695 45.8984 120.295 46.3984 120.295 47.4984V51.3984H121.795V47.2984C121.895 45.7984 120.795 44.5984 119.095 44.5984ZM127.995 48.0984C127.995 46.5984 129.195 45.8984 130.395 45.8984C131.095 45.8984 131.695 46.0984 132.195 46.3984V45.0984C131.595 44.7984 130.895 44.5984 130.195 44.5984C128.395 44.5984 126.595 45.6984 126.595 48.0984C126.595 50.3984 128.395 51.4984 130.195 51.4984C130.995 51.4984 131.795 51.2984 132.395 50.9984V49.5984C131.895 49.8984 131.195 50.0984 130.495 50.0984C129.095 50.2984 127.995 49.5984 127.995 48.0984ZM134.995 45.8984V44.7984H133.695V51.3984H135.195V47.3984C135.595 46.4984 136.595 45.8984 137.795 46.0984V44.6984C136.495 44.5984 135.495 45.0984 134.995 45.8984ZM141.795 49.7984L139.595 44.7984H137.995L141.095 51.3984L140.995 51.6984C140.595 52.6984 140.095 53.1984 139.395 53.1984C139.195 53.1984 138.895 53.1984 138.695 53.0984V54.3984C138.995 54.4984 139.295 54.4984 139.595 54.4984C140.595 54.4984 141.495 53.8984 142.295 52.1984L145.395 44.6984H143.895L141.795 49.7984ZM150.295 44.5984C149.095 44.5984 148.295 45.1984 147.795 45.7984V44.7984H146.495V54.3984H147.995V50.4984C148.495 50.9984 149.195 51.4984 150.395 51.4984C152.395 51.4984 153.695 49.8984 153.695 47.9984C153.595 46.1984 152.295 44.5984 150.295 44.5984ZM149.995 50.2984C148.995 50.2984 148.195 49.5984 147.895 48.8984V47.2984C148.195 46.5984 148.995 45.8984 149.995 45.8984C151.195 45.8984 152.095 46.7984 152.095 48.0984C152.095 49.3984 151.195 50.2984 149.995 50.2984ZM156.795 49.0984V46.0984H159.195V44.7984H156.795V42.4984L155.295 42.8984V44.8984H154.095V46.1984H155.295V49.4984C155.295 50.9984 156.295 51.6984 157.595 51.6984C158.195 51.6984 158.895 51.5984 159.395 51.3984V49.9984C158.995 50.1984 158.495 50.2984 158.095 50.2984C157.195 50.2984 156.795 49.9984 156.795 49.0984ZM163.795 44.5984C161.995 44.5984 160.195 45.7984 160.195 48.0984C160.195 50.3984 161.895 51.5984 163.795 51.5984C165.695 51.5984 167.395 50.3984 167.395 48.0984C167.395 45.7984 165.595 44.5984 163.795 44.5984ZM163.795 50.2984C162.595 50.2984 161.695 49.4984 161.695 48.1984C161.695 46.8984 162.595 46.0984 163.795 46.0984C164.995 46.0984 165.895 46.8984 165.895 48.1984C165.895 49.3984 164.995 50.2984 163.795 50.2984ZM174.995 44.5984C173.495 44.5984 171.695 45.6984 171.695 48.0984C171.695 50.3984 173.395 51.5984 175.395 51.5984C176.295 51.5984 177.195 51.3984 177.795 51.0984V49.7984C177.195 50.0984 176.495 50.2984 175.695 50.2984C174.495 50.2984 173.295 49.7984 173.195 48.5984H178.195C178.495 46.7984 177.595 44.5984 174.995 44.5984ZM176.795 47.5984H173.095C173.195 46.4984 173.995 45.8984 174.995 45.8984C176.495 45.8984 176.795 46.9984 176.795 47.5984ZM185.295 44.7984H183.595L181.995 46.9984L180.395 44.7984H178.695L181.095 47.9984L178.595 51.3984H180.295L181.995 49.0984L183.695 51.3984H185.395L182.895 47.9984L185.295 44.7984ZM187.295 48.0984C187.295 46.5984 188.495 45.8984 189.695 45.8984C190.395 45.8984 190.995 46.0984 191.495 46.3984V45.0984C190.895 44.7984 190.195 44.5984 189.495 44.5984C187.695 44.5984 185.895 45.6984 185.895 48.0984C185.895 50.3984 187.695 51.4984 189.495 51.4984C190.295 51.4984 191.095 51.2984 191.695 50.9984V49.5984C191.195 49.8984 190.495 50.0984 189.795 50.0984C188.395 50.2984 187.295 49.5984 187.295 48.0984ZM196.495 44.5984C195.595 44.5984 194.895 44.9984 194.395 45.4984V41.7984H192.895V51.3984H194.395V46.9984C194.795 46.4984 195.395 45.8984 196.195 45.8984C197.095 45.8984 197.695 46.3984 197.695 47.4984V51.3984H199.195V47.2984C199.295 45.7984 198.195 44.5984 196.495 44.5984ZM206.695 49.8984V47.4984C206.695 45.4984 205.495 44.5984 203.595 44.5984C202.495 44.5984 201.595 44.8984 201.095 44.9984V46.2984C201.695 45.9984 202.495 45.7984 203.495 45.7984C204.595 45.7984 205.195 46.3984 205.195 47.1984V47.3984C204.695 47.2984 203.995 47.1984 203.495 47.1984C202.095 47.1984 200.595 47.6984 200.595 49.3984C200.595 50.7984 201.695 51.3984 202.895 51.3984C203.895 51.3984 204.695 51.0984 205.395 50.4984C205.595 50.9984 206.095 51.2984 206.695 51.2984C206.995 51.2984 207.395 51.1984 207.595 51.0984V49.9984C207.495 49.9984 207.295 50.0984 207.195 50.0984C206.895 50.3984 206.695 50.2984 206.695 49.8984ZM205.195 49.6984C204.695 50.1984 203.995 50.4984 203.295 50.4984C202.595 50.4984 202.095 50.1984 202.095 49.4984C202.095 48.6984 202.995 48.3984 203.795 48.3984C204.295 48.3984 204.795 48.4984 205.195 48.5984V49.6984ZM212.195 44.5984C211.195 44.5984 210.395 45.0984 209.895 45.6984V44.7984H208.595V51.3984H210.095V46.9984C210.495 46.4984 211.095 45.8984 211.895 45.8984C212.795 45.8984 213.395 46.3984 213.395 47.4984V51.3984H214.895V47.2984C214.895 45.7984 213.895 44.5984 212.195 44.5984ZM222.095 45.8984C221.595 45.2984 220.795 44.6984 219.595 44.6984C217.595 44.6984 216.295 46.2984 216.295 48.1984C216.295 50.0984 217.595 51.6984 219.595 51.6984C220.795 51.6984 221.495 51.1984 221.995 50.5984V51.3984C221.995 52.8984 220.895 53.2984 219.595 53.2984C218.695 53.2984 217.795 53.0984 217.095 52.5984V53.9984C217.895 54.3984 218.795 54.5984 219.795 54.5984C221.695 54.5984 223.495 53.6984 223.495 51.2984V44.7984H222.195L222.095 45.8984ZM221.895 48.9984C221.595 49.6984 220.795 50.2984 219.795 50.2984C218.595 50.2984 217.795 49.3984 217.795 48.0984C217.795 46.7984 218.695 45.8984 219.795 45.8984C220.795 45.8984 221.595 46.5984 221.895 47.2984V48.9984ZM228.195 44.5984C226.695 44.5984 224.895 45.6984 224.895 48.0984C224.895 50.3984 226.595 51.5984 228.595 51.5984C229.495 51.5984 230.395 51.3984 230.995 51.0984V49.7984C230.395 50.0984 229.695 50.2984 228.895 50.2984C227.695 50.2984 226.495 49.7984 226.395 48.5984H231.395C231.695 46.7984 230.795 44.5984 228.195 44.5984ZM229.995 47.5984H226.295C226.395 46.4984 227.195 45.8984 228.195 45.8984C229.695 45.8984 229.995 46.9984 229.995 47.5984ZM233.895 46.5984C233.895 46.0984 234.495 45.8984 235.095 45.8984C235.895 45.8984 236.795 46.1984 237.395 46.4984V45.1984C236.795 44.8984 235.895 44.5984 234.995 44.5984C233.695 44.5984 232.395 45.0984 232.395 46.5984C232.395 48.9984 236.395 48.4984 236.395 49.6984C236.395 50.1984 235.795 50.3984 234.995 50.3984C234.195 50.3984 233.195 50.1984 232.495 49.6984V50.9984C233.095 51.3984 234.095 51.5984 235.095 51.5984C236.595 51.5984 237.895 51.0984 237.895 49.6984C237.895 47.2984 233.895 47.7984 233.895 46.5984Z" fill="white"/>
</svg>
