<svg width="232" height="51" viewBox="0 0 232 51" fill="none" xmlns="http://www.w3.org/2000/svg">
<path d="M40.3668 13.8656V43.2451H48.1668V13.8656H40.3668Z" fill="white"/>
<path d="M40.3668 0V7.80199H48.1668V0H40.3668Z" fill="white"/>
<path d="M199.314 37.5702C198.156 37.7051 197.289 37.5713 196.509 37.0177C195.654 36.4106 195.197 35.5932 195.197 34.462V33.4716C195.197 31.6204 196.691 30.1196 198.534 30.1196L216.137 31.2752V36.7386L199.314 37.5702ZM214.871 13.8714H189.77V21.7872L212.959 19.0415C214.713 19.0415 216.137 20.4708 216.137 22.2331V24.6881H196.526C191.114 24.6881 186.727 29.0949 186.727 34.5304V34.637C186.727 40.0724 191.114 43.2451 196.526 43.2451L224.2 43.1959V23.2407C224.2 18.066 220.023 13.8714 214.871 13.8714Z" fill="white"/>
<path d="M171.046 35.3628L153.18 37.8147C151.337 37.8147 149.843 36.3139 149.843 34.462V23.1067C149.843 21.2548 151.337 19.754 153.18 19.754L171.046 21.762V35.3628ZM171.046 0.000153941V14.3236H151.171C145.76 14.3236 141.372 18.7293 141.372 24.166V33.4031C141.372 38.8386 145.76 43.2451 151.171 43.2451H178.846V0.000153941H171.046Z" fill="white"/>
<path d="M224.2 43.1968V51H232V43.1968H224.2Z" fill="white"/>
<path d="M108.401 37.5702C107.243 37.7051 106.375 37.5713 105.596 37.0177C104.741 36.4106 104.284 35.5932 104.284 34.462V33.4716C104.284 31.6204 105.778 30.1196 107.621 30.1196L125.223 31.2752V36.7386L108.401 37.5702ZM123.957 13.8714H98.8569V21.7872L122.045 19.0415C123.8 19.0415 125.223 20.4708 125.223 22.2331V24.6881H105.613C100.201 24.6881 95.8133 29.0949 95.8133 34.5304V34.637C95.8133 40.0724 100.201 43.2451 105.613 43.2451L133.287 43.1959V23.2407C133.287 18.066 129.11 13.8714 123.957 13.8714Z" fill="white"/>
<path d="M133.287 43.1968V51H141.087V43.1968H133.287Z" fill="white"/>
<path d="M68.1911 37.8147C66.3481 37.8147 64.8528 36.3139 64.8528 34.462V22.6549C64.8528 20.803 66.3481 19.3022 68.1911 19.3022L88.5323 22.1871V13.8714H66.1827C60.77 13.8714 56.3834 18.2772 56.3834 23.7138V33.4031C56.3834 38.8386 60.77 43.2451 66.1827 43.2451H88.5323V34.2929L68.1911 37.8147Z" fill="white"/>
<path d="M11.8087 37.8147C9.96465 37.8147 8.4704 36.3139 8.4704 34.462V22.6549C8.4704 20.803 9.96465 19.3022 11.8087 19.3022L32.1498 22.1871V13.8714H9.79928C4.38753 13.8714 0 18.2772 0 23.7138V33.4031C0 38.8386 4.38753 43.2451 9.79928 43.2451H32.1498V34.2929L11.8087 37.8147Z" fill="white"/>
</svg>
