<svg width="113" height="62" viewBox="0 0 113 62" fill="none" xmlns="http://www.w3.org/2000/svg">
<g clip-path="url(#clip0_2602_100935)">
<path d="M0 39.1914H45.3699" stroke="white" stroke-width="2" stroke-miterlimit="10"/>
<path d="M67.7734 39.1914H113" stroke="white" stroke-width="2" stroke-miterlimit="10"/>
<path d="M0 61.7031H113" stroke="white" stroke-width="2" stroke-miterlimit="10"/>
<path d="M56.4961 2.1489L82.147 35.4257H71.3026L57.5392 17.5689L56.4974 16.2171L55.4556 17.5689L41.6922 35.4257H30.8477L56.4961 2.1489ZM56.4961 0L28.1797 36.7345H42.3379L56.4961 18.3673L70.6542 36.7345H84.8124L56.4961 0Z" fill="white"/>
<path d="M42.3379 36.7347L41.6907 35.4258H30.8464L28.1797 36.7347H42.3379Z" fill="white"/>
<path d="M56.4961 0V2.1489L30.8464 35.4257L28.1797 36.7345L56.4961 0Z" fill="white"/>
<path d="M56.5005 16.2188V18.3677L42.3423 36.7349L41.6953 35.4261L56.5005 16.2188Z" fill="white"/>
<path d="M82.1523 35.4252H71.3065L57.5445 17.5684L56.5013 16.2179L55.4595 17.5684L41.6961 35.4252H30.8516L56.5013 2.14844L82.1523 35.4252Z" fill="white"/>
<path d="M70.6562 36.7347L71.3047 35.4258H82.149L84.8145 36.7347H70.6562Z" fill="white"/>
<path d="M56.5 0V2.1489L82.151 35.4257L84.8164 36.7345L56.5 0Z" fill="white"/>
<path d="M56.5 16.2188V18.3677L70.6582 36.7349L71.3065 35.4261L56.5 16.2188Z" fill="white"/>
<path d="M56.5 16.2179V2.14844L82.151 35.4252H71.3065L56.5 16.2179Z" fill="white"/>
<path d="M71.3047 35.4258L84.8145 36.7347H70.6562L71.3047 35.4258Z" fill="white"/>
<path d="M56.5 16.2188L76.0713 27.6131L82.151 35.4261H71.3065L56.5 16.2188Z" fill="white"/>
<path d="M56.5 16.2188L82.151 35.4261H71.3065L56.5 16.2188Z" fill="white"/>
<path d="M56.5 0L58.8124 5.14825L56.5 16.2184V0Z" fill="white"/>
<path d="M58.8124 5.14825L56.5 2.99284V0L58.8124 5.14825Z" fill="white"/>
<path d="M56.5013 16.2179V2.14844L30.8516 35.4252H41.6961L56.5013 16.2179Z" fill="white"/>
<path d="M56.4999 0L54.1875 5.14825L56.4999 16.2184V0Z" fill="white"/>
<path d="M54.1875 5.14825L56.4999 2.99284V0L54.1875 5.14825Z" fill="white"/>
<path d="M41.6907 35.4258L28.1797 36.7347H42.3379L41.6907 35.4258Z" fill="white"/>
<path d="M56.5013 16.2188L36.93 27.6131L30.8516 35.4261H41.6961L56.5013 16.2188Z" fill="white"/>
<path d="M56.5013 16.2188L30.8516 35.4261H41.6961L56.5013 16.2188Z" fill="white"/>
<path d="M56.5017 0C56.588 5.90102 56.5866 12.461 56.5017 18.3673C56.4167 12.461 56.4154 5.90362 56.5017 0Z" fill="white"/>
<path d="M58.8124 5.14844C58.1549 8.72214 57.3261 12.6761 56.5 16.2172C57.1602 12.6409 57.9836 8.68827 58.8124 5.14844Z" fill="white"/>
<path d="M56.5006 48.7083L47.3516 36.733L56.5006 24.7578L65.6509 36.733L56.5006 48.7083Z" fill="white"/>
<path d="M56.5 24.7578V36.733H65.6503L56.5 24.7578Z" fill="white"/>
<path d="M56.5006 24.7578V36.733H47.3516L56.5006 24.7578Z" fill="white"/>
<path d="M47.3516 36.7344H56.5006V48.7095L47.3516 36.7344Z" fill="white"/>
<path d="M56.5 48.7095V36.7344H65.6503L56.5 48.7095Z" fill="white"/>
<path d="M56.5006 48.7083C56.6482 45.748 56.7411 42.7721 56.779 39.7911C56.7881 39.0461 57.1058 38.3336 57.6665 37.8075C58.2221 37.2853 58.9724 36.987 59.7593 36.974C61.7332 36.9414 63.7188 36.8738 65.6496 36.733C63.7175 36.5924 61.732 36.5247 59.7593 36.4921C58.9737 36.4791 58.2234 36.1808 57.6665 35.6586C57.1058 35.1311 56.7881 34.4187 56.779 33.6738C56.7411 30.694 56.6495 27.7167 56.4992 24.7578C56.3502 27.7182 56.2574 30.694 56.2209 33.6751C56.2117 34.42 55.8954 35.1325 55.3332 35.6598C54.7776 36.1821 54.0273 36.4804 53.2417 36.4934C51.2678 36.5272 49.2823 36.5936 47.3516 36.7344C49.2835 36.875 51.2678 36.9414 53.2417 36.9753C54.0273 36.9883 54.7776 37.2866 55.3332 37.8088H55.3345C55.8954 38.3363 56.2117 39.0487 56.2221 39.7936C56.26 42.7734 56.3528 45.7507 56.5006 48.7108V48.7083Z" fill="white"/>
<path d="M11.2431 42.0156H6.64968L0 58.8787H4.13594L5.41699 55.5538H12.2353L13.5176 58.8787H17.8941L11.2444 42.0156H11.2431ZM6.79476 51.941L8.82614 46.6169L10.8575 51.941H6.79476Z" fill="white"/>
<path d="M30.2619 42.0156V51.9892L22.8881 42.0156H18.8984V58.8787H23.0082V48.9052L30.3834 58.8787H34.3729V42.0156H30.2619Z" fill="white"/>
<path d="M46.3479 41.9923C45.6773 41.849 44.97 41.7773 44.2276 41.7773C41.6968 41.7773 39.5727 42.6121 37.8564 44.2817C36.14 45.9527 35.2812 48.0079 35.2812 50.4498C35.2812 52.8916 36.14 54.9468 37.8564 56.6165C39.5727 58.2874 41.6968 59.1222 44.2276 59.1222C46.7583 59.1222 48.8826 58.2874 50.5989 56.6165C52.2236 55.0354 53.0799 53.1105 53.1662 50.8392L46.3465 41.9923H46.3479ZM47.5649 53.9428C46.6615 54.8908 45.5492 55.3636 44.2276 55.3636C42.906 55.3636 41.7936 54.8896 40.8917 53.9428C39.9883 52.9946 39.5374 51.8302 39.5374 50.4498C39.5374 49.0693 39.9883 47.9036 40.8917 46.9569C41.7936 46.0087 42.906 45.5359 44.2276 45.5359C45.5492 45.5359 46.6615 46.01 47.5649 46.9569C48.4668 47.9036 48.9179 49.0693 48.9179 50.4498C48.9179 51.8302 48.4668 52.9946 47.5649 53.9428Z" fill="white"/>
<path d="M77.4688 49.2412H70.0988L67.3132 52.8554H72.8505C72.5916 53.5456 72.1002 54.1356 71.376 54.6253C70.6505 55.1149 69.772 55.361 68.7407 55.361C67.4178 55.361 66.3054 54.887 65.4035 53.9403C64.5001 52.9921 64.0493 51.8278 64.0493 50.4472C64.0493 49.0668 64.5001 47.9011 65.4035 46.9543C66.3054 46.0062 67.4178 45.5334 68.7407 45.5334C69.674 45.5334 70.5093 45.7744 71.2426 46.2562C71.9759 46.7381 72.5276 47.3567 72.8989 48.1121L75.478 44.7663C74.9734 44.192 74.3722 43.6685 73.6741 43.1983C72.2714 42.2501 70.6269 41.7773 68.742 41.7773C68.014 41.7773 67.3185 41.8465 66.6584 41.9845L59.8047 50.8771C59.9002 53.1314 60.7564 55.0446 62.3708 56.6165C64.0871 58.2875 66.2099 59.1223 68.742 59.1223C69.9656 59.1223 71.1355 58.8892 72.2479 58.4229C73.3604 57.9581 74.3342 57.3107 75.1733 56.4851C76.0114 55.6581 76.6439 54.6136 77.0714 53.3528C77.4975 52.0921 77.6309 50.7234 77.4702 49.2452L77.4688 49.2412Z" fill="white"/>
<path d="M91.3631 45.6298V42.0156H78.4453V58.8787H91.3631V55.2646H82.5551V52.2535H91.1199V48.6395H82.5551V45.6284H91.3631V45.6298Z" fill="white"/>
<path d="M107.625 42.0156L103.198 53.0258L98.7735 42.0156H93.4062V58.8787H97.2742V48.2553L101.506 58.8787H104.648L108.879 48.2553V58.8787H112.749V42.0156H107.622H107.625Z" fill="white"/>
</g>
<defs>
<clipPath id="clip0_2602_100935">
<rect width="113" height="62" fill="white"/>
</clipPath>
</defs>
</svg>
