<svg width="169" height="50" viewBox="0 0 169 50" fill="none" xmlns="http://www.w3.org/2000/svg">
<mask id="mask0_2602_100779" style="mask-type:alpha" maskUnits="userSpaceOnUse" x="0" y="0" width="50" height="50">
<circle cx="24.8689" cy="24.8689" r="24.8689" fill="white"/>
</mask>
<g mask="url(#mask0_2602_100779)">
<path d="M49.986 28.1069C47.9304 42.0836 34.9335 51.7476 20.9567 49.692C6.97996 47.6363 -2.68401 34.6394 -0.628353 20.6627C1.42731 6.68588 14.4242 -2.97809 28.4009 -0.922428C42.3777 1.13323 52.0417 14.1301 49.986 28.1069ZM9.02073 22.0818C7.74885 30.7296 13.7282 38.771 22.3759 40.0429C31.0236 41.3148 39.0651 35.3354 40.337 26.6877C41.6088 18.04 35.6295 9.99853 26.9818 8.72665C18.334 7.45477 10.2926 13.4341 9.02073 22.0818Z" fill="white"/>
<g clip-path="url(#clip0_2602_100779)">
<rect x="21.5781" y="-3.36328" width="20.6582" height="47.1009" transform="rotate(38.3669 21.5781 -3.36328)" fill="#575757"/>
<rect x="37.75" y="9.46094" width="17.707" height="49.3101" transform="rotate(38.3669 37.75 9.46094)" fill="#272727"/>
<circle opacity="0.1" cx="24.6781" cy="24.382" r="16.0426" transform="rotate(8.3669 24.6781 24.382)" fill="white"/>
</g>
</g>
<path d="M79.7515 15.0491C79.1988 15.6846 79.3094 17.1215 79.8896 17.5359C80.5804 18.0333 81.6857 18.0333 82.4594 17.4807C83.2608 16.928 83.316 15.2977 82.5423 14.8833C81.741 14.4688 80.1383 14.5517 79.7515 15.0491Z" fill="white"/>
<path d="M63.1719 24.1411V33.4531L68.2286 33.3426C72.2076 33.2597 73.4787 33.1215 74.3629 32.7347C76.5458 31.7952 77.5406 30.3583 77.5406 28.1478C77.5406 26.1582 76.9603 25.1911 75.2471 24.4174C73.8931 23.7819 73.8655 23.7543 74.5287 23.4779C76.9603 22.5661 77.734 18.891 75.9655 16.791C74.6945 15.2988 73.7826 15.0778 68.2286 14.9396L63.1719 14.8291V24.1411ZM72.3734 17.9515C73.755 18.587 74.0589 20.466 73.0089 21.7095C72.3734 22.4555 72.2352 22.4832 69.4167 22.5661L66.4877 22.6766V20.1621V17.6476H69.1128C70.5497 17.6476 72.0142 17.7857 72.3734 17.9515ZM72.0694 25.3845C73.9208 25.9096 74.6945 27.5675 73.8379 29.2254C73.2576 30.3307 72.2905 30.6346 69.2509 30.6346H66.4877V27.8714V25.1082H68.7812C70.0246 25.1082 71.5168 25.2464 72.0694 25.3845Z" fill="white"/>
<path d="M86.6006 17.0127L86.5177 19.168L85.4953 19.2509C84.4453 19.3338 84.4453 19.3615 84.4453 20.5773V21.7931H85.5506H86.6559V26.2695C86.6559 29.9998 86.7388 30.9393 87.1533 31.7406C87.8717 33.2051 89.1428 33.7302 91.5744 33.592C92.6797 33.5367 93.7297 33.3433 93.8679 33.2051C94.0337 33.0394 94.0613 32.4867 93.9508 31.9064C93.785 30.884 93.7573 30.884 92.7626 31.0498C90.2481 31.4643 89.6954 30.4419 89.6954 25.1642V21.7931H91.7678H93.8402V20.5496V19.3062H91.7678H89.6954V17.0956V14.8851H88.1756H86.6835L86.6006 17.0127Z" fill="white"/>
<path d="M95.7812 24.1414V33.4258L97.3286 33.3429L98.876 33.26V26.352L98.8484 19.4439L101.197 26.4072L103.574 33.3981H105.121H106.696L108.934 26.5454L111.2 19.7203L111.228 26.573L111.255 33.4258L112.858 33.3429L114.433 33.26V30.9665C114.433 29.7231 114.378 25.5783 114.35 21.7927L114.295 14.8846H112.112H109.901L107.663 21.7098C106.447 25.4954 105.37 28.756 105.259 28.977C105.176 29.1981 104.016 26.1585 102.717 22.2071L100.285 15.0228L98.0471 14.9399L95.7812 14.857V24.1414Z" fill="white"/>
<path d="M132.774 15.0228C132.774 15.1057 132.746 19.2229 132.746 24.1967L132.719 33.26L134.294 33.3429L135.841 33.4258V31.1876C135.841 29.0323 135.869 28.9494 136.808 27.927C137.61 27.0704 137.831 26.9875 138.052 27.3191C138.19 27.5401 139.102 28.977 140.069 30.4968L141.81 33.26L143.523 33.3429C144.462 33.3981 145.236 33.3429 145.236 33.2324C145.236 33.1495 144.048 31.1599 142.583 28.8112L139.931 24.5559L141.589 22.7045C142.501 21.6545 143.495 20.5768 143.827 20.3005C144.131 19.9966 144.407 19.665 144.407 19.5268C144.407 19.4163 143.606 19.3058 142.666 19.3058H140.898L138.439 22.1242L135.979 24.9427L135.896 19.9137L135.841 14.8846H134.321C133.492 14.8846 132.802 14.9399 132.774 15.0228Z" fill="white"/>
<path d="M120.703 19.3854C119.073 19.9933 117.332 22.1486 117.332 23.5578C117.332 23.8065 117.774 24.0828 118.382 24.2486C119.874 24.6907 120.012 24.6355 120.206 23.7236C120.454 22.4249 121.615 21.513 123.024 21.513C123.66 21.513 124.406 21.5959 124.654 21.6788C125.235 21.9275 125.898 23.2262 125.898 24.221C125.898 24.9118 125.76 25.0499 125.041 25.2157C124.571 25.2986 123.577 25.3815 122.886 25.3815C119.542 25.3815 117.359 26.846 117.111 29.1948C116.945 31.0737 117.608 32.3725 119.1 33.1185C121.698 34.362 124.544 33.5606 126.312 31.0461C126.699 30.4935 126.699 30.4935 126.727 31.1014C126.727 32.2896 127.335 33.1185 128.412 33.4501C129.462 33.7541 131.203 33.5054 131.176 33.0356C131.148 32.9251 131.148 32.483 131.148 32.0409C131.148 31.3224 131.037 31.2119 130.264 31.129L129.352 31.0461L129.186 26.9013C128.965 21.5683 128.578 20.6012 126.312 19.5511C125.041 18.9709 122.14 18.888 120.703 19.3854ZM125.815 28.2C125.594 29.8579 124.157 31.1843 122.554 31.1843C121.145 31.1843 120.482 30.8251 120.261 29.9685C119.791 28.1171 121.256 27.1776 124.765 27.0671L125.981 27.0395L125.815 28.2Z" fill="white"/>
<path d="M149.157 19.7449C146.753 20.9331 145.758 22.895 145.758 26.4043C145.758 28.8635 146.532 30.8254 148.051 32.1241C151.036 34.6939 156.175 33.9202 157.833 30.632C158.69 28.9741 158.662 28.7806 157.501 28.5872C156.976 28.4767 156.341 28.3109 156.147 28.2556C155.899 28.1451 155.622 28.4491 155.346 29.0846C154.904 30.1623 153.495 31.1846 152.417 31.1846C150.842 31.1846 149.101 29.3886 149.101 27.7306V27.0398H153.826H158.579L158.441 25.299C158.248 22.9779 157.198 20.9331 155.678 19.9384C154.766 19.3305 154.158 19.1647 152.583 19.0818C150.897 18.9989 150.428 19.0818 149.157 19.7449ZM153.633 21.7897C154.407 22.066 155.015 22.9226 155.291 24.0556L155.457 24.8293H152.279C150.538 24.8293 149.101 24.7187 149.101 24.5806C149.101 24.47 149.239 23.945 149.405 23.4753C149.958 21.9003 151.92 21.1266 153.633 21.7897Z" fill="white"/>
<path d="M165.798 19.5545C165.3 19.8584 164.72 20.3834 164.471 20.715C164.029 21.3505 164.029 21.3505 164.029 20.3282V19.3058H162.454H160.852L160.879 26.2691L160.907 33.26L162.482 33.3429L164.029 33.4258L164.057 29.3362C164.057 26.9322 164.195 24.8598 164.388 24.2795C164.831 23.0085 166.267 22.069 167.787 22.069H169.003V20.5492V19.0294H167.842C167.152 19.0294 166.267 19.2505 165.798 19.5545Z" fill="white"/>
<path d="M79.6448 26.2691L79.6725 33.26L81.2475 33.3429L82.7949 33.4258V26.352V19.3058H81.2199H79.6172L79.6448 26.2691Z" fill="white"/>
<defs>
<clipPath id="clip0_2602_100779">
<path d="M12.1875 14.4819C17.65 7.58186 27.6717 6.41644 34.5717 11.8789C41.4718 17.3413 42.6372 27.363 37.1748 34.2631L19.3441 56.7866L-5.64317 37.0054L12.1875 14.4819Z" fill="white"/>
</clipPath>
</defs>
</svg>
