<svg width="198" height="36" viewBox="0 0 198 36" fill="none" xmlns="http://www.w3.org/2000/svg">
<g clip-path="url(#clip0_2602_100798)">
<path fill-rule="evenodd" clip-rule="evenodd" d="M173.428 0H180.348C190.467 0 197.905 7.70791 197.905 17.9907C197.905 28.2735 190.454 35.9772 180.348 35.9772H173.428C163.298 35.9772 155.836 28.2651 155.836 17.9907C155.836 7.71625 163.298 0 173.428 0ZM173.428 30.4978H180.348C187.233 30.4978 192.34 25.1477 192.34 17.9782C192.34 10.8086 187.221 5.45854 180.348 5.45854H173.428C166.531 5.45854 161.392 10.8545 161.392 17.9782C161.392 25.1019 166.544 30.4978 173.428 30.4978Z" fill="white"/>
<path d="M34.6063 22.5326C33.1139 27.4528 29.1663 30.4408 24.0711 30.4408H17.1427C10.467 30.4408 5.56847 25.2369 5.56847 18.0047C5.56847 10.7725 10.467 5.54352 17.1427 5.54352H24.0711C29.0058 5.54352 32.8972 8.33121 34.502 12.9551H40.0344C38.2812 5.14706 31.9626 0.0390625 24.0711 0.0390625H17.1427C7.27752 0.0390625 0 7.63429 0 18.0047C0 28.3752 7.27752 35.9495 17.1427 35.9495H24.0711C32.095 35.9495 38.4217 30.6996 40.1507 22.541L34.6063 22.5326Z" fill="white"/>
<path d="M51.3903 29.9565V20.2497H70.9682V15.0332H51.3903V5.97318H72.2039V0.652344H45.9141V35.3275H72.7254V29.9565H51.3903Z" fill="white"/>
<path fill-rule="evenodd" clip-rule="evenodd" d="M79.3203 0.652344H98.0116C107.817 0.652344 114.91 7.92206 114.91 17.9795C114.91 28.0369 107.804 35.3275 98.0116 35.3275H79.3203V0.652344ZM84.7964 30.0192H97.847C104.583 30.0192 109.317 24.9863 109.317 17.9795C109.317 10.9727 104.583 5.96483 97.847 5.96483H84.7964V30.0192Z" fill="white"/>
<path fill-rule="evenodd" clip-rule="evenodd" d="M144.468 21.6936C146.471 20.9661 148.202 19.6024 149.419 17.7955C150.636 15.9885 151.276 13.8296 151.249 11.6237C151.249 5.23034 146.478 0.652344 140.056 0.652344H120.141V35.3275H125.617V22.4949H138.856L146.017 35.3275H152.164L144.468 21.6936ZM139.735 17.174H125.617V5.97318H139.735C143.346 5.97318 145.68 8.35607 145.68 11.5736C145.68 14.7912 143.361 17.174 139.735 17.174Z" fill="white"/>
</g>
<defs>
<clipPath id="clip0_2602_100798">
<rect width="198" height="36" fill="white"/>
</clipPath>
</defs>
</svg>
