<svg xmlns="http://www.w3.org/2000/svg" width="105" height="20" viewBox="0 0 105 20" fill="none">
<path d="M90.6897 14.8276V4.28235H92.7401V8.04642H92.828C92.9745 7.82184 93.1893 7.60215 93.4724 7.38734C93.7654 7.16276 94.1218 6.98213 94.5416 6.84543C94.9615 6.69897 95.4204 6.62574 95.9183 6.62574C97.051 6.62574 97.92 6.91378 98.5254 7.48986C99.1307 8.05618 99.4334 8.84219 99.4334 9.8479V14.8276H97.383V10.0969C97.383 9.51103 97.2023 9.05212 96.8411 8.72014C96.4798 8.3784 95.9672 8.20752 95.3032 8.20752C94.8638 8.20752 94.4684 8.28075 94.1169 8.42722C93.7654 8.56391 93.4724 8.74455 93.2381 8.96913C93.0038 9.18394 92.8378 9.39875 92.7401 9.61356V14.8276H90.6897Z" fill="white"/>
<path d="M85.6694 14.9741C84.6539 14.9741 83.7702 14.7934 83.0184 14.4321C82.2666 14.0611 81.6905 13.5583 81.2902 12.9236C80.8898 12.2889 80.6897 11.581 80.6897 10.7999C80.6897 10.0188 80.8947 9.31087 81.3048 8.6762C81.7149 8.04153 82.3056 7.54356 83.077 7.18229C83.8581 6.81125 84.7759 6.62573 85.8305 6.62573C86.5432 6.62573 87.2072 6.71849 87.8223 6.90401C88.4375 7.07976 88.9501 7.28481 89.3602 7.51915V9.2474C88.9403 8.96424 88.4326 8.72502 87.837 8.52974C87.2414 8.33445 86.6067 8.23681 85.933 8.23681C85.2593 8.23681 84.6881 8.34422 84.2194 8.55903C83.7507 8.77384 83.3992 9.07653 83.1649 9.46709C82.9305 9.84789 82.8134 10.2922 82.8134 10.7999C82.8134 11.2979 82.9256 11.7421 83.1502 12.1327C83.3846 12.5233 83.7263 12.8259 84.1754 13.0408C84.6246 13.2556 85.1616 13.363 85.7865 13.363C86.4407 13.363 87.0607 13.2702 87.6466 13.0847C88.2422 12.8992 88.7158 12.6844 89.0673 12.4403V14.1685C88.706 14.3736 88.2227 14.5591 87.6173 14.7251C87.0119 14.8911 86.3626 14.9741 85.6694 14.9741Z" fill="white"/>
<path d="M75.471 14.9741C74.4067 14.9741 73.4889 14.7885 72.7175 14.4175C71.9461 14.0465 71.3554 13.5485 70.9453 12.9236C70.545 12.2889 70.3448 11.581 70.3448 10.7999C70.3448 10.0188 70.5352 9.31087 70.916 8.6762C71.3066 8.04153 71.8583 7.54356 72.571 7.18229C73.2838 6.81125 74.104 6.62573 75.0316 6.62573C75.9397 6.62573 76.7403 6.80637 77.4336 7.16764C78.1268 7.52891 78.659 8.02688 79.03 8.66155C79.4108 9.29622 79.6012 10.009 79.6012 10.7999V11.2979H72.4099C72.4978 11.6884 72.6785 12.0351 72.9518 12.3377C73.235 12.6404 73.606 12.8748 74.065 13.0408C74.5336 13.2067 75.0755 13.2897 75.6907 13.2897C76.3254 13.2897 76.9356 13.1921 77.5215 12.9968C78.1073 12.8015 78.5565 12.5867 78.8689 12.3524V14.1246C78.5467 14.3394 78.078 14.5347 77.4629 14.7104C76.8477 14.8862 76.1838 14.9741 75.471 14.9741ZM77.5068 10.1262C77.458 9.78442 77.3311 9.46221 77.126 9.15952C76.9307 8.85683 76.6573 8.61273 76.3058 8.42721C75.9543 8.23193 75.5393 8.13429 75.0609 8.13429C74.5922 8.13429 74.1675 8.22217 73.7867 8.39792C73.4059 8.56391 73.0983 8.79825 72.864 9.10094C72.6296 9.40362 72.4783 9.74537 72.4099 10.1262H77.5068Z" fill="white"/>
<path d="M68.3334 14.974C67.3765 14.974 66.6296 14.7153 66.0926 14.1978C65.5653 13.6705 65.3017 12.904 65.3017 11.8983V7.94385H63.7931V6.77216H64.5254C64.789 6.77216 64.9843 6.70381 65.1113 6.56711C65.2382 6.43042 65.3017 6.21561 65.3017 5.92268V4.82422H67.3521V6.77216H69.7687V7.94385H67.3521V11.913C67.3521 12.3524 67.4693 12.6941 67.7036 12.9382C67.938 13.1725 68.2602 13.2897 68.6703 13.2897C69.0901 13.2897 69.4563 13.2311 69.7687 13.114V14.769C69.4856 14.8471 69.2415 14.9008 69.0364 14.9301C68.8314 14.9594 68.5971 14.974 68.3334 14.974Z" fill="white"/>
<path d="M47.1614 14.9741C46.351 14.9741 45.5992 14.8813 44.9059 14.6958C44.2126 14.5103 43.6952 14.3101 43.3534 14.0953V12.3231C43.7147 12.5574 44.2419 12.7771 44.9352 12.9822C45.6284 13.1872 46.3363 13.2897 47.0589 13.2897C47.7326 13.2897 48.2111 13.2165 48.4942 13.0701C48.7774 12.9138 48.919 12.7137 48.919 12.4696C48.919 12.2547 48.8164 12.0839 48.6114 11.9569C48.4161 11.8202 48.172 11.7177 47.8791 11.6494C47.5959 11.5713 47.1761 11.4883 46.6195 11.4004C45.8188 11.2735 45.1695 11.1416 44.6716 11.0049C44.1736 10.8585 43.744 10.6193 43.3827 10.2873C43.0214 9.9553 42.8408 9.50127 42.8408 8.92518C42.8408 8.50533 42.9824 8.12452 43.2655 7.78278C43.5487 7.43127 43.9978 7.15299 44.613 6.94795C45.2281 6.73314 46.0092 6.62573 46.9564 6.62573C47.757 6.62573 48.5284 6.71849 49.2705 6.90401C50.0223 7.08953 50.5789 7.29457 50.9401 7.51915V9.32063C50.53 9.06676 49.9442 8.83731 49.1826 8.63226C48.4307 8.41745 47.6887 8.31004 46.9564 8.31004C46.2338 8.31004 45.7212 8.39304 45.4185 8.55903C45.1158 8.71525 44.9645 8.92518 44.9645 9.18881C44.9645 9.3841 45.0572 9.54032 45.2428 9.65749C45.4283 9.77466 45.6626 9.86742 45.9458 9.93577C46.2387 10.0041 46.6439 10.0773 47.1614 10.1555C47.9816 10.2922 48.6456 10.4337 49.1533 10.5802C49.661 10.7267 50.1004 10.9708 50.4714 11.3125C50.8522 11.6543 51.0427 12.1278 51.0427 12.7332C51.0427 13.114 50.9011 13.4753 50.6179 13.817C50.3348 14.1587 49.9002 14.437 49.3144 14.6518C48.7383 14.8666 48.0207 14.9741 47.1614 14.9741Z" fill="white"/>
<path d="M37.8053 14.9741C36.741 14.9741 35.8232 14.7885 35.0518 14.4175C34.2805 14.0465 33.6897 13.5485 33.2796 12.9236C32.8793 12.2889 32.6791 11.581 32.6791 10.7999C32.6791 10.0188 32.8696 9.31087 33.2504 8.6762C33.6409 8.04153 34.1926 7.54356 34.9054 7.18229C35.6182 6.81125 36.4383 6.62573 37.3659 6.62573C38.274 6.62573 39.0746 6.80637 39.7679 7.16764C40.4612 7.52891 40.9933 8.02688 41.3643 8.66155C41.7451 9.29622 41.9355 10.009 41.9355 10.7999V11.2979H34.7443C34.8321 11.6884 35.0128 12.0351 35.2862 12.3377C35.5693 12.6404 35.9404 12.8748 36.3993 13.0408C36.868 13.2067 37.4099 13.2897 38.025 13.2897C38.6597 13.2897 39.2699 13.1921 39.8558 12.9968C40.4416 12.8015 40.8908 12.5867 41.2032 12.3524V14.1246C40.881 14.3394 40.4123 14.5347 39.7972 14.7104C39.1821 14.8862 38.5181 14.9741 37.8053 14.9741ZM39.8411 10.1262C39.7923 9.78442 39.6654 9.46221 39.4603 9.15952C39.265 8.85683 38.9917 8.61273 38.6401 8.42721C38.2886 8.23193 37.8737 8.13429 37.3952 8.13429C36.9265 8.13429 36.5018 8.22217 36.121 8.39792C35.7402 8.56391 35.4326 8.79825 35.1983 9.10094C34.964 9.40362 34.8126 9.74537 34.7443 10.1262H39.8411Z" fill="white"/>
<path d="M26.3345 14.9741C25.4655 14.9741 24.6941 14.7934 24.0204 14.4321C23.3565 14.0709 22.839 13.5778 22.4679 12.9529C22.0969 12.3182 21.9114 11.6006 21.9114 10.7999C21.9114 9.99924 22.0969 9.28646 22.4679 8.66156C22.839 8.02689 23.3565 7.52892 24.0204 7.16765C24.6941 6.80637 25.4655 6.62574 26.3345 6.62574C27.0375 6.62574 27.6771 6.75267 28.2532 7.00654C28.839 7.25064 29.2686 7.52404 29.542 7.82672H29.6299V4.28235H31.6804V14.8276H29.6299V13.7731H29.542C29.2686 14.0758 28.839 14.354 28.2532 14.6079C27.6771 14.852 27.0375 14.9741 26.3345 14.9741ZM26.9936 13.363C27.5794 13.363 28.1116 13.2507 28.59 13.0261C29.0685 12.7918 29.4151 12.5379 29.6299 12.2645V9.33528C29.4932 9.15953 29.2979 8.98865 29.0441 8.82266C28.7902 8.65667 28.4826 8.51998 28.1213 8.41257C27.7698 8.2954 27.3939 8.23682 26.9936 8.23682C26.3785 8.23682 25.8463 8.3491 25.3972 8.57368C24.9578 8.78849 24.6209 9.09118 24.3866 9.48174C24.1522 9.86254 24.0351 10.3019 24.0351 10.7999C24.0351 11.2979 24.1522 11.7421 24.3866 12.1327C24.6209 12.5135 24.9578 12.8162 25.3972 13.0408C25.8463 13.2556 26.3785 13.363 26.9936 13.363Z" fill="white"/>
<path d="M15.8451 14.9741C14.7711 14.9741 13.8435 14.7934 13.0623 14.4321C12.291 14.0611 11.7002 13.5583 11.2901 12.9236C10.8898 12.2889 10.6897 11.581 10.6897 10.7999C10.6897 10.0188 10.8898 9.31087 11.2901 8.6762C11.7002 8.04153 12.291 7.54356 13.0623 7.18229C13.8435 6.81125 14.7711 6.62573 15.8451 6.62573C16.9192 6.62573 17.8419 6.81125 18.6132 7.18229C19.3944 7.54356 19.9851 8.04153 20.3854 8.6762C20.7955 9.31087 21.0006 10.0188 21.0006 10.7999C21.0006 11.581 20.7955 12.2889 20.3854 12.9236C19.9851 13.5583 19.3944 14.0611 18.6132 14.4321C17.8419 14.7934 16.9192 14.9741 15.8451 14.9741ZM15.8451 13.363C16.4895 13.363 17.0363 13.2556 17.4855 13.0408C17.9444 12.8259 18.291 12.5233 18.5254 12.1327C18.7597 11.7421 18.8769 11.2979 18.8769 10.7999C18.8769 10.3019 18.7597 9.85766 18.5254 9.46709C18.291 9.07653 17.9444 8.77384 17.4855 8.55903C17.0363 8.34422 16.4895 8.23681 15.8451 8.23681C15.2007 8.23681 14.649 8.34422 14.1901 8.55903C13.7409 8.77384 13.3992 9.07653 13.1649 9.46709C12.9305 9.85766 12.8134 10.3019 12.8134 10.7999C12.8134 11.2979 12.9305 11.7421 13.1649 12.1327C13.3992 12.5233 13.7409 12.8259 14.1901 13.0408C14.649 13.2556 15.2007 13.363 15.8451 13.363Z" fill="white"/>
<path d="M1.24492 14.8275V4.5752H3.29539V12.9967H10.3256V14.8275H1.24492Z" fill="white"/>
<path d="M54.8282 11.9324L55.4736 11.6653" stroke="white" stroke-width="1.39859" stroke-linecap="round" stroke-linejoin="round"/>
<path d="M55.4743 10.0588L54.8282 9.79102" stroke="white" stroke-width="1.39859" stroke-linecap="round" stroke-linejoin="round"/>
<path d="M56.6076 8.9234L56.3397 8.27795" stroke="white" stroke-width="1.39859" stroke-linecap="round" stroke-linejoin="round"/>
<path d="M56.6076 12.8008L56.3397 13.4469" stroke="white" stroke-width="1.39859" stroke-linecap="round" stroke-linejoin="round"/>
<path d="M58.215 8.9234L58.4828 8.27795" stroke="white" stroke-width="1.39859" stroke-linecap="round" stroke-linejoin="round"/>
<path d="M58.4821 13.4469L58.215 12.8008" stroke="white" stroke-width="1.39859" stroke-linecap="round" stroke-linejoin="round"/>
<path d="M59.3519 10.0588L59.9973 9.79102" stroke="white" stroke-width="1.39859" stroke-linecap="round" stroke-linejoin="round"/>
<path d="M59.3519 11.6653L59.9973 11.9331" stroke="white" stroke-width="1.39859" stroke-linecap="round" stroke-linejoin="round"/>
<path d="M57.4109 12.9601C58.5695 12.9601 59.5088 12.0208 59.5088 10.8622C59.5088 9.70354 58.5695 8.76428 57.4109 8.76428C56.2523 8.76428 55.313 9.70354 55.313 10.8622C55.313 12.0208 56.2523 12.9601 57.4109 12.9601Z" stroke="white" stroke-width="1.39859" stroke-linecap="round" stroke-linejoin="round"/>
</svg>
