<svg width="179" height="25" viewBox="0 0 179 25" fill="none" xmlns="http://www.w3.org/2000/svg">
<path d="M0 24.6391V0H5.23968V20.3441H15.8642V24.6391H0Z" fill="white"/>
<path d="M27.2946 25C25.4149 25 23.7894 24.603 22.418 23.809C21.0546 23.0069 20.0018 21.892 19.2596 20.4644C18.5174 19.0287 18.1463 17.3645 18.1463 15.4716C18.1463 13.5627 18.5174 11.8945 19.2596 10.4668C20.0018 9.03112 21.0546 7.91627 22.418 7.12223C23.7894 6.32018 25.4149 5.91915 27.2946 5.91915C29.1743 5.91915 30.7958 6.32018 32.1592 7.12223C33.5306 7.91627 34.5874 9.03112 35.3296 10.4668C36.0718 11.8945 36.4429 13.5627 36.4429 15.4716C36.4429 17.3645 36.0718 19.0287 35.3296 20.4644C34.5874 21.892 33.5306 23.0069 32.1592 23.809C30.7958 24.603 29.1743 25 27.2946 25ZM27.3188 21.0298C28.1739 21.0298 28.8879 20.7892 29.4607 20.308C30.0334 19.8187 30.465 19.153 30.7555 18.3109C31.0539 17.4687 31.2032 16.5103 31.2032 15.4355C31.2032 14.3608 31.0539 13.4023 30.7555 12.5602C30.465 11.718 30.0334 11.0523 29.4607 10.563C28.8879 10.0738 28.1739 9.82916 27.3188 9.82916C26.4556 9.82916 25.7296 10.0738 25.1406 10.563C24.5598 11.0523 24.1201 11.718 23.8217 12.5602C23.5312 13.4023 23.386 14.3608 23.386 15.4355C23.386 16.5103 23.5312 17.4687 23.8217 18.3109C24.1201 19.153 24.5598 19.8187 25.1406 20.308C25.7296 20.7892 26.4556 21.0298 27.3188 21.0298Z" fill="white"/>
<path d="M46.3031 24.9398C44.8914 24.9398 43.6127 24.5789 42.4672 23.8571C41.3297 23.1272 40.4261 22.0565 39.7566 20.6448C39.095 19.2252 38.7643 17.4848 38.7643 15.4235C38.7643 13.3061 39.1071 11.5456 39.7929 10.142C40.4786 8.73035 41.3902 7.67565 42.5277 6.97786C43.6732 6.27206 44.9277 5.91915 46.291 5.91915C47.3317 5.91915 48.1989 6.09561 48.8927 6.44851C49.5946 6.79339 50.1593 7.2265 50.5868 7.74783C51.0225 8.26115 51.3532 8.76644 51.5791 9.26371H51.7364V0H56.8793V24.6391H51.7969V21.6795H51.5791C51.3371 22.1928 50.9942 22.7021 50.5505 23.2074C50.1149 23.7047 49.5462 24.1177 48.8443 24.4466C48.1505 24.7754 47.3035 24.9398 46.3031 24.9398ZM47.9368 20.8614C48.7677 20.8614 49.4695 20.6368 50.0423 20.1877C50.6231 19.7305 51.0668 19.0929 51.3734 18.2748C51.688 17.4567 51.8453 16.4982 51.8453 15.3994C51.8453 14.3006 51.6921 13.3462 51.3855 12.5361C51.0789 11.726 50.6352 11.1004 50.0544 10.6593C49.4736 10.2182 48.7677 9.99759 47.9368 9.99759C47.0897 9.99759 46.3757 10.2262 45.7949 10.6833C45.2141 11.1405 44.7744 11.7741 44.4759 12.5842C44.1774 13.3943 44.0282 14.3327 44.0282 15.3994C44.0282 16.4742 44.1774 17.4246 44.4759 18.2507C44.7825 19.0688 45.2221 19.7105 45.7949 20.1756C46.3757 20.6328 47.0897 20.8614 47.9368 20.8614Z" fill="white"/>
<path d="M69.2475 25C67.3355 25 65.6898 24.615 64.3103 23.845C62.9389 23.0671 61.8821 21.9682 61.1399 20.5486C60.3977 19.121 60.0266 17.4326 60.0266 15.4836C60.0266 13.5828 60.3977 11.9145 61.1399 10.4788C61.8821 9.04315 62.9268 7.92429 64.274 7.12223C65.6293 6.32018 67.2186 5.91915 69.0418 5.91915C70.268 5.91915 71.4095 6.11566 72.4663 6.50866C73.5312 6.89365 74.4589 7.47514 75.2495 8.25313C76.0482 9.03112 76.6693 10.0096 77.113 11.1886C77.5567 12.3596 77.7786 13.7312 77.7786 15.3032V16.7108H62.0838V13.5346H72.9261C72.9261 12.7968 72.7648 12.1431 72.4421 11.5736C72.1194 11.0042 71.6717 10.559 71.0989 10.2382C70.5342 9.90937 69.8767 9.74495 69.1265 9.74495C68.3439 9.74495 67.6502 9.92541 67.0451 10.2863C66.4481 10.6392 65.9802 11.1165 65.6414 11.718C65.3026 12.3115 65.1291 12.9732 65.1211 13.7031V16.7228C65.1211 17.6372 65.2905 18.4272 65.6293 19.0929C65.9762 19.7586 66.4643 20.2719 67.0935 20.6328C67.7228 20.9937 68.469 21.1742 69.3322 21.1742C69.905 21.1742 70.4293 21.094 70.9053 20.9336C71.3813 20.7732 71.7887 20.5326 72.1275 20.2117C72.4663 19.8909 72.7245 19.4979 72.9019 19.0327L77.6697 19.3455C77.4277 20.4844 76.9315 21.479 76.1813 22.3292C75.4391 23.1713 74.4791 23.829 73.3013 24.3022C72.1315 24.7674 70.7803 25 69.2475 25Z" fill="white"/>
<path d="M96.2668 11.4293L91.5474 11.718C91.4668 11.317 91.2933 10.956 91.0271 10.6352C90.7609 10.3064 90.41 10.0457 89.9743 9.85322C89.5468 9.65271 89.0345 9.55245 88.4375 9.55245C87.6389 9.55245 86.9652 9.72089 86.4167 10.0577C85.8681 10.3866 85.5938 10.8277 85.5938 11.3811C85.5938 11.8223 85.7713 12.1952 86.1263 12.5C86.4812 12.8048 87.0903 13.0494 87.9535 13.2339L91.3175 13.9076C93.1246 14.2765 94.4718 14.8701 95.3592 15.6882C96.2466 16.5063 96.6903 17.581 96.6903 18.9124C96.6903 20.1235 96.3313 21.1862 95.6133 22.1006C94.9034 23.0149 93.9273 23.7287 92.6849 24.2421C91.4506 24.7474 90.0268 25 88.4133 25C85.9528 25 83.9925 24.4907 82.5323 23.4721C81.0802 22.4455 80.2291 21.0499 79.979 19.2854L85.0493 19.0207C85.2026 19.7666 85.5736 20.3361 86.1626 20.7291C86.7515 21.1141 87.5058 21.3065 88.4254 21.3065C89.3289 21.3065 90.055 21.1341 90.6036 20.7892C91.1602 20.4363 91.4426 19.9832 91.4506 19.4297C91.4426 18.9646 91.2449 18.5836 90.8577 18.2868C90.4705 17.982 89.8735 17.7494 89.0668 17.589L85.8479 16.9514C84.0328 16.5905 82.6815 15.9649 81.7941 15.0746C80.9148 14.1843 80.4751 13.0494 80.4751 11.6699C80.4751 10.4828 80.7978 9.46022 81.4432 8.60202C82.0967 7.74382 83.0123 7.08213 84.1901 6.61694C85.376 6.15175 86.7636 5.91915 88.3528 5.91915C90.7004 5.91915 92.5478 6.41242 93.895 7.39894C95.2503 8.38547 96.0409 9.72891 96.2668 11.4293Z" fill="white"/>
<path d="M102.609 24.9519C101.81 24.9519 101.124 24.6712 100.552 24.1097C99.9869 23.5403 99.7045 22.8585 99.7045 22.0645C99.7045 21.2785 99.9869 20.6047 100.552 20.0433C101.124 19.4819 101.81 19.2012 102.609 19.2012C103.383 19.2012 104.061 19.4819 104.642 20.0433C105.223 20.6047 105.513 21.2785 105.513 22.0645C105.513 22.5938 105.376 23.0791 105.102 23.5202C104.835 23.9533 104.484 24.3022 104.049 24.5669C103.613 24.8235 103.133 24.9519 102.609 24.9519Z" fill="white"/>
<path d="M119.291 6.15977V10.0096H108.098V6.15977H119.291ZM110.639 1.73244H115.794V18.9605C115.794 19.4338 115.866 19.8027 116.012 20.0674C116.157 20.324 116.358 20.5045 116.617 20.6088C116.883 20.713 117.189 20.7652 117.536 20.7652C117.778 20.7652 118.02 20.7451 118.262 20.705C118.504 20.6569 118.69 20.6208 118.819 20.5967L119.63 24.4105C119.372 24.4907 119.009 24.5829 118.541 24.6872C118.073 24.7995 117.504 24.8677 116.834 24.8917C115.592 24.9398 114.503 24.7754 113.567 24.3985C112.639 24.0215 111.917 23.436 111.401 22.642C110.885 21.8479 110.631 20.8454 110.639 19.6343V1.73244Z" fill="white"/>
<path d="M130.579 25C128.667 25 127.021 24.615 125.642 23.845C124.27 23.0671 123.214 21.9682 122.471 20.5486C121.729 19.121 121.358 17.4326 121.358 15.4836C121.358 13.5828 121.729 11.9145 122.471 10.4788C123.214 9.04315 124.258 7.92429 125.606 7.12223C126.961 6.32018 128.55 5.91915 130.373 5.91915C131.6 5.91915 132.741 6.11566 133.798 6.50866C134.863 6.89365 135.79 7.47514 136.581 8.25313C137.38 9.03112 138.001 10.0096 138.445 11.1886C138.888 12.3596 139.11 13.7312 139.11 15.3032V16.7108H123.415V13.5346H134.258C134.258 12.7968 134.096 12.1431 133.774 11.5736C133.451 11.0042 133.003 10.559 132.43 10.2382C131.866 9.90937 131.208 9.74495 130.458 9.74495C129.676 9.74495 128.982 9.92541 128.377 10.2863C127.78 10.6392 127.312 11.1165 126.973 11.718C126.634 12.3115 126.461 12.9732 126.453 13.7031V16.7228C126.453 17.6372 126.622 18.4272 126.961 19.0929C127.308 19.7586 127.796 20.2719 128.425 20.6328C129.054 20.9937 129.801 21.1742 130.664 21.1742C131.237 21.1742 131.761 21.094 132.237 20.9336C132.713 20.7732 133.12 20.5326 133.459 20.2117C133.798 19.8909 134.056 19.4979 134.234 19.0327L139.001 19.3455C138.759 20.4844 138.263 21.479 137.513 22.3292C136.771 23.1713 135.811 23.829 134.633 24.3022C133.463 24.7674 132.112 25 130.579 25Z" fill="white"/>
<path d="M150.531 25C148.628 25 146.99 24.599 145.618 23.7969C144.255 22.9868 143.206 21.864 142.472 20.4283C141.746 18.9926 141.383 17.3404 141.383 15.4716C141.383 13.5788 141.75 11.9185 142.484 10.4909C143.227 9.05518 144.279 7.93632 145.643 7.13426C147.006 6.32419 148.628 5.91915 150.507 5.91915C152.129 5.91915 153.549 6.2119 154.767 6.7974C155.985 7.3829 156.949 8.205 157.659 9.26371C158.369 10.3224 158.76 11.5656 158.833 12.9933H153.968C153.831 12.0709 153.468 11.329 152.879 10.7676C152.298 10.1981 151.536 9.91338 150.592 9.91338C149.793 9.91338 149.095 10.1299 148.498 10.563C147.91 10.9881 147.45 11.6097 147.119 12.4278C146.788 13.2459 146.623 14.2364 146.623 15.3994C146.623 16.5784 146.784 17.581 147.107 18.4071C147.438 19.2332 147.902 19.8628 148.498 20.296C149.095 20.7291 149.793 20.9456 150.592 20.9456C151.181 20.9456 151.709 20.8253 152.177 20.5847C152.653 20.3441 153.044 19.9952 153.351 19.538C153.666 19.0728 153.871 18.5154 153.968 17.8657H158.833C158.752 19.2773 158.365 20.5205 157.671 21.5953C156.985 22.662 156.037 23.4962 154.827 24.0977C153.617 24.6992 152.185 25 150.531 25Z" fill="white"/>
<path d="M166.947 13.9557V24.6391H161.792V0H166.802V9.42012H167.02C167.439 8.32932 168.117 7.47514 169.053 6.85755C169.989 6.23195 171.162 5.91915 172.574 5.91915C173.865 5.91915 174.99 6.19987 175.95 6.76131C176.918 7.31473 177.669 8.11277 178.201 9.15544C178.742 10.1901 179.008 11.4293 179 12.873V24.6391H173.845V13.7873C173.853 12.6484 173.562 11.7621 172.974 11.1285C172.393 10.4949 171.578 10.1781 170.529 10.1781C169.827 10.1781 169.206 10.3264 168.666 10.6232C168.133 10.92 167.714 11.3531 167.407 11.9225C167.109 12.484 166.955 13.1617 166.947 13.9557Z" fill="white"/>
</svg>
