<svg width="200" height="54" viewBox="0 0 200 54" fill="none" xmlns="http://www.w3.org/2000/svg">
<g clip-path="url(#clip0_2602_100805)">
<mask id="mask0_2602_100805" style="mask-type:luminance" maskUnits="userSpaceOnUse" x="0" y="0" width="200" height="54">
<path d="M200 0H0V54H200V0Z" fill="white"/>
</mask>
<g mask="url(#mask0_2602_100805)">
<path d="M63.5295 41.6312C62.6985 42.9932 61.752 44.2628 60.6902 45.4401C56.0965 50.5417 49.5175 53.8196 42.1768 54.0043L37.9062 37.4761L51.4797 29.7891L63.5295 41.6312Z" fill="url(#paint0_linear_2602_100805)"/>
<path d="M97.7854 11.0469H92.9609V36.9933H111.335V32.9075H97.7854V11.0469Z" fill="white"/>
<path d="M129.25 19.6121C127.657 17.8346 125.441 16.9805 122.901 16.9805C117.13 16.9805 112.906 20.951 112.906 27.0913C112.906 33.2547 117.13 37.2483 122.901 37.2483C125.602 37.2483 127.911 36.3249 129.457 34.432V36.9944H133.866V17.2113H129.226V19.6121H129.25ZM123.432 33.2778C120.085 33.2778 117.569 30.8771 117.569 27.0913C117.569 23.3055 120.085 20.9048 123.432 20.9048C126.803 20.9048 129.319 23.3055 129.319 27.0913C129.319 30.8771 126.803 33.2778 123.432 33.2778Z" fill="white"/>
<path d="M164.938 16.9805C161.799 16.9805 159.121 18.2501 157.528 20.2815C156.166 18.0655 153.743 16.9805 150.857 16.9805C148.156 16.9805 145.848 17.95 144.371 19.7275V17.2113H139.961V36.9944H144.601V26.9528C144.601 23.0285 146.679 21.0202 149.749 21.0202C152.565 21.0202 154.204 22.7284 154.204 26.2372V36.9944H158.821V26.9528C158.821 23.0285 160.945 21.0202 163.969 21.0202C166.785 21.0202 168.424 22.7284 168.424 26.2372V36.9944H173.064V25.6601C173.041 19.6813 169.717 16.9805 164.938 16.9805Z" fill="white"/>
<path d="M189.957 16.9805C187.256 16.9805 184.947 17.9039 183.401 19.7968V17.2113H178.992V44.1966H183.632V34.5936C185.224 36.4173 187.44 37.2714 189.98 37.2714C195.751 37.2714 200.021 33.2778 200.021 27.1144C199.998 20.974 195.728 16.9805 189.957 16.9805ZM189.426 33.2778C186.102 33.2778 183.539 30.8771 183.539 27.0913C183.539 23.3055 186.102 20.9048 189.426 20.9048C192.75 20.9048 195.289 23.3055 195.289 27.0913C195.289 30.8771 192.773 33.2778 189.426 33.2778Z" fill="white"/>
<path d="M24.3767 11L14.2659 28.1976L3.97045 11H0V36.9464H4.59372V19.9797L13.1117 33.9686H15.2585L23.7996 19.7488L23.8227 36.9464H28.3934L28.3472 11H24.3767Z" fill="white"/>
<path d="M84.1872 19.5652C82.5944 17.7877 80.3783 16.9336 77.8391 16.9336C72.0681 16.9336 67.8438 20.9041 67.8438 27.0444C67.8438 33.2079 72.0681 37.2014 77.8391 37.2014C80.5399 37.2014 82.8484 36.278 84.395 34.3851V36.9475H88.804V17.1645H84.1641V19.5652H84.1872ZM78.37 33.2309C75.0459 33.2309 72.5068 30.8302 72.5068 27.0444C72.5068 23.2586 75.0228 20.8579 78.37 20.8579C81.7403 20.8579 84.2564 23.2586 84.2564 27.0444C84.2564 30.8302 81.7403 33.2309 78.37 33.2309Z" fill="white"/>
<path d="M37.2783 19.0115L38.6403 21.3661C39.1019 21.4123 39.5174 21.6431 39.7945 22.0355C41.9874 21.4123 44.1573 22.174 45.5885 24.0439L47.8739 26.283L50.8979 24.5517C50.7132 24.1593 50.4593 23.6514 50.2746 23.3282C47.3429 18.2036 42.0798 16.7031 37.2783 19.0115ZM32.6846 33.3005C33.9773 35.5397 35.824 37.1094 37.9939 37.8481L35.8702 29.6071C35.0161 27.391 35.4547 25.175 37.0244 23.6053C36.8166 23.1667 36.8166 22.6819 37.0244 22.2433L35.6855 19.9118C31.2303 23.0051 29.8914 28.476 32.6846 33.3005Z" fill="white"/>
<path d="M52.3339 30.6212C51.6644 33.0219 49.887 35.0764 47.2323 36.6231C44.0005 38.4929 40.7688 38.816 37.9987 37.8465L35.875 29.6055L45.5933 23.9961L47.8787 26.2352L37.4447 32.2602C39.3837 34.4762 42.3847 34.8918 45.3625 33.1605C47.2785 32.0524 48.4558 30.575 48.9405 28.6129C49.0559 28.2205 49.1021 27.805 49.1252 27.4587L52.3339 30.6212Z" fill="white"/>
<path d="M62.4416 33.3914C60.7103 33.3914 59.6946 32.3526 59.6946 30.4366V20.9953H65.0039V17.3018H59.6946V12.7773H55.0547V30.529C55.0547 34.8918 57.5478 37.2002 61.8645 37.2002C63.5266 37.2002 65.2117 36.7616 66.3197 35.8614L65.027 32.5604C64.3345 33.1144 63.4111 33.3914 62.4416 33.3914Z" fill="white"/>
</g>
</g>
<defs>
<linearGradient id="paint0_linear_2602_100805" x1="45.3092" y1="34.3" x2="52.4188" y2="47.0405" gradientUnits="userSpaceOnUse">
<stop stop-color="white" stop-opacity="0.8"/>
<stop offset="1" stop-color="white" stop-opacity="0"/>
</linearGradient>
<clipPath id="clip0_2602_100805">
<rect width="200" height="54" fill="white"/>
</clipPath>
</defs>
</svg>
