<svg width="172" height="51" viewBox="0 0 172 51" fill="none" xmlns="http://www.w3.org/2000/svg">
<g clip-path="url(#clip0_2602_100820)">
<mask id="mask0_2602_100820" style="mask-type:luminance" maskUnits="userSpaceOnUse" x="0" y="0" width="172" height="51">
<path d="M172 0H0V50.5882H172V0Z" fill="white"/>
</mask>
<g mask="url(#mask0_2602_100820)">
<path d="M0 25.2941C0 13.3703 0 7.40847 3.70424 3.70424C7.40847 0 13.3703 0 25.2941 0C37.2179 0 43.1797 0 46.884 3.70424C50.5882 7.40847 50.5882 13.3703 50.5882 25.2941C50.5882 37.2179 50.5882 43.1797 46.884 46.884C43.1797 50.5882 37.2179 50.5882 25.2941 50.5882C13.3703 50.5882 7.40847 50.5882 3.70424 46.884C0 43.1797 0 37.2179 0 25.2941Z" fill="white"/>
<path d="M39.6852 19.8203H43.0045V24.0879H39.4639C38.4313 24.0879 37.5884 24.4251 36.935 25.0994C36.2817 25.7739 35.9551 26.6485 35.9551 27.7232V35.563H31.6875V19.8203H35.7338V22.2861H35.8919C36.503 20.6422 37.7674 19.8203 39.6852 19.8203Z" fill="black"/>
<path d="M24.5931 26.9975H29.24C28.9028 29.6106 27.7542 31.7707 25.7943 33.4778C23.8554 35.1638 21.4318 36.0067 18.5236 36.0067C15.2781 36.0067 12.6438 34.953 10.6207 32.8456C8.59751 30.7171 7.58594 28.1038 7.58594 25.0058C7.58594 21.8868 8.59751 19.263 10.6207 17.1345C12.6438 14.9849 15.2781 13.9102 18.5236 13.9102C21.3476 13.9102 23.729 14.7426 25.6678 16.4074C27.6277 18.0723 28.7973 20.1798 29.1767 22.7298H24.4982C24.1399 21.4021 23.4233 20.3379 22.3486 19.5371C21.2948 18.7152 20.0093 18.3147 18.492 18.3357C16.5953 18.3569 15.0674 19.0102 13.9083 20.2957C12.7492 21.5602 12.1696 23.1197 12.1696 24.9743C12.1696 26.8287 12.7492 28.3989 13.9083 29.6845C15.0674 30.9699 16.6163 31.6128 18.5552 31.6128C20.0936 31.6128 21.4002 31.1912 22.4751 30.3483C23.5709 29.5052 24.2769 28.3883 24.5931 26.9975Z" fill="black"/>
<path d="M165.726 20.1211C167.479 20.1211 168.86 20.6833 169.871 21.8073C170.88 22.9315 171.385 24.5036 171.385 26.5233V34.7545H167.527V27.0948C167.527 26.104 167.25 25.3228 166.698 24.7512C166.145 24.1795 165.449 23.8938 164.612 23.8938C163.715 23.8938 162.954 24.2177 162.326 24.8655C161.696 25.4943 161.382 26.3327 161.382 27.3806V34.7545H157.523V20.5212H161.267V22.2361H161.41C162.42 20.826 163.858 20.1211 165.726 20.1211Z" fill="white"/>
<path d="M153.744 33.037C152.334 34.466 150.485 35.1806 148.198 35.1806C145.912 35.1806 144.064 34.466 142.654 33.037C141.243 31.6079 140.539 29.8073 140.539 27.6352C140.539 25.4822 141.243 23.6911 142.654 22.262C144.064 20.8139 145.912 20.0898 148.198 20.0898C150.485 20.0898 152.334 20.8139 153.744 22.262C155.153 23.6911 155.858 25.4822 155.858 27.6352C155.858 29.8073 155.153 31.6079 153.744 33.037ZM148.198 31.4365C149.303 31.4365 150.209 31.0744 150.913 30.3504C151.638 29.6073 152 28.7022 152 27.6352C152 26.5491 151.647 25.6441 150.943 24.92C150.237 24.1769 149.322 23.8054 148.198 23.8054C147.074 23.8054 146.159 24.1769 145.455 24.92C144.749 25.6441 144.398 26.5491 144.398 27.6352C144.398 28.7213 144.749 29.6264 145.455 30.3504C146.159 31.0744 147.074 31.4365 148.198 31.4365Z" fill="white"/>
<path d="M139.672 20.5214V24.2368H133.813V29.9245C133.813 30.2675 133.917 30.5342 134.127 30.7248C134.336 30.9152 134.613 31.0106 134.956 31.0106H139.672V34.7546H134.241C132.926 34.7546 131.879 34.3831 131.097 33.64C130.335 32.8778 129.954 31.8585 129.954 30.5819V24.2368H127.953V20.5214H129.954V15.6055H133.813V20.5214H139.672Z" fill="white"/>
<path d="M120.624 20.0902C122.624 20.0711 124.254 20.7762 125.511 22.2052C126.788 23.6343 127.426 25.454 127.426 27.6642C127.426 29.8745 126.779 31.6845 125.482 33.0946C124.206 34.4855 122.596 35.1809 120.652 35.1809C119.642 35.1618 118.737 34.9428 117.937 34.5236C117.137 34.1044 116.508 33.5519 116.051 32.8659H115.908V40.4684H112.078V20.519H115.908V22.3481H116.051C116.508 21.6812 117.137 21.1382 117.937 20.719C118.757 20.2998 119.652 20.0902 120.624 20.0902ZM116.965 30.4079C117.67 31.1511 118.585 31.5227 119.709 31.5227C120.833 31.5227 121.748 31.1606 122.453 30.4365C123.177 29.6934 123.539 28.7598 123.539 27.6356C123.539 26.5114 123.177 25.5873 122.453 24.8632C121.748 24.1201 120.833 23.7486 119.709 23.7486C118.604 23.7486 117.689 24.1201 116.965 24.8632C116.26 25.6064 115.908 26.5305 115.908 27.6356C115.908 28.7217 116.26 29.6458 116.965 30.4079Z" fill="white"/>
<path d="M103.517 31.3232L107.004 20.5195H110.92L105.261 37.0678C104.88 38.154 104.298 38.9923 103.517 39.5829C102.736 40.1737 101.793 40.469 100.688 40.469H96.6292V36.6964H100.573C100.954 36.6964 101.278 36.6106 101.545 36.4391L95 20.5195H99.2299L103.517 31.3232Z" fill="white"/>
<path d="M91.6294 20.5195H94.6304V24.3779H91.4293C90.4957 24.3779 89.7336 24.6828 89.1429 25.2925C88.5522 25.9022 88.2569 26.6931 88.2569 27.6647V34.7528H84.3984V20.5195H88.0569V22.7488H88.1998C88.7523 21.2627 89.8955 20.5195 91.6294 20.5195Z" fill="white"/>
<path d="M78.275 27.0082H82.4763C82.1715 29.371 81.1331 31.3241 79.361 32.8674C77.6081 34.3917 75.4169 35.1538 72.7874 35.1538C69.8532 35.1538 67.4714 34.2011 65.6422 32.2957C63.8131 30.3713 62.8984 28.0086 62.8984 25.2077C62.8984 22.3876 63.8131 20.0154 65.6422 18.0911C67.4714 16.1476 69.8532 15.1758 72.7874 15.1758C75.3406 15.1758 77.4938 15.9284 79.2467 17.4337C81.0188 18.9389 82.0762 20.8443 82.4192 23.1499H78.1892C77.8653 21.9494 77.2174 20.9872 76.2458 20.2632C75.2931 19.52 74.1308 19.1581 72.7588 19.1771C71.044 19.1962 69.6626 19.7869 68.6147 20.9492C67.5666 22.0923 67.0426 23.5024 67.0426 25.1791C67.0426 26.8558 67.5666 28.2754 68.6147 29.4376C69.6626 30.6 71.063 31.1811 72.816 31.1811C74.2069 31.1811 75.3883 30.8 76.3601 30.0378C77.3509 29.2757 77.9892 28.2659 78.275 27.0082Z" fill="white"/>
</g>
</g>
<defs>
<clipPath id="clip0_2602_100820">
<rect width="172" height="50.5882" fill="white"/>
</clipPath>
</defs>
</svg>
