<svg width="80" height="80" viewBox="0 0 80 80" fill="none" xmlns="http://www.w3.org/2000/svg">
<g clip-path="url(#clip0_2602_100835)">
<path d="M37.6691 0.0729141C24.9758 0.859581 13.5358 7.47958 6.56242 18.0662C-0.0642456 28.1329 -1.77091 40.7662 1.94909 52.2662C3.91575 58.3396 7.18909 63.7062 11.6691 68.2062C16.5358 73.0929 22.3691 76.5462 28.9358 78.4329C37.8224 80.9796 47.3624 80.3862 55.7691 76.7462C61.8624 74.1129 67.1024 70.1262 71.2491 64.9662C74.9891 60.3062 77.7224 54.6129 79.0224 48.7662C80.8624 40.5129 80.0624 31.8996 76.7558 24.2329C71.2224 11.4262 59.5691 2.45958 45.8358 0.439583C43.0958 0.0395813 40.2491 -0.0870895 37.6691 0.0729141ZM64.4024 34.9329V50.1329H39.9358H15.4691V34.9329V19.7329H39.9358H64.4024V34.9329ZM27.8024 54.1262V55.3929L28.1358 55.1662C29.1891 54.4596 30.5024 55.0596 30.8424 56.3996C30.9891 56.9862 30.9491 58.2929 30.7624 58.7462C30.5491 59.2662 30.2491 59.6329 29.8958 59.8062C29.2891 60.1062 28.2824 59.9862 27.9424 59.5729C27.8024 59.4062 27.7358 59.4462 27.7358 59.6996V59.9396L27.2558 59.9196L26.7691 59.8996L26.7491 56.4662C26.7424 54.5796 26.7491 52.9929 26.7691 52.9462C26.7891 52.8929 26.9624 52.8662 27.3024 52.8662H27.8024V54.1262ZM23.8758 53.2396C24.0758 53.4196 24.0424 53.8196 23.8224 53.9929C23.4624 54.2862 23.0424 54.2462 22.8824 53.9129C22.7624 53.6662 22.8824 53.2996 23.1224 53.1662C23.3358 53.0462 23.7024 53.0796 23.8758 53.2396ZM62.6158 53.2462C62.7091 53.3262 62.7358 53.4329 62.7224 53.6262C62.7091 53.8462 62.6624 53.9196 62.4758 54.0462C62.2091 54.2262 61.9558 54.2396 61.7491 54.0929C61.6358 54.0129 61.6024 53.9262 61.6024 53.7062C61.6024 53.4129 61.6758 53.2662 61.9024 53.1396C62.0758 53.0396 62.4491 53.0929 62.6158 53.2462ZM19.9224 53.7129L19.9024 54.1662L18.3491 54.1862L16.7958 54.1996L16.8158 55.1862L16.8358 56.1662L18.1891 56.1862L19.5358 56.1996V56.6329V57.0662H18.1691H16.8024V58.4996V59.9329H16.2691H15.7358V56.5996V53.2662H17.8358H19.9424L19.9224 53.7129ZM35.2958 55.0929C35.7491 55.3129 36.1491 55.7596 36.3491 56.2596C36.4691 56.5729 36.4958 56.7662 36.4958 57.4329C36.5024 58.1129 36.4758 58.2862 36.3491 58.6062C36.1558 59.0929 35.7424 59.5596 35.3091 59.7862C35.0091 59.9462 34.8958 59.9662 34.3358 59.9662C33.7758 59.9662 33.6558 59.9462 33.3224 59.7796C32.4758 59.3662 31.9958 58.3396 32.0958 57.1529C32.1891 56.0329 32.7824 55.2062 33.6691 54.9529C34.1424 54.8196 34.8624 54.8796 35.2958 55.0929ZM41.1158 55.0529C41.2624 55.1329 41.4624 55.2862 41.5558 55.3996C41.8891 55.7929 41.9358 56.1196 41.9358 58.1129V59.9396L41.4224 59.9196L40.9024 59.8996L40.8691 58.0996C40.8424 56.8129 40.8091 56.2596 40.7491 56.1529C40.5424 55.7929 39.7758 55.6729 39.3424 55.9396C38.8624 56.2329 38.8758 56.1662 38.8691 58.1529V59.9396L38.3558 59.9196L37.8358 59.8996V57.4329V54.9662H38.3024H38.7691L38.7891 55.1996C38.7958 55.3262 38.8224 55.4796 38.8424 55.5329C38.8758 55.6196 38.8891 55.6129 38.9424 55.5196C39.0358 55.3596 39.5291 55.0262 39.8091 54.9396C40.1491 54.8396 40.7958 54.8929 41.1158 55.0529ZM46.3091 55.0662C46.7024 55.2396 46.9691 55.4729 47.1558 55.8329C47.2891 56.0796 47.3024 56.2396 47.3424 57.8329C47.3691 58.7862 47.4091 59.6462 47.4358 59.7462L47.4824 59.9329H46.9424C46.4091 59.9329 46.4024 59.9329 46.3624 59.7462C46.2891 59.4596 46.2758 59.4596 45.9958 59.6596C45.2424 60.2129 43.9558 60.0329 43.4758 59.3062C43.2291 58.9329 43.1958 58.2596 43.4024 57.8329C43.7024 57.2196 44.2958 56.9529 45.5224 56.8862L46.2691 56.8462V56.6529C46.2691 56.3462 46.0958 56.0129 45.8558 55.8662C45.6824 55.7529 45.5558 55.7329 45.2224 55.7462C44.7691 55.7729 44.5158 55.9329 44.4424 56.2396C44.4024 56.3929 44.3758 56.3996 43.8624 56.3996H43.3224L43.3691 56.1796C43.5024 55.5796 43.9958 55.1129 44.7158 54.9329C45.1224 54.8329 45.9424 54.8996 46.3091 55.0662ZM51.7158 54.9996C51.9291 55.0729 52.2024 55.2196 52.3358 55.3196C52.6158 55.5462 52.9024 56.0596 52.9691 56.4462L53.0158 56.7329H52.5158H52.0158L51.9358 56.4796C51.7891 56.0262 51.4558 55.7862 50.9691 55.7862C50.2091 55.7862 49.8491 56.3062 49.8491 57.4329C49.8424 58.1996 49.9691 58.5796 50.3224 58.8796C50.8291 59.3062 51.7758 59.0862 51.9224 58.5129L51.9758 58.2996L52.4891 58.2796C53.0691 58.2596 53.0691 58.2596 52.8958 58.7462C52.7558 59.1729 52.3958 59.5596 51.9491 59.7796C51.6158 59.9396 51.4891 59.9662 50.9691 59.9662C50.4491 59.9662 50.3224 59.9396 49.9891 59.7796C49.3291 59.4529 48.9424 58.8596 48.7958 57.9396C48.6691 57.1196 48.8691 56.1929 49.2958 55.6329C49.8024 54.9662 50.8491 54.6929 51.7158 54.9996ZM57.2491 54.9996C57.4624 55.0729 57.7358 55.2196 57.8691 55.3196C58.1491 55.5462 58.4358 56.0596 58.5024 56.4462L58.5491 56.7329H58.0491H57.5491L57.4691 56.4796C57.3224 56.0262 56.9891 55.7862 56.5024 55.7862C55.7358 55.7862 55.3824 56.3062 55.3824 57.4329C55.3824 58.1996 55.5091 58.5862 55.8558 58.8796C56.3691 59.3129 57.2691 59.0996 57.4691 58.4996L57.5491 58.2662H58.0424C58.5958 58.2662 58.5958 58.2662 58.4291 58.7462C58.2891 59.1729 57.9291 59.5596 57.4824 59.7796C57.1491 59.9396 57.0224 59.9662 56.5024 59.9662C55.9824 59.9662 55.8558 59.9396 55.5224 59.7796C54.8624 59.4529 54.4758 58.8596 54.3291 57.9396C54.2024 57.1196 54.4024 56.1929 54.8291 55.6329C55.3358 54.9662 56.3824 54.6929 57.2491 54.9996ZM24.0024 56.9662V58.9996H24.7024H25.4024V59.4662V59.9329H23.4358H21.4691V59.4662V58.9996H22.2024H22.9358V57.4329V55.8662H22.2024H21.4691V55.3996V54.9329H22.7358H24.0024V56.9662ZM62.7358 56.9662V58.9996H63.4358H64.1357V59.4662V59.9329H62.1691H60.2024V59.4662V58.9996H60.9358H61.6691V57.4329V55.8662H60.9358H60.2024V55.3996V54.9329H61.4691H62.7358V56.9662Z" fill="white"/>
<path d="M16.0067 32.2146V44.168L16.24 43.2013C16.5467 41.888 16.9467 40.548 17.3467 39.468C20.9533 29.7613 29.16 22.6346 39.2667 20.4346L39.9667 20.2813L27.9867 20.2746L16 20.268L16.0067 32.2146Z" fill="white"/>
<path d="M43.7966 20.308C43.6699 20.3213 43.1899 20.368 42.7299 20.408C42.2699 20.4413 41.3766 20.5613 40.7432 20.668C32.1966 22.108 24.6966 27.2146 20.2232 34.648C17.6832 38.8613 16.2232 43.7146 16.0166 48.6146L15.9766 49.668H30.6832H45.3966V34.968V20.268L44.7166 20.2813C44.3366 20.2813 43.9232 20.3013 43.7966 20.308Z" fill="white"/>
<path d="M45.9375 29.2523V38.2656H54.9042H63.8708V37.7456C63.8708 36.3656 63.4908 34.3256 62.9308 32.6656C60.5642 25.6323 54.1175 20.7123 46.7042 20.2923L45.9375 20.2456V29.2523Z" fill="white"/>
<path d="M50.9307 20.5048C53.7641 21.3782 56.1441 22.7115 58.2507 24.6115C60.7574 26.8782 62.6907 29.9582 63.6307 33.1915L63.8574 33.9648L63.8641 27.1115V20.2648H57.0174L50.1641 20.2715L50.9307 20.5048Z" fill="white"/>
<path d="M45.9375 39.6682C45.9375 40.1816 45.9508 40.6016 45.9642 40.6016C45.9775 40.6016 46.0642 40.4749 46.1575 40.3149C46.3908 39.9216 46.9642 39.3416 47.4242 39.0349C47.6308 38.8949 47.8042 38.7749 47.8042 38.7616C47.8042 38.7482 47.3842 38.7349 46.8708 38.7349H45.9375V39.6682Z" fill="white"/>
<path d="M49.1407 38.8416C47.5007 39.1949 46.1474 40.6482 45.9541 42.2549L45.9141 42.6016H47.8274H49.7341V40.6682C49.7341 39.1616 49.7141 38.7349 49.6541 38.7416C49.6074 38.7416 49.3741 38.7882 49.1407 38.8416Z" fill="white"/>
<path d="M50.2656 39.8403V40.9336H51.3656H52.4656L52.4256 40.7469C52.1723 39.7136 51.4923 39.0269 50.5056 38.8003L50.2656 38.7469V39.8403Z" fill="white"/>
<path d="M52.0698 39.0982C52.2698 39.2982 52.4365 39.4648 52.4498 39.4648C52.4565 39.4648 52.4631 39.2982 52.4631 39.0982V38.7315H52.0831H51.7031L52.0698 39.0982Z" fill="white"/>
<path d="M53 44.2052V49.6719L53.4867 49.6319C56.2867 49.3852 58.6467 48.3052 60.5867 46.3852C62.4933 44.4919 63.6733 41.9519 63.8467 39.3585L63.8867 38.7319H58.4467H53V44.2052Z" fill="white"/>
<path d="M50.2656 42.0388V42.6055L50.5523 42.5855L50.8323 42.5655L50.8523 42.0121L50.8723 41.4655H50.5656H50.2656V42.0388Z" fill="white"/>
<path d="M51.3359 42.0069V42.5469L51.5226 42.5002C51.8959 42.4069 52.4026 41.8802 52.4026 41.5802C52.4026 41.4802 52.3359 41.4669 51.8693 41.4669H51.3359V42.0069Z" fill="white"/>
<path d="M63.6822 42.5119C63.4622 43.1385 62.8822 44.2852 62.4689 44.9119C61.9489 45.6852 61.4689 46.2519 60.7422 46.9452C59.6289 48.0119 58.2689 48.8719 56.8355 49.4052L56.2422 49.6319L60.0355 49.6519C62.1155 49.6585 63.8355 49.6585 63.8489 49.6452C63.8622 49.6319 63.8622 47.9185 63.8555 45.8385L63.8355 42.0652L63.6822 42.5119Z" fill="white"/>
<path d="M45.9541 43.5785C46.0807 45.1185 47.0207 46.9185 48.2607 47.9785C49.3741 48.9319 50.5607 49.4385 52.1207 49.6252L52.4674 49.6719V46.3652V43.0652H49.1941H45.9141L45.9541 43.5785Z" fill="white"/>
<path d="M45.9375 47.6546V49.668H47.9575H49.9708L49.4108 49.3613C47.9442 48.5813 46.8775 47.508 46.1908 46.1413L45.9375 45.6346V47.6546Z" fill="white"/>
<path d="M28.3569 55.8664C28.2835 55.8931 28.1302 56.0264 28.0102 56.1597L27.7969 56.4064V57.4197C27.7969 58.2997 27.8169 58.4597 27.9235 58.6264C28.1302 58.9397 28.3835 59.0664 28.8235 59.0664C29.1835 59.0664 29.2302 59.0464 29.4635 58.8131C29.7769 58.4997 29.8635 58.1997 29.8635 57.4264C29.8635 56.6864 29.7369 56.2797 29.4235 55.9997C29.2302 55.8331 29.1369 55.7997 28.8435 55.8064C28.6502 55.8064 28.4369 55.8331 28.3569 55.8664Z" fill="white"/>
<path d="M34.0786 55.8052C33.6053 55.8986 33.332 56.2452 33.1986 56.8986C32.9786 57.9719 33.4053 58.9786 34.1253 59.0986C34.7053 59.1986 35.252 58.7786 35.392 58.1386C35.6986 56.7052 35.0786 55.5986 34.0786 55.8052Z" fill="white"/>
<path d="M44.8706 57.6927C44.3239 57.886 44.1573 58.4727 44.5239 58.8794C44.7039 59.0794 44.7506 59.0994 45.1106 59.0927C45.5306 59.0927 45.8439 58.966 46.1039 58.686C46.2373 58.5394 46.2639 58.446 46.2639 58.0594V57.5994L45.6839 57.606C45.3573 57.606 44.9973 57.646 44.8706 57.6927Z" fill="white"/>
</g>
<defs>
<clipPath id="clip0_2602_100835">
<rect width="80" height="80" fill="white"/>
</clipPath>
</defs>
</svg>
