<svg width="125" height="31" viewBox="0 0 125 31" fill="none" xmlns="http://www.w3.org/2000/svg">
<g clip-path="url(#clip0_2602_100855)">
<path d="M80.9734 8.4314V0.382812H85.356V29.7493H81.0502C81.0147 29.1202 80.9734 28.4676 80.9202 27.621C77.8252 29.9727 74.4881 30.8017 70.8319 30.0432C68.3004 29.5351 66.0329 28.1472 64.4351 26.1277C60.7553 21.5537 60.7968 14.3693 64.5356 9.93058C68.4752 5.26841 74.0923 4.70988 80.9734 8.4314ZM81.062 18.0438C81.062 13.5345 77.772 10.154 73.4721 10.2069C69.3376 10.2598 66.2485 13.6109 66.2426 18.0673C66.2366 22.5238 69.3967 26.016 73.5548 25.9925C77.8607 25.963 81.0915 22.5473 81.0738 18.0438H81.062Z" fill="white"/>
<path d="M109.327 8.40289L109.47 6.42749H113.81V29.7502H109.492L109.316 27.5631C106.115 30.003 102.641 30.8378 98.8312 29.9618C96.2224 29.3696 93.9155 27.8603 92.3345 25.7112C88.9028 21.2136 89.1095 14.1233 92.8011 9.87852C96.8178 5.21638 102.452 4.67549 109.327 8.40289ZM94.4609 18.1976C94.4609 22.7069 97.6861 26.0404 101.927 25.9816C106.168 25.9228 109.405 22.4541 109.387 17.9389C109.387 13.5354 106.067 10.1197 101.856 10.1608C97.6442 10.2019 94.4372 13.5942 94.4609 18.1976Z" fill="white"/>
<path d="M33.9416 18.0689C33.9416 10.961 39.2574 5.75206 46.4043 5.79321C48.009 5.79685 49.5968 6.11822 51.0754 6.73861C52.554 7.359 53.8939 8.26602 55.0169 9.40683C56.1399 10.5477 57.0237 11.8995 57.6168 13.3835C58.2098 14.8676 58.5003 16.4543 58.4714 18.0513C58.4714 25.1062 53.0964 30.3976 45.9791 30.3094C44.374 30.3169 42.784 30.0037 41.303 29.3879C39.8219 28.7722 38.4803 27.8666 37.3576 26.725C36.2349 25.5834 35.354 24.229 34.7672 22.742C34.1804 21.255 33.8996 19.6659 33.9416 18.0689ZM53.9115 18.116C53.9115 13.5419 50.6865 10.185 46.233 10.1673C45.1976 10.1526 44.1699 10.3466 43.2117 10.7374C42.2536 11.1284 41.3848 11.7082 40.6575 12.4418C39.9303 13.1756 39.3597 14.0482 38.9801 15.0072C38.6004 15.9661 38.4195 16.9916 38.4483 18.0219C38.4483 22.5077 41.7972 25.994 46.1563 25.9823C50.6038 25.9646 53.9056 22.6252 53.9115 18.116Z" fill="white"/>
<path d="M31.4347 14.4104L27.4065 15.8862C26.4733 13.3111 24.9376 11.2298 22.2619 10.6302C20.6011 10.2478 18.8731 10.2599 17.2178 10.6655C13.7683 11.5885 11.9432 14.7809 12.1204 18.8082C12.1874 20.4374 12.7892 21.9998 13.8337 23.256C14.8782 24.5122 16.3075 25.3929 17.9029 25.7632C21.8721 26.7509 24.7427 25.1282 27.6368 20.2015C28.6941 20.6718 29.7632 21.1421 30.8263 21.6243C31.0311 21.7327 31.2284 21.8544 31.417 21.9888C30.0763 27.28 24.1992 30.931 18.1865 30.2196C11.9078 29.4612 7.55469 24.5638 7.55469 18.1967C7.55469 11.8295 11.8783 6.79108 18.3163 5.89157C21.1669 5.50255 24.0627 6.14986 26.4724 7.71469C28.8822 9.27952 30.644 11.6569 31.4347 14.4104Z" fill="white"/>
<path d="M4.0755 29.5534H0V6.70703H4.0755V29.5534Z" fill="white"/>
<path d="M121 29.9967V26.3516H124.857V29.9731L121 29.9967Z" fill="white"/>
</g>
<defs>
<clipPath id="clip0_2602_100855">
<rect width="125" height="30.5344" fill="white"/>
</clipPath>
</defs>
</svg>
