<svg width="79" height="79" viewBox="0 0 79 79" fill="none" xmlns="http://www.w3.org/2000/svg">
<path d="M37.7314 7.81608C37.5548 7.86255 36.8392 7.91832 36.1514 7.95549C35.4637 7.99267 34.8409 8.06702 34.7666 8.12279C34.6922 8.17856 34.3019 8.2529 33.9022 8.28079C33.2609 8.32726 33.1401 8.36443 32.9635 8.56891C32.7777 8.79197 32.6847 8.81985 31.8947 8.85703C31.1884 8.8942 30.9932 8.93138 30.8259 9.08938C30.7144 9.20091 30.4541 9.32173 30.2497 9.3682C30.0452 9.41467 29.7106 9.56338 29.5154 9.69349C29.3202 9.83291 29.1251 9.94444 29.0786 9.94444C29.0414 9.94444 28.8555 10.0467 28.6697 10.1675C28.4931 10.2883 28.1771 10.4184 27.9726 10.4556C27.7681 10.4928 27.4986 10.6043 27.3592 10.7066C27.2291 10.8181 26.9317 10.9389 26.7086 10.9761C26.2997 11.0504 25.7606 11.478 25.6212 11.8311C25.584 11.9241 25.4167 12.0077 25.1844 12.0449C24.952 12.0821 24.7661 12.175 24.7104 12.2773C24.6546 12.3888 24.4687 12.4724 24.2364 12.5096C24.0133 12.5468 23.7345 12.6862 23.5672 12.8349C23.4092 12.9743 23.1582 13.1974 23.0002 13.3275C22.8515 13.4576 22.3311 13.9316 21.8571 14.3777C21.3738 14.8331 20.937 15.2235 20.8812 15.2607C20.7046 15.3536 18.5298 17.5099 18.4368 17.6771C18.3904 17.7608 17.935 18.2627 17.4238 18.8017C15.314 21.0044 13.9385 22.6402 13.9385 22.9283C13.9385 22.9934 13.8362 23.1142 13.7061 23.1979C13.576 23.2815 13.4738 23.393 13.4738 23.4488C13.4738 23.5046 13.3715 23.6626 13.2414 23.7927C12.6652 24.3689 12.4607 24.6663 12.405 25.0009C12.3678 25.224 12.2841 25.3727 12.1819 25.4006C12.0704 25.4284 11.996 25.5679 11.9588 25.8002C11.9217 26.0047 11.8287 26.2649 11.7358 26.395C11.522 26.7017 11.1874 27.4824 10.9086 28.3375C10.7878 28.7093 10.6298 29.0903 10.5461 29.1833C10.4718 29.2669 10.4067 29.397 10.4067 29.4621C10.4067 29.5271 10.2952 29.7781 10.1558 30.0104C10.0071 30.2614 9.87695 30.6517 9.83978 30.9584C9.8026 31.2559 9.69107 31.5997 9.58884 31.7484C9.44942 31.9343 9.37507 32.2317 9.3286 32.6686C9.30072 33.0217 9.20778 33.4214 9.13342 33.5422C9.04048 33.6909 8.98472 34.0534 8.96613 34.611C8.93825 35.494 8.87319 35.7542 8.5386 36.1724C8.36201 36.3955 8.33413 36.5535 8.29695 37.8454C8.27837 38.6261 8.2226 39.4254 8.16684 39.6206C8.09248 39.9087 8.11107 40.0853 8.27837 40.615L8.49213 41.2563L8.26907 41.7303C8.0646 42.1671 8.05531 42.2322 8.15754 42.7899C8.2226 43.1151 8.26907 43.9609 8.26907 44.6673C8.26907 46.1822 8.42707 47.1488 8.74307 47.5763C8.92895 47.8273 8.96613 47.9946 8.96613 48.5057C8.96613 48.9797 9.00331 49.1749 9.13343 49.2957C9.21707 49.3887 9.29143 49.4816 9.29143 49.5188C9.29143 49.8906 9.51448 50.7456 9.6446 50.9315C9.73754 51.0616 9.84907 51.3869 9.87696 51.6564C9.91413 51.991 10.0071 52.242 10.1744 52.4279C10.3602 52.6509 10.4067 52.8089 10.4067 53.1993C10.4067 53.5617 10.4625 53.7476 10.5926 53.9149C10.9365 54.3146 11.4291 55.1046 11.4291 55.244C11.4291 55.3276 11.5592 55.5321 11.7079 55.6994C11.8659 55.876 11.9867 56.1083 11.9867 56.2106C11.9867 56.3221 12.0518 56.4615 12.1261 56.5266C12.2098 56.5916 12.3213 56.7032 12.3864 56.7775C12.4514 56.8426 12.6373 57.0377 12.7953 57.205C12.9626 57.363 13.102 57.5489 13.102 57.614C13.102 57.772 13.5202 58.4412 13.985 59.036C14.1894 59.2962 14.4868 59.7052 14.6448 59.9375C14.8028 60.1699 15.1095 60.5416 15.314 60.7461C15.5278 60.9599 15.7044 61.1829 15.7044 61.2294C15.7044 61.2852 15.788 61.3781 15.8902 61.4339C15.9925 61.4896 16.1319 61.6662 16.2062 61.8335C16.2806 62.0008 16.4479 62.2146 16.5873 62.3168C16.9126 62.5584 17.1078 62.7536 17.842 63.5529C18.1766 63.9154 18.4926 64.2128 18.5577 64.2221C18.6227 64.2221 18.7157 64.3057 18.7714 64.4173C18.8365 64.5195 19.0131 64.6682 19.1711 64.7426C19.4778 64.882 20.0447 65.263 20.212 65.4303C21.1321 66.3783 21.6247 66.8337 21.7827 66.8802C21.8942 66.9174 22.0522 67.0196 22.1452 67.1219C22.2381 67.2148 22.4426 67.317 22.5913 67.3542C22.7493 67.3821 22.9352 67.5029 23.0188 67.6237C23.1118 67.7724 23.2884 67.8654 23.53 67.9119C23.7345 67.9397 24.004 68.0606 24.1248 68.1721C24.4966 68.516 24.8777 68.6368 25.2215 68.516C25.3981 68.4509 25.6212 68.4416 25.7885 68.4788C26.0115 68.5439 26.0766 68.6182 26.1417 68.9156C26.1788 69.1201 26.2532 69.3246 26.309 69.3803C26.3554 69.4268 26.8945 69.4919 27.4893 69.5197C28.4373 69.5662 28.6325 69.6034 28.995 69.8172C29.2273 69.9473 29.6177 70.0774 29.8686 70.1146C30.2218 70.161 30.4262 70.254 30.798 70.5793C31.0582 70.8023 31.3742 71.0161 31.5044 71.0533C31.6345 71.0904 31.8482 71.2206 31.997 71.3414C32.2758 71.5737 32.8892 71.7039 33.4282 71.6295C33.6978 71.6016 33.8279 71.6388 33.9952 71.7782C34.1067 71.8804 34.4227 72.0013 34.6922 72.0477C35.7239 72.215 38.3355 72.308 40.3802 72.2615C41.5606 72.2336 43.0848 72.1872 43.7726 72.1686C44.7578 72.15 45.1574 72.0942 45.6314 71.9362C45.966 71.8247 46.5422 71.676 46.9233 71.6016C47.3044 71.5273 47.6947 71.4064 47.7784 71.3228C47.8713 71.2391 48.2338 71.1555 48.6799 71.109C49.1539 71.0626 49.5442 70.9603 49.7394 70.8488C49.9067 70.7466 50.232 70.635 50.4551 70.6071C50.6781 70.5793 50.9941 70.4584 51.1521 70.3469C51.3008 70.2354 51.6354 70.1053 51.8771 70.0681C52.1466 70.0216 52.444 69.9008 52.6113 69.7614C52.7693 69.622 52.9831 69.5197 53.0853 69.5197C53.1875 69.5197 53.3827 69.3896 53.5128 69.2409C53.6801 69.055 53.8474 68.9621 54.024 68.9621C54.1913 68.9621 54.3865 68.8599 54.6002 68.6461C54.7768 68.4695 54.9999 68.3022 55.0928 68.2743C55.1858 68.2371 55.3159 68.107 55.3717 67.9862C55.446 67.8282 55.5575 67.7539 55.7062 67.7539C55.8271 67.7539 55.9851 67.6888 56.0501 67.5959C56.1245 67.5122 56.3104 67.3914 56.4777 67.3263C56.6635 67.2427 56.7844 67.1219 56.803 66.9917C56.8215 66.8151 56.8959 66.778 57.1747 66.7687C57.3885 66.7594 57.6301 66.6664 57.8253 66.5177C57.9926 66.3783 58.2342 66.1831 58.3644 66.0809C59.9537 64.8262 60.344 64.5009 60.4648 64.3336C60.5392 64.2221 60.66 64.1291 60.7251 64.1291C60.7901 64.1291 60.8924 64.0269 60.9481 63.8968C61.0039 63.7667 61.1061 63.6644 61.1619 63.6644C61.2269 63.6644 61.3942 63.5529 61.5337 63.4228C61.6731 63.2927 61.924 63.0696 62.082 62.9116C62.24 62.7629 62.4073 62.6421 62.4538 62.6421C62.5653 62.6421 63.1044 61.8893 63.1044 61.7406C63.1044 61.6755 63.2066 61.5268 63.3367 61.4153C63.4668 61.3037 63.5969 61.0714 63.6248 60.8948C63.6713 60.6531 63.7549 60.5602 63.9501 60.4859C64.2104 60.4022 65.0282 59.51 65.5208 58.785C65.6509 58.5991 65.8647 58.3203 66.0041 58.1809C66.1342 58.0322 66.2737 57.7813 66.3108 57.6326C66.348 57.4746 66.4502 57.298 66.5432 57.2515C66.6361 57.1957 66.7477 57.0656 66.7848 56.9541C66.822 56.8333 66.9242 56.6846 67.0172 56.6195C67.1101 56.5544 67.2309 56.3314 67.296 56.1176C67.3518 55.9039 67.4819 55.6157 67.5748 55.4856C68.1882 54.6956 68.2905 54.519 68.3555 54.2123C68.3834 54.0171 68.5135 53.7104 68.6344 53.5339C68.7552 53.3573 68.9039 53.0227 68.9597 52.7903C69.0247 52.558 69.1269 52.307 69.192 52.2327C69.2664 52.1583 69.3593 51.9074 69.4151 51.6843C69.4615 51.4613 69.5917 51.1639 69.6939 51.0244C69.7961 50.885 69.9077 50.6155 69.9355 50.4296C69.9727 50.2437 70.0564 50.03 70.1307 49.9649C70.1958 49.8999 70.3073 49.5281 70.3817 49.1377C70.456 48.7474 70.6047 48.2734 70.7162 48.0875C70.8928 47.7901 70.93 47.567 70.9579 46.5911C70.9951 45.5502 71.0229 45.4108 71.246 45.0204C71.4969 44.6022 71.4969 44.5836 71.5806 41.9813C71.6921 38.5703 71.6921 38.7655 71.562 37.6409C71.5062 37.1018 71.4784 36.2747 71.5155 35.8007C71.562 34.9549 71.562 34.9363 71.2832 34.5274C71.1066 34.2671 71.0044 34.0069 71.0044 33.8024C71.0044 33.3563 70.7534 31.9994 70.5861 31.5533C70.5118 31.3488 70.456 31.0514 70.4467 30.8841C70.4467 30.7168 70.3538 30.4751 70.2144 30.3171C70.0564 30.1313 69.982 29.9268 69.982 29.6851C69.982 29.174 69.7125 28.1423 69.5173 27.9286C69.4244 27.8263 69.3221 27.6497 69.2849 27.5382C69.2571 27.4174 69.1641 27.2594 69.0805 27.1757C68.9968 27.1014 68.8946 26.8411 68.8574 26.6088C68.8109 26.3671 68.7087 26.1069 68.6251 26.014C68.5414 25.921 68.4392 25.6701 68.3927 25.4563C68.3369 25.2426 68.1975 24.9637 68.0767 24.8522C67.9466 24.7314 67.8444 24.5362 67.8444 24.3968C67.8444 24.2667 67.7235 24.0436 67.5655 23.867C67.3889 23.6904 67.2867 23.486 67.2867 23.3187C67.2867 23.1514 67.1845 22.9469 67.0079 22.7703C66.8592 22.6123 66.7291 22.4078 66.7291 22.3149C66.7291 22.222 66.6268 22.0361 66.506 21.906C66.3759 21.7666 66.2551 21.5714 66.2179 21.4691C66.19 21.3669 66.1249 21.2833 66.0878 21.2833C65.8926 21.2833 65.2699 20.6698 65.1305 20.3446C65.0468 20.1494 64.926 19.9821 64.8795 19.9821C64.8238 19.9821 64.7122 19.8427 64.6286 19.6754C64.4706 19.3873 64.1081 18.9133 63.7549 18.5415C63.6527 18.43 63.5691 18.3184 63.5691 18.2813C63.5691 18.179 61.6266 16.2644 61.5244 16.2644C61.4779 16.2644 61.4314 16.1994 61.4314 16.125C61.4314 15.9484 61.1433 15.7997 60.7994 15.7997C60.6042 15.7997 60.502 15.7347 60.4276 15.5767C60.3719 15.4558 60.2418 15.3257 60.1488 15.2886C60.0466 15.2607 59.8979 15.1306 59.8142 15.0097C59.7306 14.8796 59.5912 14.7774 59.5168 14.7774C59.4332 14.7774 59.2473 14.6751 59.0893 14.545C58.9406 14.4149 58.7361 14.3127 58.6339 14.3127C58.5316 14.3127 58.3458 14.2104 58.2157 14.0803C58.0855 13.9502 57.8439 13.7829 57.6673 13.7178C57.5 13.6435 57.3141 13.5041 57.2584 13.4018C57.2026 13.2996 57.0167 13.1881 56.8494 13.1602C56.6728 13.1323 56.4498 13.0022 56.3475 12.8814C56.236 12.7606 56.0129 12.6304 55.8364 12.5933C55.6691 12.5561 55.4088 12.426 55.2694 12.3051C55.1207 12.1843 54.9069 12.0821 54.7861 12.0821C54.6653 12.0821 54.4515 11.9798 54.3028 11.859C54.1634 11.7382 53.9404 11.6081 53.8102 11.5709C53.6801 11.5337 53.4942 11.4315 53.392 11.3386C53.076 11.0597 52.7786 10.9482 52.4998 11.004C52.2674 11.0504 52.2209 11.0226 52.1745 10.8181C52.1094 10.5671 51.8864 10.4091 51.5889 10.4091C51.4867 10.4091 51.2915 10.3069 51.1428 10.1861C50.9941 10.0653 50.6967 9.91655 50.4644 9.85149C50.2413 9.78643 50.0089 9.67491 49.9532 9.60055C49.8881 9.51691 49.6465 9.43326 49.3584 9.40538C49.0609 9.37749 48.8379 9.30314 48.7635 9.2102C48.5777 8.94997 48.4289 8.8942 47.7133 8.82914C47.2393 8.78267 46.9698 8.70832 46.7932 8.55961C46.5701 8.39232 46.4121 8.36443 45.65 8.36443C44.9622 8.36443 44.7299 8.32726 44.5998 8.21573C44.228 7.88114 42.2855 7.65808 42.0253 7.91832C41.9602 7.98338 41.9138 8.12279 41.9138 8.24361C41.9138 8.54102 42.2948 8.67114 42.9361 8.60608C43.5124 8.54102 43.912 8.68044 43.438 8.78267C43.0291 8.86632 42.5644 9.12655 42.5644 9.26596C42.5644 9.33102 42.7038 9.47044 42.8711 9.57267C43.122 9.73067 43.3358 9.75855 44.3581 9.75855C45.2968 9.75855 45.5571 9.78643 45.5942 9.88867C45.6872 10.1396 46.3099 10.3069 46.8768 10.2511C47.3322 10.2047 47.4438 10.2233 47.6947 10.4091C47.8806 10.5393 48.0572 10.595 48.2152 10.5671C48.3453 10.5393 48.6148 10.5764 48.8193 10.6508C49.0238 10.7251 49.4048 10.7809 49.6744 10.7809C50.0461 10.7809 50.2413 10.8367 50.5201 11.0318C50.7711 11.1991 51.0406 11.2921 51.3938 11.32C51.6912 11.3478 51.9979 11.4315 52.128 11.5337C52.2488 11.636 52.4254 11.7103 52.5184 11.7103C52.6113 11.7103 52.8158 11.8311 52.9738 11.9891C53.1318 12.1471 53.3548 12.268 53.4849 12.268C53.6151 12.268 53.8474 12.3981 54.0333 12.5933C54.2192 12.7698 54.4144 12.9186 54.4887 12.9186C54.5538 12.9186 54.7118 13.0208 54.8326 13.1509C55.2229 13.5691 55.9944 13.9409 56.4591 13.9409C56.7937 13.9409 56.9238 13.9874 57.0818 14.1733C57.2305 14.3406 57.3792 14.4056 57.6208 14.4056C57.8904 14.4056 58.0019 14.4614 58.1599 14.6844C58.2807 14.8331 58.4108 14.9633 58.4666 14.9633C58.5224 14.9633 58.8569 15.2142 59.2194 15.5209C59.5726 15.8276 59.9258 16.0786 60.0001 16.0786C60.0745 16.0786 60.186 16.1994 60.2325 16.3481C60.2975 16.5247 60.4555 16.692 60.6972 16.8035C60.8924 16.9057 61.2177 17.1288 61.4035 17.3147C62.1842 18.0489 62.7976 18.6716 63.1044 19.0527C63.2809 19.2757 63.5412 19.5638 63.6899 19.694C63.8293 19.8241 63.9408 19.9821 63.9408 20.0378C63.9408 20.0936 64.0431 20.2144 64.1639 20.2981C64.294 20.3724 64.4148 20.5211 64.4427 20.6141C64.4799 20.7163 64.6007 20.8371 64.7215 20.8929C64.8702 20.958 64.9632 21.0974 65.0004 21.3297C65.0654 21.6736 65.1584 21.8037 65.6695 22.3335C65.8461 22.5194 65.9762 22.7796 66.0134 23.0027C66.0506 23.2071 66.1528 23.4302 66.2644 23.5138C66.3666 23.5882 66.4781 23.802 66.506 23.9786C66.5432 24.1551 66.664 24.4061 66.7848 24.5362C67.0729 24.8522 67.1101 25.2983 66.8685 25.4191C66.7662 25.4749 66.6733 25.6329 66.6547 25.7723C66.6268 25.9675 66.6733 26.0418 66.8592 26.1255C67.0265 26.2091 67.1194 26.3393 67.1566 26.5716C67.1938 26.7575 67.3239 26.9991 67.4447 27.1107C67.6306 27.2873 67.6492 27.3709 67.6027 27.6962C67.5469 28.0308 67.5748 28.0958 67.8351 28.3375C68.086 28.5698 68.1232 28.6721 68.1232 29.0717C68.1232 29.3691 68.1697 29.5736 68.2626 29.648C68.3369 29.713 68.4485 29.9361 68.5042 30.1498C68.56 30.3543 68.7087 30.7633 68.8202 31.0421C68.9411 31.3209 69.0619 31.8414 69.0991 32.2038C69.1362 32.5663 69.2385 32.9753 69.3314 33.1333C69.5452 33.4771 69.7589 34.3973 69.8519 35.3174C69.8891 35.7821 69.9727 36.0888 70.0935 36.2375C70.2515 36.442 70.2701 36.6371 70.2701 38.0499C70.2701 38.9235 70.2701 39.8064 70.2794 40.0109C70.2794 40.2247 70.2144 40.5314 70.1307 40.6987C69.982 40.9775 69.9541 40.9961 69.8054 40.8567C69.7125 40.773 69.5731 40.708 69.4801 40.708C69.3872 40.708 69.3221 40.6429 69.3407 40.5407C69.3686 40.2711 69.3314 40.1503 69.2385 40.1503C69.0712 40.1503 69.1362 40.5779 69.3314 40.7544C69.4337 40.8474 69.5173 40.9961 69.5173 41.089C69.5173 41.182 69.5638 41.2842 69.6102 41.3121C69.666 41.34 69.7032 41.3214 69.7032 41.2749C69.7032 41.2191 69.7775 41.1727 69.8798 41.1727C70.1028 41.1727 70.3073 41.8697 70.2887 42.5668C70.2422 44.5 70.14 45.606 70.0006 45.8197C69.8426 46.0707 69.6195 47.1395 69.6195 47.725C69.6102 48.1433 69.2106 49.0541 68.7552 49.6954C68.4949 50.0579 68.4485 50.188 68.4671 50.5876C68.4857 50.9222 68.4392 51.1453 68.3091 51.359C68.2068 51.517 68.0767 51.8702 68.0302 52.1397C67.9745 52.4093 67.8722 52.6788 67.7979 52.7346C67.7235 52.7903 67.5934 53.0041 67.5098 53.2086C67.4261 53.413 67.2774 53.6361 67.1845 53.7011C67.0915 53.7662 67.0079 53.8777 67.0079 53.9521C67.0079 54.0264 66.9057 54.1751 66.7848 54.296C66.664 54.4168 66.5153 54.6863 66.4502 54.9001C66.3945 55.1231 66.3201 55.2997 66.2737 55.2997C66.1807 55.2997 65.4837 56.4708 65.3535 56.8519C65.2978 57.0191 65.0468 57.4188 64.7866 57.7348C64.5264 58.0601 64.2289 58.4226 64.1267 58.5527C63.6713 59.1196 63.4111 59.4356 63.1322 59.733C62.9649 59.9003 62.8255 60.0862 62.8255 60.142C62.8255 60.1977 62.5002 60.5509 62.1099 60.932C61.7102 61.313 61.3478 61.6569 61.3106 61.7034C60.9388 62.103 60.7344 62.2982 60.1302 62.828C59.7585 63.1626 59.3217 63.5436 59.1637 63.683C59.0057 63.8224 58.7733 64.0455 58.6432 64.1756C58.5131 64.3057 58.3737 64.408 58.3272 64.408C58.2807 64.408 58.1041 64.5381 57.9275 64.6868C57.7602 64.8448 57.5558 64.9656 57.4814 64.9656C57.4164 64.9656 57.2677 65.0771 57.1654 65.2073C57.0539 65.3467 56.8401 65.5233 56.6728 65.6069C56.4126 65.737 56.3661 65.8021 56.3661 66.0902C56.3661 66.2761 56.3011 66.5084 56.2174 66.6014C56.1338 66.7036 56.0408 66.8616 56.0037 66.9731C55.9758 67.0754 55.7992 67.2148 55.6133 67.2799C55.4367 67.3449 55.2601 67.4564 55.2415 67.5215C55.2137 67.5959 55.0557 67.6795 54.907 67.7167C54.749 67.7446 54.4329 67.8747 54.2006 67.9955C53.9682 68.1163 53.7173 68.2186 53.6244 68.2186C53.5407 68.2186 53.3362 68.3208 53.1597 68.4509C52.9831 68.581 52.7879 68.6833 52.7228 68.6833C52.6578 68.6833 52.4626 68.8134 52.2767 68.9714C51.8864 69.3153 51.5239 69.2874 51.4309 68.9156C51.338 68.5253 51.1893 68.4695 50.5573 68.5996C50.2413 68.6554 49.8417 68.8041 49.6651 68.9249C49.4885 69.0457 49.2097 69.1759 49.0424 69.2223C48.8007 69.2874 48.7357 69.3524 48.7171 69.5755C48.6985 69.7521 48.745 69.9101 48.8286 69.9844C49.0795 70.1796 48.9959 70.2633 48.5591 70.2633C48.1873 70.2633 48.113 70.2261 47.9735 69.9844C47.8899 69.8357 47.7691 69.687 47.7226 69.6684C47.5832 69.622 45.8266 69.7893 45.492 69.8915C45.3433 69.938 45.0273 70.0402 44.7949 70.1332C44.4232 70.2633 43.8841 70.2819 40.1293 70.2819L35.8819 70.2726L35.1291 70.0402C34.7108 69.9008 34.0138 69.7707 33.5677 69.7428C32.9542 69.6963 32.7126 69.6406 32.5546 69.5012C32.4152 69.371 32.1364 69.2874 31.5787 69.2316C31.0118 69.1666 30.7237 69.0829 30.482 68.9156C30.2311 68.739 30.0266 68.6833 29.6827 68.6833C29.311 68.6833 29.1715 68.6368 29.0042 68.4602C28.8834 68.3394 28.6418 68.2093 28.4559 68.1721C28.2607 68.1349 28.0284 68.0327 27.9261 67.9397C27.8239 67.8375 27.5544 67.6981 27.3406 67.6237C27.1268 67.5494 26.8573 67.4007 26.7458 67.2892C26.625 67.1869 26.4298 67.0661 26.2997 67.0382C26.1695 67.0103 25.9744 66.8895 25.8721 66.7687C25.7606 66.6572 25.5097 66.527 25.3145 66.4899C25.11 66.462 24.887 66.3783 24.8126 66.3133C24.7382 66.2482 24.5245 66.1181 24.3479 66.0344C24.1713 65.9415 23.9111 65.7835 23.781 65.672C23.6415 65.5604 23.2977 65.3095 23.0095 65.105C22.7214 64.9006 22.4891 64.7147 22.4891 64.6775C22.4891 64.6496 22.3775 64.566 22.2381 64.5009C21.9407 64.3522 21.9035 64.3243 20.7046 63.1812C20.212 62.7072 19.4871 62.0287 19.0967 61.6662C18.7157 61.313 18.3997 60.9784 18.3997 60.9227C18.3904 60.7926 18.0093 60.365 17.8327 60.3C17.7026 60.2535 16.9126 59.0081 16.9126 58.8501C16.9126 58.8036 16.8104 58.6735 16.6802 58.5527C16.5501 58.4319 16.4479 58.2832 16.4479 58.2181C16.4479 58.153 16.3642 58.0415 16.262 57.9672C16.1598 57.9021 16.0204 57.6976 15.946 57.521C15.8717 57.3444 15.723 57.1214 15.6207 57.0284C15.5092 56.9262 15.4255 56.7775 15.4255 56.6753C15.4255 56.5823 15.3419 56.4243 15.249 56.3314C15.1467 56.2292 15.0166 55.9782 14.9608 55.7644C14.9051 55.5507 14.775 55.2997 14.6727 55.1975C14.5798 55.1046 14.4961 54.9466 14.4961 54.8536C14.4961 54.7607 14.3288 54.4447 14.1244 54.1566C13.9199 53.8777 13.7526 53.6082 13.7526 53.5617C13.7526 53.5153 13.6504 53.3387 13.5202 53.1621C13.3808 52.9762 13.2879 52.7253 13.2879 52.5487C13.2879 52.1955 13.1578 51.8052 12.9719 51.6286C12.9068 51.5542 12.8139 51.2661 12.7767 50.978C12.7395 50.6527 12.6373 50.3739 12.5072 50.2066C12.3585 50.03 12.2748 49.779 12.2377 49.3701C12.2005 49.0262 12.0982 48.673 11.996 48.5336C11.8845 48.3663 11.7915 47.9853 11.7265 47.4276C11.6614 46.8514 11.5685 46.4796 11.4384 46.3123C11.2897 46.0986 11.2525 45.8476 11.2153 44.9368C11.1874 44.3234 11.1317 43.71 11.0759 43.5706C10.9458 43.2453 10.667 43.1709 10.2952 43.3475C10.1372 43.4311 9.93272 43.4962 9.83048 43.4962C9.73754 43.4962 9.57025 43.5892 9.46801 43.6914C9.29143 43.868 9.27284 43.9609 9.31931 44.5372C9.37507 45.2156 9.4866 45.448 9.75613 45.448C10.035 45.448 10.1558 45.1877 10.2022 44.4628C10.2301 44.0817 10.2673 43.7936 10.3045 43.8308C10.3974 43.9237 10.4067 45.5595 10.3045 45.7454C10.1744 45.987 9.23566 45.987 9.16131 45.7454C9.13343 45.6617 9.11484 43.9981 9.11484 42.0556C9.12413 38.5239 9.13342 38.5239 9.34719 38.1056C9.46801 37.8733 9.57025 37.5387 9.57025 37.3528C9.57025 36.981 9.76542 36.6464 9.93272 36.7487C9.99778 36.7951 10.035 37.0833 10.0257 37.5759C10.0257 37.9941 10.0628 38.4402 10.1093 38.5703C10.1744 38.7376 10.1651 38.9235 10.0628 39.2023C9.87695 39.76 9.93272 40.0016 10.2394 40.0388C10.509 40.0667 10.7785 39.7786 10.7785 39.4626C10.7785 39.3696 10.8435 39.2395 10.9365 39.1744C11.0387 39.1001 11.0945 38.8863 11.1224 38.5146C11.1502 38.2172 11.206 37.8547 11.2618 37.7153C11.3361 37.5201 11.3175 37.3714 11.1967 37.0554C11.0387 36.6371 11.0759 36.284 11.3454 35.5869C11.4198 35.3917 11.4012 35.243 11.2339 34.8527L11.0201 34.3601L11.2711 34.1649C11.5964 33.8954 11.7079 33.5608 11.7079 32.8173C11.7079 32.3061 11.7451 32.1574 11.8938 32.018C12.1075 31.8228 12.2655 31.3302 12.2655 30.8469C12.2655 30.6517 12.3492 30.4008 12.4886 30.2149C12.6187 30.0383 12.7395 29.7037 12.7767 29.4342C12.8232 29.1461 12.9347 28.8487 13.0555 28.7C13.1857 28.542 13.2879 28.2631 13.3251 27.9379C13.3715 27.5661 13.4459 27.3895 13.5667 27.3244C13.669 27.2687 13.7991 27.0549 13.8548 26.8319C13.9199 26.6181 14.0221 26.3764 14.0872 26.3021C14.1522 26.2184 14.301 25.9675 14.4032 25.7444C14.5054 25.5121 14.6355 25.2611 14.682 25.1868C14.7378 25.1124 14.8586 24.8615 14.9701 24.6291C15.2861 23.9414 15.5557 23.4488 15.7137 23.2722C15.7973 23.17 15.8995 22.9934 15.9367 22.8633C15.9739 22.7331 16.104 22.538 16.2248 22.4264C16.3457 22.3149 16.4479 22.1662 16.4479 22.0919C16.4479 22.0268 16.5687 21.8502 16.7267 21.7015C16.8847 21.5528 17.0055 21.3948 17.0055 21.3483C17.0055 21.3019 17.1264 21.1067 17.2844 20.9208C17.4331 20.7349 17.6561 20.4654 17.7677 20.326C17.8885 20.1773 18.1208 19.917 18.2881 19.7404C18.4461 19.5731 18.5855 19.3687 18.5855 19.2943C18.5855 19.1456 19.58 18.0954 20.2492 17.547C20.4815 17.3519 20.7882 17.1753 20.9462 17.1381C21.2715 17.0637 22.0987 16.5247 22.2846 16.2551C22.3497 16.1622 22.4519 16.0786 22.5077 16.0786C22.5541 16.0786 22.7121 15.967 22.8515 15.8183C22.991 15.6789 23.2419 15.4837 23.4185 15.3815C23.5951 15.2793 23.8646 15.112 24.0319 15.0097C24.1899 14.9075 24.4501 14.7402 24.6267 14.638C24.794 14.5357 25.0449 14.3591 25.1844 14.2383C25.3238 14.1268 25.4818 14.0338 25.5375 14.0338C25.584 14.0338 25.7885 13.9223 25.9837 13.7922C26.1788 13.6528 26.467 13.5041 26.6249 13.4483C26.7737 13.4018 27.0339 13.2624 27.1919 13.1416C27.3499 13.0208 27.6008 12.9 27.7495 12.8628C27.8982 12.8256 28.112 12.7234 28.2235 12.6211C28.3258 12.5189 28.5953 12.3981 28.8091 12.3516C29.2273 12.2587 29.9708 11.6917 30.0452 11.4222C30.0824 11.2735 30.1567 11.2642 30.5471 11.3014C30.9467 11.3571 31.0397 11.3293 31.2999 11.1062C31.5601 10.8924 31.7181 10.8367 32.2758 10.7995C32.8985 10.7623 33.5491 10.5393 33.6885 10.3255C33.7164 10.2697 34.0602 10.2326 34.4413 10.2326C34.9804 10.2326 35.1848 10.1954 35.3242 10.0746C35.7053 9.73067 35.4079 9.41467 34.6179 9.34961C34.3112 9.32173 34.0231 9.29385 33.9673 9.28455C33.7721 9.25667 34.4506 9.12655 34.8688 9.11726C35.4172 9.10796 35.696 8.99644 36.012 8.68973C36.2444 8.45738 36.3001 8.43879 36.8299 8.49455C37.1459 8.52243 37.8615 8.5782 38.4099 8.60608C38.9582 8.64326 39.4322 8.69902 39.4508 8.7362C39.4787 8.78267 39.3672 8.85703 39.2185 8.91279C38.8746 9.03361 38.7724 9.25667 38.9768 9.46114C39.0977 9.58197 39.3579 9.62844 40.1386 9.64702C41.2632 9.69349 41.542 9.60985 41.542 9.24738C41.542 9.07079 41.4584 8.98714 41.1981 8.87561C41.0029 8.79197 40.6684 8.53173 40.4639 8.29938C40.1107 7.90902 40.0271 7.86255 39.5345 7.7975C38.8095 7.70456 38.1311 7.71385 37.7314 7.81608ZM32.4338 9.85149C32.4338 9.89797 32.3966 9.94444 32.3501 9.94444C32.2944 9.94444 32.2293 9.89797 32.2014 9.85149C32.1735 9.79573 32.2107 9.75855 32.2851 9.75855C32.3687 9.75855 32.4338 9.79573 32.4338 9.85149ZM10.9737 32.2689C10.9551 33.3099 10.9272 33.44 10.6762 33.9419C10.5275 34.2393 10.3602 34.4809 10.3138 34.4809C10.1279 34.4809 10.1 33.979 10.2673 33.5608C10.6298 32.6128 10.6948 32.399 10.7413 31.8507C10.8064 31.1908 10.8528 30.9956 10.9365 31.0793C10.9644 31.1071 10.983 31.6462 10.9737 32.2689ZM10.258 35.7635C10.2208 35.9773 10.1279 36.1724 10.0164 36.2375C9.83048 36.349 9.82119 36.3397 9.86766 35.8843C9.92342 35.3453 10.1093 35.0293 10.2394 35.2616C10.2859 35.336 10.2952 35.559 10.258 35.7635ZM9.72825 47.883C9.70037 47.9574 9.67248 47.9295 9.67248 47.8273C9.66319 47.725 9.69107 47.6693 9.71895 47.7064C9.74684 47.7343 9.75613 47.818 9.72825 47.883ZM11.0015 49.2121C11.0759 49.463 11.1595 49.7604 11.1967 49.8627C11.2525 50.0393 11.2153 50.0579 10.8528 50.0579C10.6298 50.0579 10.3788 50.0857 10.2952 50.1322C10.0535 50.2437 10.0721 49.8069 10.3138 49.5839C10.4067 49.5002 10.5647 49.2307 10.6577 48.9983C10.7413 48.766 10.825 48.6173 10.8435 48.6637C10.8621 48.7102 10.9272 48.9519 11.0015 49.2121ZM11.4012 50.8107C11.3733 50.9036 11.3547 50.8293 11.3547 50.6527C11.3547 50.4761 11.3733 50.4017 11.4012 50.4854C11.4198 50.5783 11.4198 50.727 11.4012 50.8107ZM11.931 51.7122C11.9495 51.8981 12.0704 52.2048 12.1912 52.3907C12.3306 52.5952 12.4514 52.9483 12.4886 53.2272C12.5444 53.6919 12.5351 53.7197 12.3213 53.7755C12.1912 53.8034 12.0611 53.9149 12.0332 54.0172C11.9495 54.2681 11.773 54.1844 11.6893 53.8499C11.6521 53.6919 11.5313 53.4874 11.4291 53.3944C11.1874 53.1807 11.1967 53.0506 11.4384 52.8275C11.5499 52.7346 11.6986 52.5208 11.7637 52.3535C11.8752 52.1026 11.8659 52.0096 11.7451 51.7215C11.6707 51.5356 11.6335 51.3404 11.6707 51.294C11.773 51.1267 11.9031 51.3404 11.931 51.7122Z" fill="white"/>
<path d="M42.3959 22.2018C41.8847 22.2482 41.7732 22.2947 41.578 22.5363C41.4572 22.6943 41.327 22.9453 41.2992 23.1126C41.2248 23.4936 41.327 33.838 41.4107 34.0425C41.4757 34.2283 41.9776 34.3306 42.4795 34.2655C43.1487 34.1819 43.1208 34.3027 43.1208 31.2356L43.1208 28.4846L43.5669 28.1128C44.3383 27.4808 44.7845 26.7652 44.7937 26.1796C44.7937 25.9845 44.8588 25.6963 44.9425 25.5476C45.0633 25.3153 45.0633 25.1852 44.9796 24.7855C44.9146 24.516 44.8867 24.1535 44.9053 23.9769C44.9425 23.568 44.8495 23.4472 43.7342 22.4155C43.539 22.2389 43.316 22.1274 43.1952 22.1367C43.0743 22.1367 42.7119 22.1739 42.3959 22.2018ZM43.3996 25.2781C43.3996 25.3711 43.3532 25.4826 43.3067 25.5105C43.1859 25.5848 43.0836 25.3246 43.158 25.1294C43.2323 24.9435 43.3996 25.0458 43.3996 25.2781Z" fill="white"/>
<path d="M26.6118 22.3068C26.4259 22.3812 25.7846 23.1897 25.6638 23.4964C25.6359 23.5894 25.4686 23.8589 25.3013 24.1006C24.9203 24.6675 24.7809 25.1601 24.9017 25.5226C24.9482 25.6713 25.0132 26.9446 25.0504 28.348C25.1247 31.7589 25.1247 31.8704 25.0411 32.3073C24.976 32.6604 24.9946 32.7069 25.2549 32.8835C25.4314 33.0136 25.5523 33.1995 25.5894 33.3947C25.6917 33.9616 26.714 34.668 27.4111 34.668C27.9409 34.668 28.9539 34.2219 29.2792 33.8594C29.5023 33.6084 29.5487 33.4597 29.5487 33.088C29.5487 32.5117 29.3907 32.3444 28.8424 32.3444C28.387 32.3444 28.1546 32.4374 27.8665 32.7255C27.6156 32.9764 27.3182 32.9114 27.1137 32.5675C26.9743 32.3352 26.9371 32.0192 26.8999 31.0804C26.8442 29.2123 26.8534 25.5876 26.9092 24.8441C26.965 24.2586 27.0022 24.1656 27.2438 23.9797C27.5505 23.7567 27.6249 23.7753 27.7829 24.1563C27.9873 24.6489 28.8889 24.8999 29.3443 24.5746C29.5116 24.463 29.5487 24.3422 29.5487 23.9704C29.5487 23.3663 29.3814 23.0596 28.7959 22.5949C28.3219 22.2139 28.3126 22.2139 27.5598 22.2232C27.1509 22.2232 26.7233 22.2603 26.6118 22.3068Z" fill="white"/>
<path d="M31.5055 22.3249C31.3847 22.39 31.1802 22.5944 31.0594 22.771C30.8549 23.0777 30.8363 23.1707 30.8456 24.5369C30.8549 25.3269 30.8549 26.9813 30.8549 28.2081C30.8549 29.4349 30.8642 30.8104 30.8828 31.2751C30.8921 31.7306 30.9107 32.5484 30.9293 33.0689C30.9479 34.0355 30.9479 34.0355 31.2639 34.3515C31.5891 34.6768 31.9888 34.7604 32.3327 34.5746C32.5929 34.4444 32.658 34.2307 32.7137 33.3199C32.7416 32.8459 32.7974 32.4927 32.8531 32.502C32.8996 32.5113 32.9926 32.7157 33.0483 32.9481C33.1134 33.1897 33.2249 33.45 33.29 33.5336C33.3643 33.6173 33.4666 33.8031 33.5223 33.9333C33.6153 34.147 33.6896 34.1842 34.2937 34.24C34.6562 34.2679 35.0001 34.2771 35.0466 34.2493C35.1953 34.147 35.1395 33.4686 34.9443 33.1154C34.8421 32.9202 34.7584 32.6507 34.7584 32.5206C34.7584 32.3904 34.6655 32.1581 34.5633 32.0187C34.4517 31.8886 34.303 31.4982 34.238 31.1729C34.1636 30.8383 34.0335 30.4573 33.9313 30.3179C33.8383 30.1784 33.7268 29.8531 33.6989 29.6022C33.671 29.342 33.5595 29.026 33.4573 28.8866C33.1784 28.5055 33.2156 28.1059 33.5409 27.9386C33.8383 27.7806 34.2937 27.2787 34.2937 27.1021C34.2937 27.037 34.396 26.8697 34.5168 26.7396C34.9536 26.2749 34.9536 24.4626 34.5168 23.8677C34.396 23.7097 34.2937 23.5053 34.2937 23.4123C34.2937 23.2079 34.1264 23.087 33.6339 22.9104C33.4108 22.8268 33.1413 22.6595 33.039 22.5294C32.881 22.3342 32.7509 22.2877 32.2955 22.2506C31.933 22.2227 31.6542 22.2506 31.5055 22.3249ZM32.9368 24.8715C33.0576 25.1968 32.9647 26.3957 32.8067 26.3957C32.7044 26.3957 32.6301 25.5593 32.6859 25.1131C32.7416 24.7135 32.8346 24.6113 32.9368 24.8715Z" fill="white"/>
<path d="M36.4307 22.3245C36.0125 22.5476 35.9753 23.6071 36.3657 24.2484C36.5051 24.4808 36.5794 24.8247 36.6352 25.5868C36.6909 26.2652 36.7746 26.7207 36.8768 26.9065C37.0162 27.1482 37.0441 27.5943 37.0813 30.5963C37.1185 33.1243 37.1557 34.0351 37.2393 34.1188C37.4066 34.2861 38.3825 34.3325 38.6613 34.1838L38.8937 34.0537L38.9401 30.8008C38.9959 27.6408 38.9959 27.5385 39.2004 27.2132C39.3584 26.953 39.4327 26.6463 39.4885 25.9492C39.5442 25.3823 39.6465 24.8804 39.758 24.6202C40.0275 24.0347 40.1112 23.0774 39.9346 22.6591C39.8045 22.3617 39.7394 22.3152 39.3769 22.2595C38.6148 22.1387 38.4011 22.3431 38.1501 23.4677C38.0851 23.7187 38.0758 23.7279 38.0107 23.5607C37.9642 23.4584 37.9085 23.2168 37.8713 23.0309C37.7877 22.5197 37.5646 22.2967 37.0813 22.2502C36.8397 22.2223 36.5701 22.2595 36.4307 22.3245Z" fill="white"/>
<path d="M47.1374 22.3037C46.8214 22.3409 46.4869 22.4338 46.3939 22.5082C46.3103 22.5918 46.0686 22.6848 45.8642 22.7127C45.0742 22.8521 44.8139 23.3168 45.2229 23.8558C45.4366 24.144 45.4924 24.1625 46.0036 24.1625L46.5519 24.1625L46.5519 25.0641C46.5519 25.566 46.5519 27.0623 46.5519 28.3914C46.5612 29.7204 46.5519 30.9751 46.5426 31.1796C46.5333 31.3841 46.5333 32.0811 46.5426 32.7317C46.5612 33.8005 46.5798 33.94 46.7564 34.1165C46.9237 34.2838 47.0352 34.3117 47.5557 34.2745C48.0111 34.2467 48.197 34.1909 48.2899 34.0608C48.42 33.8935 48.4572 32.0533 48.4293 28.2055C48.4014 24.5901 48.42 24.1254 48.6338 23.9023C48.7453 23.7908 49.0056 23.6421 49.2193 23.5956C49.4424 23.5398 49.6933 23.4097 49.777 23.3168C49.935 23.1402 49.935 23.1216 49.7491 22.787C49.6376 22.6011 49.4517 22.3874 49.3309 22.3316C49.0985 22.2015 48.104 22.1922 47.1374 22.3037Z" fill="white"/>
<path d="M51.8119 22.2975C51.468 22.4369 50.8546 23.199 50.7431 23.6266C50.6873 23.8403 50.5665 24.1284 50.4828 24.2586C50.2319 24.6582 50.1296 27.6044 50.2598 30.718C50.3155 32.0749 50.3434 32.2329 50.5386 32.4746C50.6501 32.6233 50.7431 32.8742 50.7431 33.0415C50.7431 33.6735 51.8398 34.668 52.5368 34.668C52.8807 34.668 53.5406 34.3427 53.9216 33.9895C54.0611 33.8594 54.2655 33.4412 54.4235 32.9857L54.6931 32.205L54.6931 28.3015C54.6931 24.6582 54.6838 24.3794 54.5165 24.0727C54.4235 23.8961 54.3213 23.5987 54.2841 23.4221C54.2469 23.1897 54.154 23.0596 53.9681 22.976C53.8287 22.9109 53.6521 22.7343 53.5778 22.5949C53.5034 22.4462 53.3454 22.3068 53.2339 22.2696C52.9365 22.1953 52.0349 22.2139 51.8119 22.2975ZM52.7599 24.4909C52.7413 24.6117 52.7785 24.9742 52.8435 25.2995C53.1224 26.6007 53.0945 30.7273 52.8064 31.5266C52.7599 31.6381 52.7506 31.8426 52.7878 31.9727C52.8714 32.298 52.8064 32.4374 52.5461 32.4374C52.2673 32.4374 52.1465 32.1586 52.2022 31.6846C52.2301 31.508 52.1836 31.1362 52.1 30.8574C51.9885 30.467 51.9606 30.0581 51.9978 28.8684C52.1279 24.6582 52.1651 24.3143 52.4996 24.2307C52.732 24.1842 52.8064 24.2586 52.7599 24.4909Z" fill="white"/>
<path d="M65.6244 23.5991C65.4479 23.7106 65.5687 23.9987 65.7732 23.9616C65.9683 23.9244 66.0613 23.5154 65.8754 23.5154C65.8103 23.5154 65.6988 23.5526 65.6244 23.5991Z" fill="white"/>
<path d="M23.6016 24.9903C23.6016 25.2226 23.6573 25.2412 23.7224 25.046C23.7596 24.9717 23.741 24.888 23.6945 24.8602C23.6387 24.823 23.6016 24.888 23.6016 24.9903Z" fill="white"/>
<path d="M24.0103 25.3159C24.2148 25.4832 24.5308 25.5111 24.5308 25.3717C24.5308 25.3159 24.4471 25.2787 24.3542 25.2787C24.252 25.2787 24.094 25.2509 24.001 25.223C23.8523 25.1765 23.8523 25.1858 24.0103 25.3159Z" fill="white"/>
<path d="M18.3697 25.903C18.3326 25.9309 18.3047 26.0053 18.3047 26.061C18.3047 26.1168 18.3512 26.1075 18.4162 26.0425C18.472 25.9867 18.4999 25.9123 18.4813 25.8845C18.4534 25.8566 18.3976 25.8659 18.3697 25.903Z" fill="white"/>
<path d="M13.3047 31.5077C13.3047 31.6378 13.3233 31.6843 13.3512 31.6192C13.3697 31.5635 13.3697 31.452 13.3512 31.3869C13.3233 31.3311 13.3047 31.3776 13.3047 31.5077Z" fill="white"/>
<path d="M13.8171 32.3043C13.7428 32.3786 13.8264 32.5274 13.9473 32.5274C13.9937 32.5274 14.0309 32.4623 14.0309 32.3879C14.0309 32.2485 13.9194 32.2021 13.8171 32.3043Z" fill="white"/>
<path d="M22.2103 35.0487C21.8478 35.2067 20.7232 35.4762 20.1749 35.5505C19.4035 35.6528 19.3663 35.7271 19.2919 37.2792C19.2548 38.0135 19.2269 38.6827 19.2362 38.757C19.2455 38.8314 19.2734 41.5731 19.2919 44.8447C19.3477 51.6758 19.2826 51.2297 20.1563 51.239C20.5652 51.2483 20.6768 51.2111 20.8905 50.9974L21.1415 50.7464L21.1879 47.0474L21.2344 43.3576L21.7735 43.3297C22.3032 43.3018 22.3032 43.3018 22.6285 42.8185C22.8051 42.5583 22.9538 42.2609 22.9538 42.1679C22.9538 41.8427 22.4612 41.4709 21.9594 41.3965C21.6991 41.3687 21.4575 41.3129 21.411 41.2757C21.1972 41.127 21.1229 40.3184 21.1694 38.6827L21.2065 36.9911L22.1545 36.9818C23.307 36.9725 23.5208 36.9168 23.6788 36.5822C23.8832 36.1732 23.7438 35.6992 23.2977 35.2996C22.9074 34.9278 22.6471 34.8721 22.2103 35.0487Z" fill="white"/>
<path d="M26.0191 35.1954C25.9448 35.2232 25.8146 35.2976 25.7403 35.3627C25.6659 35.4277 25.4801 35.5021 25.3221 35.5392C24.8295 35.6601 24.625 35.846 24.625 36.1805C24.625 36.5895 24.7737 36.7754 25.2291 36.9241L25.6009 37.0542L25.6009 40.9484C25.6009 43.0861 25.5916 44.9914 25.5823 45.168C25.573 45.3445 25.5823 46.2647 25.6102 47.2034C25.6381 48.1328 25.6381 49.0064 25.6102 49.1272C25.573 49.2667 25.415 49.4061 25.1455 49.5176C24.8016 49.6756 24.7365 49.75 24.6901 50.0381C24.625 50.4377 24.7365 50.7909 25.0154 51.0883C25.1826 51.2649 25.3128 51.2928 25.9634 51.3021C28.2962 51.3485 28.4356 51.2835 28.5657 50.1775C28.6215 49.6663 28.5192 49.5362 28.0545 49.5362C27.8686 49.5362 27.6642 49.4804 27.6084 49.4061C27.469 49.2388 27.5434 46.748 27.6921 46.4784C27.7478 46.3762 27.785 45.642 27.785 44.7683C27.785 43.9318 27.8129 41.8592 27.8501 40.1677L27.9058 37.0821L28.2218 36.8962C28.5006 36.7289 28.5285 36.6824 28.5285 36.2456C28.5285 35.6787 28.3426 35.2697 28.0452 35.1861C27.785 35.121 26.2143 35.121 26.0191 35.1954Z" fill="white"/>
<path d="M51.7565 35.6258C51.5613 35.7559 51.394 35.9697 51.3197 36.1928C51.2546 36.3879 51.1059 36.676 50.9758 36.8248C50.8457 36.9735 50.7434 37.1965 50.7434 37.3266C50.7434 37.4475 50.6598 37.6333 50.5575 37.7356C50.4553 37.8378 50.3159 38.0702 50.2323 38.2653C50.0092 38.7858 49.8791 38.5349 49.8047 37.4753C49.7304 36.3136 49.5073 35.6909 49.117 35.5793C48.7824 35.4864 48.0295 35.57 47.8251 35.7188C47.695 35.821 47.6764 36.453 47.6857 41.7785C47.6857 45.05 47.695 48.2286 47.7135 48.842C47.7228 49.4555 47.695 50.0782 47.6578 50.2269C47.5277 50.7288 47.6857 50.8403 48.4943 50.8403C49.2935 50.8403 49.3865 50.8031 49.4887 50.4685C49.5259 50.3384 49.6281 50.1618 49.7025 50.0689C49.8233 49.9295 49.8512 49.6413 49.8605 48.5632C49.8698 47.6245 49.907 47.1877 49.9906 47.0855C50.1951 46.8345 50.2787 47.0111 50.2787 47.6896C50.2787 48.1915 50.3066 48.3309 50.4181 48.3309C50.5854 48.3309 50.7063 48.5539 50.7713 49.0186C50.8085 49.2138 50.92 49.474 51.0223 49.5856C51.1338 49.7064 51.2453 49.9759 51.2732 50.2083C51.3383 50.7009 51.5148 51.0633 51.7844 51.2492C52.184 51.528 53.2528 51.3793 53.4387 51.0262C53.5874 50.7473 53.541 50.3384 53.3458 50.1618C53.2343 50.0689 53.1599 49.8923 53.1599 49.7064C53.1599 49.5391 53.0298 49.1488 52.8811 48.842C52.7231 48.5353 52.6023 48.1729 52.6023 48.0428C52.6023 47.9033 52.5 47.6617 52.3699 47.513C52.184 47.2899 52.1375 47.1319 52.1375 46.723C52.1375 46.2862 52.1097 46.1932 51.9517 46.1468C51.7193 46.0724 51.6171 45.8865 51.5334 45.3846C51.4963 45.1709 51.394 44.892 51.3011 44.7805C51.2174 44.6597 51.0873 44.3437 51.0315 44.0649C50.9758 43.7953 50.8457 43.47 50.7434 43.3399C50.3903 42.8938 50.3903 41.9551 50.7527 41.5369C50.8457 41.4253 50.9758 41.1744 51.0223 40.9885C51.0687 40.8026 51.1988 40.5703 51.2918 40.4866C51.394 40.3937 51.5055 40.1892 51.5334 40.0219C51.5706 39.8639 51.6914 39.6316 51.8123 39.5015C51.9238 39.3713 52.0632 39.139 52.1097 38.9903C52.1654 38.8323 52.3141 38.5442 52.4535 38.349C52.5837 38.1538 52.6952 37.94 52.6952 37.875C52.6952 37.8099 52.7695 37.6612 52.8625 37.5404C53.1971 37.1129 53.4759 36.1184 53.3365 35.8582C53.2621 35.7188 52.4814 35.412 52.184 35.412C52.119 35.412 51.9331 35.505 51.7565 35.6258Z" fill="white"/>
<path d="M12.2626 35.7906C12.3741 36.153 12.4577 36.2739 12.5414 36.1809C12.6715 36.0508 12.5321 35.614 12.3555 35.5675C12.2161 35.5303 12.1975 35.5582 12.2626 35.7906Z" fill="white"/>
<path d="M31.8612 35.5689C31.5174 35.6247 30.4114 36.8422 30.337 37.2419C30.3091 37.4092 30.2905 38.1527 30.3184 38.8869C30.3463 40.0301 30.3742 40.2532 30.5229 40.4205C30.6158 40.5227 30.7552 40.8852 30.8203 41.2384C30.8947 41.5822 31.0155 41.9354 31.0991 42.0191C31.1735 42.1027 31.3036 42.3815 31.378 42.6232C31.4523 42.8648 31.5917 43.1529 31.6847 43.2552C31.7776 43.3667 31.8891 43.5805 31.9263 43.7478C31.9542 43.9058 32.1122 44.1753 32.2702 44.3333C32.5397 44.6214 32.549 44.6586 32.4932 45.1791C32.4282 45.7088 32.4375 45.7274 32.6605 45.8204C32.9115 45.9133 32.9208 45.9505 32.9301 47.0286C32.9394 48.2089 32.9022 48.3855 32.6327 48.6922C32.4747 48.8595 32.2516 49.0547 32.1122 49.1291C31.8984 49.2406 31.8241 49.2313 31.4988 49.0547C30.9876 48.7945 30.5972 48.8688 30.1232 49.3335C29.9095 49.538 29.7422 49.7796 29.7422 49.8726C29.7422 49.9655 29.956 50.2444 30.2162 50.4953L30.6902 50.9414L31.8148 50.8856C33.2461 50.8113 33.274 50.8113 33.655 50.4674C34.1011 50.0585 34.0825 50.0771 34.3242 49.7704C34.761 49.2127 34.7982 49.0733 34.8354 47.6792C34.8725 46.1364 34.761 45.0489 34.5194 44.7887C34.4264 44.6865 34.3428 44.4076 34.3149 44.1102C34.287 43.7013 34.2312 43.5898 34.064 43.5154C33.9245 43.4504 33.8223 43.2831 33.7572 43.0042C33.6922 42.7812 33.59 42.5395 33.5063 42.4745C33.432 42.4094 33.3111 42.1585 33.2368 41.9075C33.1624 41.6659 33.023 41.3406 32.9208 41.2012C32.8185 41.0618 32.707 40.7365 32.6791 40.4855C32.6512 40.2346 32.549 39.9 32.4468 39.742C32.2423 39.4074 32.1215 38.4873 32.2144 37.9296C32.2609 37.6322 32.3352 37.5207 32.549 37.4092C32.7442 37.3162 32.8836 37.2976 32.9951 37.3627C33.2182 37.4835 34.0732 37.4835 34.3056 37.3627C34.5008 37.2512 34.761 36.8051 34.761 36.5727C34.761 36.4891 34.5658 36.2288 34.3335 35.9965L33.906 35.5689L33.0137 35.5411C32.5211 35.5318 32.0007 35.5411 31.8612 35.5689Z" fill="white"/>
<path d="M37.0825 35.6154C36.9059 35.6619 36.72 35.7455 36.6735 35.7827C36.5713 35.8756 36.5992 39.0356 36.7014 39.7885C36.7386 40.0673 36.7293 40.4391 36.6921 40.6156C36.5899 41.0432 36.6085 50.3652 36.7107 50.5511C36.7479 50.6254 37.0732 50.8113 37.4263 50.9507L38.0583 51.2109L38.2535 50.9972C38.3558 50.8857 38.5416 50.5418 38.6532 50.2444C38.8483 49.7146 38.8576 49.5659 38.8483 46.5825C38.8298 43.1344 38.8112 43.2645 39.4339 43.3295L39.7313 43.3574L39.7592 46.9821C39.7778 50.2536 39.7963 50.6161 39.9358 50.7184C40.1495 50.8856 41.3949 50.8764 41.5343 50.7184C41.6738 50.5418 41.7016 35.9035 41.5622 35.7641C41.5065 35.7084 41.1254 35.6433 40.7165 35.6154C40.0287 35.5782 39.9729 35.5875 39.8707 35.7827C39.7963 35.9221 39.7778 36.2009 39.8149 36.6099C39.8521 36.9816 39.8242 37.4278 39.7592 37.7345C39.6848 38.0505 39.6569 38.4966 39.6941 38.8962C39.8149 40.1881 39.787 41.2384 39.6383 41.3592C39.3967 41.5636 38.7182 41.2941 38.8112 41.0339C38.839 40.9688 38.7926 40.6807 38.7089 40.3926C38.6067 40.058 38.5602 39.5375 38.5602 38.9241C38.5602 38.3944 38.5323 37.4649 38.4952 36.8515C38.4301 35.792 38.4208 35.7362 38.1978 35.6247C37.9282 35.4853 37.5379 35.4853 37.0825 35.6154Z" fill="white"/>
<path d="M57.1622 35.6054C56.8833 35.6519 56.651 35.6984 56.6417 35.717C56.3629 36.1538 56.0469 37.0739 56.0004 37.5665C55.9725 37.9011 55.8517 38.3844 55.7402 38.6353C55.5729 39.0164 55.5357 39.3045 55.4985 40.522C55.4613 41.9069 55.4427 41.9812 55.1732 42.5017L54.8944 43.05L54.8851 44.8717C54.8758 46.4517 54.8572 46.7491 54.7085 47.0093C54.5691 47.2603 54.5319 47.6227 54.4855 48.9797L54.4297 50.634L54.6435 50.7456C54.7829 50.8199 55.0989 50.8478 55.5543 50.8199C56.3815 50.7642 56.4837 50.6712 56.4837 49.9927C56.4837 49.5838 56.5395 49.0726 56.7625 47.5856L56.8276 47.1673L57.664 47.1673L58.5005 47.1673L58.5656 47.632C58.5935 47.883 58.6306 48.673 58.6306 49.37C58.6399 50.0671 58.6771 50.7456 58.7236 50.8757C58.8165 51.0987 59.6158 51.582 59.9132 51.582C59.9876 51.582 60.1642 51.4612 60.3129 51.3218L60.5731 51.0616L60.5266 49.3886C60.4987 48.4778 60.5173 47.4554 60.5638 47.1209C60.7125 46.1543 60.4895 43.9794 60.1549 43.0779C60.0712 42.8549 59.9876 42.1299 59.9411 41.2563C59.8946 40.4012 59.811 39.6298 59.718 39.351C59.6437 39.1 59.5136 38.561 59.4299 38.152C59.1325 36.665 58.6585 35.7542 58.0916 35.5962C57.9057 35.5497 57.7384 35.5125 57.7105 35.5125C57.6826 35.5218 57.441 35.559 57.1622 35.6054ZM57.6176 40.3454C57.6176 40.4012 57.7105 40.522 57.8127 40.6057C57.9986 40.7544 58.0172 40.8938 58.1009 42.5296C58.1473 43.4962 58.2217 44.4906 58.2682 44.7509C58.4355 45.6803 58.5005 45.5873 57.6176 45.5873L56.8276 45.5873L56.8462 44.946C56.8647 44.5929 56.9298 44.2211 57.0042 44.1096C57.1343 43.9051 57.283 42.7154 57.3945 41.0518C57.4224 40.5499 57.4875 40.1689 57.5339 40.206C57.5804 40.2339 57.6176 40.299 57.6176 40.3454Z" fill="white"/>
<path d="M68.2284 42.9022C68.2284 43.0045 68.2563 43.0324 68.2842 42.958C68.312 42.8929 68.3027 42.8093 68.2749 42.7814C68.247 42.7442 68.2191 42.8 68.2284 42.9022Z" fill="white"/>
<path d="M61.4905 47.4571C61.4069 47.6802 61.472 47.6988 61.6021 47.4943C61.6671 47.3921 61.6764 47.3084 61.63 47.3084C61.5835 47.3084 61.5184 47.3735 61.4905 47.4571Z" fill="white"/>
<path d="M56.6577 50.3458C56.5926 50.4201 56.89 50.8476 56.9737 50.7919C57.0852 50.7268 56.9737 50.3922 56.8343 50.3365C56.7692 50.3179 56.6855 50.3179 56.6577 50.3458Z" fill="white"/>
<path d="M57.25 50.9696C57.25 51.1183 57.4173 51.2577 57.5009 51.1741C57.5288 51.1462 57.4824 51.0625 57.3987 50.9789C57.2686 50.8488 57.25 50.8488 57.25 50.9696Z" fill="white"/>
<path d="M57.8984 51.6211C57.8984 51.6583 57.9635 51.7512 58.0378 51.8256C58.1122 51.9092 58.1773 51.9278 58.1773 51.8814C58.1773 51.8349 58.1122 51.742 58.0378 51.6769C57.9635 51.6118 57.8984 51.5932 57.8984 51.6211Z" fill="white"/>
<path d="M58.5469 52.2216C58.5469 52.4447 58.6677 52.5283 58.8536 52.454C59.0302 52.3889 59.1603 52.1008 58.993 52.1659C58.9279 52.1845 58.7978 52.1659 58.7142 52.1194C58.5841 52.0543 58.5469 52.0729 58.5469 52.2216Z" fill="white"/>
<path d="M47.0147 55.5117L46.6057 55.8091L45.0257 55.7626C44.1614 55.744 43.2134 55.7254 42.9346 55.7347C42.349 55.7533 38.2782 55.7626 30.815 55.7626C26.9301 55.7719 25.5546 55.7998 25.378 55.8835C25.062 56.0322 24.9876 56.5433 25.2664 56.6827C25.3966 56.7571 28.6495 56.785 35.8153 56.7943C43.6502 56.7943 46.1968 56.8222 46.2618 56.9058C46.3176 56.9709 46.3734 57.101 46.392 57.2032C46.4106 57.3333 46.4849 57.3798 46.6336 57.3612C46.7451 57.3426 46.8381 57.3705 46.8381 57.417C46.8381 57.5564 47.1076 57.6307 47.3493 57.5657C47.5258 57.5192 47.5816 57.4356 47.6002 57.1753L47.6281 56.8314L48.7155 56.8314C49.6821 56.8314 50.1654 56.9244 49.8401 57.0359C49.7471 57.0731 49.7564 57.1103 49.8587 57.2218C49.933 57.2962 49.9981 57.4449 49.9981 57.5657C49.9981 57.6772 50.0538 57.8538 50.1282 57.9467C50.2304 58.0954 50.2769 58.1047 50.3977 58.0025C50.4814 57.9374 50.7416 57.8724 50.9926 57.8445C51.4758 57.798 52.0428 57.575 52.0428 57.4356C52.0428 57.3798 52.1636 57.3426 52.3123 57.3426C52.4889 57.3426 52.6469 57.2683 52.7584 57.1289C52.9629 56.8593 53.1488 56.8129 54.2641 56.692L55.147 56.5991L55.4723 56.8593C55.9835 57.2497 56.3181 57.4542 56.3181 57.3519C56.3181 57.3054 56.2716 57.2311 56.2251 57.2032C56.1694 57.166 56.1508 57.101 56.1787 57.0545C56.2716 56.9058 56.1229 56.7478 56.03 56.8872C55.9742 56.9709 55.9556 56.8686 55.9649 56.5991L55.9928 56.1809L55.5467 56.153C55.2678 56.1344 55.082 56.0786 55.0448 55.9857C55.0169 55.9113 54.8961 55.8556 54.7846 55.8556C54.5615 55.8556 53.976 55.586 53.9202 55.4559C53.8551 55.3258 53.6321 55.3909 53.6786 55.521C53.7715 55.7626 52.777 55.902 51.8848 55.7626C51.2807 55.6697 51.0483 55.6697 50.723 55.7626C50.5093 55.8184 50.2026 55.8927 50.0446 55.9206C49.6356 55.9764 47.9998 55.6232 47.6838 55.4002L47.4143 55.205L47.0147 55.5117ZM47.5537 55.5396C47.5258 55.5674 47.4422 55.5767 47.3771 55.5489C47.3028 55.521 47.3307 55.4931 47.4329 55.4931C47.5351 55.4838 47.5909 55.5117 47.5537 55.5396Z" fill="white"/>
<path d="M47.5859 57.6809C47.5859 57.746 47.9856 58.0806 48.0692 58.0899C48.1064 58.0899 48.1157 58.0341 48.0878 57.9597C48.0413 57.8389 47.5859 57.5787 47.5859 57.6809Z" fill="white"/>
</svg>
